<svg width="154" height="52" viewBox="0 0 154 52" fill="none" xmlns="http://www.w3.org/2000/svg">
<g clip-path="url(#clip0_2758_7581)">
<path d="M6.23155 0H147.168C150.606 0 153.4 2.7976 153.4 6.24V45.76C153.4 49.2024 150.606 52 147.168 52H6.23155C2.79381 52 0 49.2024 0 45.76V6.24C0 2.7976 2.79381 0 6.23155 0Z" fill="#5A81EA"/>
<path d="M33.5756 24.8153C33.5444 21.0921 36.6186 19.2825 36.7537 19.1993C35.0088 16.6617 32.3085 16.3081 31.3634 16.2769C29.0992 16.0377 26.8974 17.6393 25.7446 17.6393C24.571 17.6393 22.7846 16.3081 20.8736 16.3393C18.4121 16.3809 16.0961 17.8057 14.8394 20.0313C12.2325 24.5553 14.1747 31.2113 16.6777 34.8721C17.9344 36.6609 19.3884 38.6681 21.3098 38.5953C23.1793 38.5225 23.8855 37.3993 26.1393 37.3993C28.3826 37.3993 29.0369 38.5953 30.9895 38.5537C33.0043 38.5225 34.261 36.7545 35.4762 34.9449C36.9198 32.8961 37.5014 30.8681 37.5222 30.7641C37.4703 30.7433 33.6171 29.2665 33.5756 24.8153Z" fill="white"/>
<path d="M29.8927 13.8737C30.9002 12.6153 31.5856 10.8993 31.3987 9.1521C29.9447 9.2145 28.1168 10.1609 27.0678 11.3985C26.1434 12.4905 25.3126 14.2689 25.5203 15.9433C27.1612 16.0681 28.8438 15.1113 29.8927 13.8737Z" fill="white"/>
<path d="M60.707 38.3343H58.0897L56.6565 33.8207H51.6712L50.3107 38.3343H47.7661L52.6994 22.9735H55.7529L60.707 38.3343ZM56.2306 31.9279L54.9324 27.9239C54.7974 27.5079 54.5377 26.5511 54.1638 25.0327H54.1119C53.9561 25.6879 53.7172 26.6551 53.3849 27.9239L52.1074 31.9279H56.2306Z" fill="white"/>
<path d="M73.3873 32.6665C73.3873 34.5489 72.8784 36.0361 71.8502 37.1281C70.9363 38.1057 69.7938 38.5841 68.4436 38.5841C66.9792 38.5841 65.9302 38.0641 65.2863 37.0137V42.8273H62.8249V30.8985C62.8249 29.7129 62.7937 28.5065 62.7314 27.2585H64.8917L65.0267 29.0161H65.0682C65.8887 27.6953 67.135 27.0297 68.7968 27.0297C70.1054 27.0297 71.1855 27.5497 72.0579 28.5793C72.9511 29.6193 73.3873 30.9713 73.3873 32.6665ZM70.8843 32.7497C70.8843 31.6681 70.6455 30.7841 70.1573 30.0873C69.6276 29.3593 68.911 28.9953 68.0178 28.9953C67.4154 28.9953 66.865 29.2033 66.3665 29.5985C65.8783 30.0041 65.546 30.5241 65.4006 31.1793C65.3279 31.4809 65.2863 31.7305 65.2863 31.9281V33.7793C65.2863 34.5801 65.5356 35.2665 66.0237 35.8177C66.5119 36.3689 67.1558 36.6497 67.9451 36.6497C68.8695 36.6497 69.5861 36.2857 70.1054 35.5785C70.6247 34.8609 70.8843 33.9249 70.8843 32.7497Z" fill="white"/>
<path d="M86.101 32.6665C86.101 34.5489 85.592 36.0361 84.5638 37.1281C83.6499 38.1057 82.5074 38.5841 81.1573 38.5841C79.6928 38.5841 78.6439 38.0641 77.9999 37.0137V42.8273H75.5385V30.8985C75.5385 29.7129 75.5073 28.5065 75.445 27.2585H77.6053L77.7403 29.0161H77.7818C78.6023 27.6953 79.8486 27.0297 81.5104 27.0297C82.819 27.0297 83.8991 27.5497 84.7716 28.5793C85.6647 29.6193 86.101 30.9713 86.101 32.6665ZM83.5979 32.7497C83.5979 31.6681 83.3591 30.7841 82.8709 30.0873C82.3413 29.3593 81.6246 28.9953 80.7314 28.9953C80.1291 28.9953 79.5786 29.2033 79.0801 29.5985C78.5919 30.0041 78.27 30.5241 78.1142 31.1793C78.0415 31.4809 77.9999 31.7305 77.9999 31.9281V33.7793C77.9999 34.5801 78.2492 35.2665 78.7373 35.8177C79.2255 36.3689 79.8694 36.6497 80.6587 36.6497C81.5831 36.6497 82.3101 36.2857 82.819 35.5785C83.3487 34.8609 83.5979 33.9249 83.5979 32.7497Z" fill="white"/>
<path d="M100.329 34.0287C100.329 35.3391 99.8723 36.3999 98.9687 37.2215C97.9717 38.1159 96.58 38.5631 94.7936 38.5631C93.1422 38.5631 91.8232 38.2407 90.8262 37.6063L91.3974 35.5575C92.4775 36.1919 93.6615 36.5143 94.9494 36.5143C95.8737 36.5143 96.6007 36.3063 97.1097 35.8903C97.629 35.4743 97.8886 34.9127 97.8886 34.2159C97.8886 33.5919 97.6705 33.0719 97.2551 32.6455C96.8292 32.2191 96.123 31.8239 95.1363 31.4599C92.4256 30.4511 91.0858 28.9847 91.0858 27.0607C91.0858 25.8023 91.5636 24.7727 92.5087 23.9615C93.4538 23.1607 94.7105 22.7551 96.2788 22.7551C97.6705 22.7551 98.8337 22.9943 99.7581 23.4831L99.1349 25.4799C98.2625 25.0119 97.2862 24.7727 96.1853 24.7727C95.3233 24.7727 94.6378 24.9911 94.1497 25.4071C93.7446 25.7919 93.5369 26.2495 93.5369 26.8007C93.5369 27.4039 93.7758 27.9135 94.2431 28.2983C94.6482 28.6623 95.396 29.0575 96.4761 29.4839C97.7951 30.0143 98.761 30.6383 99.3842 31.3559C100.018 32.0735 100.329 32.9679 100.329 34.0287Z" fill="white"/>
<path d="M108.47 29.1092H105.759V34.486C105.759 35.8484 106.237 36.5348 107.192 36.5348C107.628 36.5348 107.992 36.4932 108.283 36.4204L108.355 38.2924C107.867 38.4692 107.234 38.5628 106.444 38.5628C105.468 38.5628 104.72 38.2612 104.17 37.6684C103.619 37.0756 103.349 36.0772 103.349 34.6836V29.0988H101.739V27.258H103.349V25.23L105.759 24.502V27.258H108.47V29.1092Z" fill="white"/>
<path d="M120.666 32.7078C120.666 34.4134 120.178 35.807 119.212 36.899C118.194 38.0222 116.844 38.5838 115.161 38.5838C113.541 38.5838 112.243 38.043 111.277 36.9718C110.311 35.9006 109.833 34.5382 109.833 32.895C109.833 31.179 110.332 29.775 111.318 28.683C112.315 27.591 113.655 27.0398 115.338 27.0398C116.958 27.0398 118.266 27.5806 119.253 28.6622C120.198 29.7022 120.666 31.0542 120.666 32.7078ZM118.121 32.7598C118.121 31.7406 117.903 30.8774 117.467 30.1494C116.947 29.2654 116.21 28.8286 115.255 28.8286C114.268 28.8286 113.51 29.2654 113.001 30.1494C112.554 30.8774 112.347 31.7614 112.347 32.8118C112.347 33.831 112.565 34.7046 113.001 35.4222C113.531 36.3062 114.278 36.743 115.234 36.743C116.169 36.743 116.906 36.2958 117.446 35.4014C117.893 34.6526 118.121 33.779 118.121 32.7598Z" fill="white"/>
<path d="M128.665 29.4217C128.426 29.3801 128.166 29.3593 127.886 29.3593C127.024 29.3593 126.349 29.6817 125.881 30.3369C125.476 30.9089 125.269 31.6473 125.269 32.5209V38.3345H122.807V30.7425C122.807 29.4633 122.786 28.2985 122.734 27.2585H124.874L124.967 29.3801H125.04C125.3 28.6521 125.705 28.0593 126.266 27.6225C126.816 27.2273 127.408 27.0297 128.042 27.0297C128.27 27.0297 128.478 27.0505 128.654 27.0713L128.665 29.4217Z" fill="white"/>
<path d="M139.649 32.2707C139.649 32.7075 139.618 33.0819 139.556 33.3835H132.182C132.213 34.4755 132.566 35.3179 133.252 35.8899C133.875 36.3995 134.674 36.6595 135.661 36.6595C136.752 36.6595 137.749 36.4827 138.642 36.1395L139.026 37.8451C137.977 38.3027 136.741 38.5315 135.318 38.5315C133.605 38.5315 132.255 38.0219 131.278 37.0131C130.302 36.0043 129.814 34.6419 129.814 32.9467C129.814 31.2827 130.271 29.8891 131.185 28.7763C132.14 27.5907 133.428 26.9979 135.048 26.9979C136.637 26.9979 137.853 27.5907 138.663 28.7763C139.317 29.7331 139.649 30.8875 139.649 32.2707ZM137.302 31.6363C137.323 30.9083 137.157 30.2739 136.824 29.7435C136.399 29.0571 135.744 28.7139 134.872 28.7139C134.072 28.7139 133.418 29.0467 132.919 29.7123C132.514 30.2427 132.265 30.8875 132.192 31.6259L137.302 31.6363Z" fill="white"/>
<path d="M55.0455 17.4833H53.7576L53.0514 15.2681H50.6003L49.9252 17.4833H48.6789L51.0988 9.93286H52.5944L55.0455 17.4833ZM52.8333 14.3321L52.1997 12.3561C52.1374 12.1585 52.0128 11.6801 51.8154 10.9313H51.7947C51.7116 11.2537 51.6077 11.7217 51.4312 12.3561L50.808 14.3321H52.8333Z" fill="white"/>
<path d="M61.1092 12.0326L59.0528 17.4822H57.8792L55.8851 12.0326H57.1834L58.1077 14.9134C58.2635 15.3918 58.3985 15.8494 58.5024 16.2862H58.5335C58.627 15.891 58.762 15.4334 58.9282 14.9134L59.8422 12.0326H61.1092Z" fill="white"/>
<path d="M65.4931 17.4819L65.3996 16.8579H65.3685C64.9946 17.3571 64.4649 17.6067 63.7794 17.6067C62.8031 17.6067 62.1177 16.9203 62.1177 16.0051C62.1177 14.6635 63.2809 13.9667 65.2958 13.9667V13.8627C65.2958 13.1451 64.9115 12.7915 64.1637 12.7915C63.6236 12.7915 63.1563 12.9267 62.7408 13.1971L62.4916 12.4067C62.9901 12.0947 63.6236 11.9387 64.361 11.9387C65.7839 11.9387 66.5005 12.6875 66.5005 14.1955V16.2027C66.5005 16.7539 66.5213 17.1803 66.5836 17.5027L65.4931 17.4819ZM65.3269 14.7675C63.9871 14.7675 63.3121 15.0899 63.3121 15.8699C63.3121 16.4419 63.6548 16.7227 64.1429 16.7227C64.7557 16.7227 65.3269 16.2547 65.3269 15.6099V14.7675Z" fill="white"/>
<path d="M69.1886 11.1385C68.7836 11.1385 68.472 10.8265 68.472 10.4105C68.472 9.99447 68.7939 9.69287 69.2094 9.69287C69.6248 9.69287 69.9572 9.99447 69.9468 10.4105C69.9468 10.8473 69.6352 11.1385 69.1886 11.1385ZM68.607 12.0329H69.8118V17.4721H68.607V12.0329Z" fill="white"/>
<path d="M71.961 9.53674H73.1658V17.4719H71.961V9.53674Z" fill="white"/>
<path d="M78.298 17.4822L78.2046 16.8582H78.1734C77.7995 17.3574 77.2698 17.607 76.5844 17.607C75.6081 17.607 74.9226 16.9206 74.9226 16.0054C74.9226 14.6638 76.0858 13.967 78.1007 13.967V13.863C78.1007 13.1454 77.7164 12.7918 76.9686 12.7918C76.4286 12.7918 75.9612 12.927 75.5458 13.1974L75.2965 12.3966C75.795 12.0846 76.4286 11.9286 77.166 11.9286C78.5888 11.9286 79.3055 12.6774 79.3055 14.1854V16.1926C79.3055 16.7438 79.3262 17.1702 79.3782 17.4926H78.298V17.4822ZM78.1319 14.7678C76.7921 14.7678 76.117 15.0902 76.117 15.8702C76.117 16.4422 76.4597 16.723 76.9479 16.723C77.5606 16.723 78.1319 16.255 78.1319 15.6102V14.7678Z" fill="white"/>
<path d="M84.2086 17.6071C83.44 17.6071 82.8688 17.2847 82.4949 16.6399H82.4741L82.4014 17.4823H81.3732C81.4044 17.0455 81.4148 16.5567 81.4148 16.0159V9.53674H82.6299V12.8335H82.6507C83.0142 12.2303 83.5854 11.9287 84.3851 11.9287C85.6938 11.9287 86.6077 13.0519 86.6077 14.6847C86.6077 16.3695 85.5899 17.6071 84.2086 17.6071ZM83.9593 12.8751C83.2635 12.8751 82.6299 13.4783 82.6299 14.3207V15.2775C82.6299 16.0263 83.2012 16.6399 83.9386 16.6399C84.8421 16.6399 85.3822 15.9015 85.3822 14.7263C85.3822 13.6239 84.8214 12.8751 83.9593 12.8751Z" fill="white"/>
<path d="M88.3918 9.53674H89.5966V17.4719H88.3918V9.53674Z" fill="white"/>
<path d="M96.1718 15.049H92.5471C92.5679 16.0786 93.2534 16.661 94.2608 16.661C94.8009 16.661 95.289 16.5674 95.7252 16.401L95.9122 17.2434C95.4033 17.4722 94.8009 17.5762 94.0946 17.5762C92.3913 17.5762 91.3839 16.505 91.3839 14.8306C91.3839 13.1666 92.4121 11.9082 93.9596 11.9082C95.3409 11.9082 96.2237 12.9378 96.2237 14.4978C96.2237 14.7162 96.2134 14.9034 96.1718 15.049ZM95.0709 14.1858C95.0709 13.3434 94.6451 12.7506 93.8765 12.7506C93.1807 12.7506 92.6406 13.3538 92.5575 14.1858H95.0709Z" fill="white"/>
<path d="M103.495 17.607C101.905 17.607 100.877 16.4214 100.877 14.8094C100.877 13.1246 101.926 11.9286 103.588 11.9286C105.156 11.9286 106.205 13.0622 106.205 14.7158C106.205 16.411 105.125 17.607 103.495 17.607ZM103.546 12.8126C102.674 12.8126 102.113 13.6342 102.113 14.7678C102.113 15.891 102.684 16.7022 103.536 16.7022C104.388 16.7022 104.959 15.8286 104.959 14.7366C104.949 13.6342 104.398 12.8126 103.546 12.8126Z" fill="white"/>
<path d="M112.698 17.4823H111.494V14.3519C111.494 13.3847 111.12 12.9063 110.393 12.9063C109.676 12.9063 109.188 13.5199 109.188 14.2375V17.4719H107.983V13.5927C107.983 13.1143 107.973 12.5943 107.942 12.0327H109.001L109.053 12.8751H109.084C109.406 12.2927 110.071 11.9183 110.808 11.9183C111.95 11.9183 112.698 12.7919 112.698 14.2167V17.4823Z" fill="white"/>
<path d="M120.6 12.9477H119.271V15.5893C119.271 16.2653 119.51 16.5981 119.977 16.5981C120.185 16.5981 120.372 16.5773 120.517 16.5461L120.549 17.4613C120.31 17.5549 119.998 17.5965 119.614 17.5965C118.658 17.5965 118.097 17.0661 118.097 15.6933V12.9477H117.308V12.0429H118.097V11.0445L119.281 10.6805V12.0325H120.611V12.9477" fill="white"/>
<path d="M126.998 17.4823H125.793V14.3727C125.793 13.3951 125.42 12.9063 124.693 12.9063C124.069 12.9063 123.488 13.3327 123.488 14.1959V17.4719H122.283V9.53674H123.488V12.8023H123.509C123.893 12.2095 124.433 11.9183 125.139 11.9183C126.292 11.9183 126.998 12.8127 126.998 14.2375V17.4823Z" fill="white"/>
<path d="M133.167 15.049H129.542C129.563 16.0786 130.248 16.661 131.256 16.661C131.796 16.661 132.284 16.5674 132.72 16.401L132.907 17.2434C132.398 17.4722 131.796 17.5762 131.089 17.5762C129.386 17.5762 128.379 16.505 128.379 14.8306C128.379 13.1666 129.407 11.9082 130.954 11.9082C132.336 11.9082 133.219 12.9378 133.219 14.4978C133.219 14.7162 133.208 14.9034 133.167 15.049ZM132.066 14.1858C132.066 13.3434 131.64 12.7506 130.871 12.7506C130.175 12.7506 129.625 13.3538 129.552 14.1858H132.066Z" fill="white"/>
</g>
<defs>
<clipPath id="clip0_2758_7581">
<rect width="153.4" height="52" fill="white"/>
</clipPath>
</defs>
</svg>
