<svg width="175" height="52" viewBox="0 0 175 52" fill="none" xmlns="http://www.w3.org/2000/svg">
<g clip-path="url(#clip0_2758_7583)">
<path d="M162.512 0H12.9017C12.4246 0 11.9564 0 11.4928 0C11.0922 0 10.6961 0.013435 10.2955 0.013435C9.44478 0.0403061 8.58056 0.0940476 7.71633 0.250796C6.85211 0.394108 6.0554 0.649385 5.26769 1.04349C4.49799 1.44208 3.79131 1.95711 3.17915 2.56618C2.55348 3.17526 2.04936 3.87391 1.64875 4.64421C1.24815 5.42347 0.996078 6.23409 0.85204 7.09396C0.694499 7.9404 0.640486 8.80028 0.613479 9.66015C0.613479 10.0453 0.599976 10.4394 0.599976 10.838V12.2398V39.7602V41.162C0.599976 41.5606 0.613479 41.9547 0.613479 42.3533C0.640486 43.2132 0.694499 44.073 0.85204 44.9195C0.996078 45.7793 1.25265 46.5855 1.64875 47.3692C2.04936 48.1216 2.55348 48.8382 3.17915 49.4338C3.79131 50.0429 4.49349 50.5579 5.26769 50.9431C6.0509 51.3551 6.85211 51.6059 7.71633 51.7626C8.58056 51.906 9.44478 51.9597 10.2955 51.9866C10.6961 51.9866 11.0922 52 11.4928 52C11.9564 52 12.4246 52 12.9017 52H162.512C162.975 52 163.444 52 163.907 52C164.294 52 164.704 51.9866 165.091 51.9866C165.955 51.9597 166.819 51.906 167.67 51.7626C168.534 51.6059 169.345 51.3506 170.132 50.9431C170.902 50.5579 171.609 50.0429 172.221 49.4338C172.833 48.8382 173.351 48.1261 173.751 47.3692C174.152 46.59 174.404 45.7793 174.548 44.9195C174.705 44.073 174.759 43.2132 174.786 42.3533C174.786 41.9547 174.786 41.5606 174.786 41.162C174.8 40.7007 174.8 40.2349 174.8 39.7602V12.2398C174.8 11.765 174.8 11.2993 174.786 10.838C174.786 10.4394 174.786 10.0453 174.786 9.66015C174.759 8.80028 174.705 7.9404 174.548 7.09396C174.404 6.23409 174.147 5.42795 173.751 4.64421C173.351 3.87839 172.833 3.17526 172.221 2.56618C171.609 1.95711 170.906 1.44208 170.132 1.04349C169.349 0.644906 168.534 0.394108 167.67 0.250796C166.819 0.0940476 165.955 0.0403061 165.091 0.013435C164.704 0.013435 164.294 0 163.907 0C163.444 0 162.975 0 162.512 0Z" fill="#5A81EA"/>
<path d="M11.4928 50.8714C11.0922 50.8714 10.7231 50.8714 10.3225 50.8579C9.60236 50.8445 8.75163 50.8042 7.91441 50.6474C7.13121 50.5131 6.42452 50.2757 5.77185 49.9443C5.10568 49.6129 4.49352 49.1651 3.97588 48.6455C3.44474 48.1171 3.00363 47.5214 2.66154 46.8452C2.32845 46.1958 2.10339 45.5106 1.95486 44.7134C1.79732 43.8535 1.7568 42.9802 1.7433 42.3174C1.7298 42.0397 1.7298 41.1396 1.7298 41.1396V10.829C1.7298 10.829 1.7433 9.94226 1.7433 9.67802C1.7568 9.00177 1.79732 8.12846 1.95486 7.28202C2.09889 6.48933 2.32845 5.79963 2.66154 5.13681C3.00813 4.47399 3.44474 3.86491 3.96688 3.34988C4.49802 2.82142 5.11018 2.36909 5.77635 2.04216C6.44253 1.69732 7.14471 1.47339 7.91891 1.33904C8.78314 1.18229 9.66087 1.14198 10.3405 1.12855L11.4973 1.11511H163.894L165.077 1.12855C165.744 1.14198 166.621 1.18229 167.472 1.33904C168.255 1.47339 168.962 1.69732 169.628 2.04216C170.294 2.37357 170.906 2.82142 171.424 3.34988C171.955 3.86491 172.396 4.47399 172.752 5.15025C173.085 5.79963 173.31 6.49828 173.432 7.26858C173.589 8.07471 173.63 8.90772 173.657 9.69146C173.67 10.0497 173.67 10.4439 173.67 10.829C173.67 11.3037 173.67 11.7695 173.67 12.2308V39.7512C173.67 40.2125 173.67 40.6783 173.67 41.1396C173.67 41.5516 173.67 41.9323 173.657 42.3308C173.63 43.0832 173.589 43.9207 173.445 44.7C173.31 45.4927 173.085 46.1824 172.738 46.8452C172.392 47.5214 171.955 48.1171 171.433 48.6321C170.902 49.1606 170.29 49.5995 169.624 49.9398C168.957 50.2847 168.269 50.4952 167.468 50.643C166.644 50.7997 165.793 50.84 165.059 50.8534C164.686 50.8669 164.29 50.8669 163.903 50.8669H162.507H11.4928V50.8714Z" fill="#5A81EA"/>
<path d="M59.9345 32.9842L57.0357 25.1916L54.1505 32.9842H59.9345ZM49.8293 38.7659L55.8384 23.1001H58.2465L64.2556 38.7659H62.0365L60.6007 34.7442H53.5113L52.0754 38.7659H49.8293ZM68.3382 37.0059V43.2355H66.3982V27.0143H68.3382V28.7878C68.7478 28.0892 69.2609 27.5741 69.8821 27.2383C70.5123 26.8934 71.2549 26.7232 72.1147 26.7232C73.5505 26.7232 74.7163 27.292 75.6121 28.4295C76.5168 29.5581 76.9669 31.0495 76.9669 32.9036C76.9669 34.7487 76.5168 36.2356 75.6121 37.3776C74.7163 38.5062 73.5505 39.0705 72.1147 39.0705C71.2549 39.0705 70.5123 38.9048 69.8821 38.5689C69.2609 38.224 68.7478 37.7001 68.3382 37.0059ZM74.9459 32.9036C74.9459 31.4839 74.6488 30.3687 74.0547 29.5581C73.4785 28.7475 72.6773 28.34 71.6465 28.34C70.6203 28.34 69.8056 28.7475 69.2114 29.5581C68.6263 30.3687 68.3337 31.4839 68.3337 32.9036C68.3337 34.3233 68.6263 35.4384 69.2114 36.249C69.8056 37.0507 70.6158 37.4537 71.6465 37.4537C72.6728 37.4537 73.4785 37.0507 74.0547 36.249C74.6488 35.4384 74.9459 34.3233 74.9459 32.9036ZM82.0623 37.0059V43.2355H80.1088V27.0143H82.0623V28.7878C82.4719 28.0892 82.9805 27.5741 83.5927 27.2383C84.2228 26.8934 84.97 26.7232 85.8388 26.7232C87.2656 26.7232 88.4269 27.292 89.3227 28.4295C90.2274 29.5581 90.6775 31.0495 90.6775 32.9036C90.6775 34.7487 90.2274 36.2356 89.3227 37.3776C88.4269 38.5062 87.2656 39.0705 85.8388 39.0705C84.97 39.0705 84.2228 38.9048 83.5927 38.5689C82.9805 38.224 82.4674 37.7001 82.0623 37.0059ZM88.6565 32.9036C88.6565 31.4839 88.3594 30.3687 87.7653 29.5581C87.1891 28.7475 86.3879 28.34 85.3571 28.34C84.3309 28.34 83.5161 28.7475 82.922 29.5581C82.3458 30.3687 82.0578 31.4839 82.0578 32.9036C82.0578 34.3233 82.3458 35.4384 82.922 36.249C83.5161 37.0507 84.3264 37.4537 85.3571 37.4537C86.3834 37.4537 87.1891 37.0507 87.7653 36.249C88.3594 35.4384 88.6565 34.3233 88.6565 32.9036ZM104.64 36.5312V32.3258H101.17V30.5792H106.756V37.3149C105.932 37.8971 105.023 38.336 104.028 38.6361C103.042 38.9272 101.989 39.0705 100.864 39.0705C98.397 39.0705 96.4705 38.3539 95.0797 36.9253C93.6978 35.4966 93.0046 33.5037 93.0046 30.9465C93.0046 28.3892 93.6978 26.3963 95.0797 24.9677C96.4705 23.5301 98.4015 22.809 100.864 22.809C101.89 22.809 102.862 22.9389 103.776 23.1942C104.708 23.4405 105.563 23.8122 106.342 24.3048V26.5665C105.554 25.8947 104.717 25.3931 103.83 25.0572C102.943 24.7213 102.011 24.5556 101.039 24.5556C99.1172 24.5556 97.6679 25.0886 96.6911 26.1545C95.7323 27.2293 95.2552 28.8281 95.2552 30.942C95.2552 33.0558 95.7323 34.6502 96.6911 35.7161C97.6679 36.782 99.1172 37.3149 101.039 37.3149C101.791 37.3149 102.466 37.2522 103.06 37.1313C103.645 37.0059 104.172 36.8044 104.64 36.5312ZM117.793 32.8498H115.866C114.295 32.8498 113.21 33.029 112.607 33.3917C112.004 33.7455 111.703 34.3546 111.703 35.219C111.703 35.9087 111.928 36.455 112.382 36.8581C112.832 37.2567 113.449 37.4537 114.232 37.4537C115.312 37.4537 116.177 37.0731 116.825 36.3162C117.473 35.5593 117.797 34.5472 117.797 33.2843V32.8498H117.793ZM119.733 32.0571V38.7659H117.793V36.979C117.351 37.6956 116.798 38.224 116.145 38.5689C115.479 38.9048 114.669 39.0705 113.71 39.0705C112.504 39.0705 111.54 38.7346 110.825 38.0628C110.114 37.3821 109.763 36.473 109.763 35.3354C109.763 34.0232 110.204 33.0245 111.09 32.3438C111.986 31.672 113.314 31.3361 115.078 31.3361H117.793V31.1525C117.793 30.2613 117.5 29.5716 116.915 29.0879C116.33 28.6042 115.506 28.3624 114.444 28.3624C113.769 28.3624 113.116 28.443 112.477 28.5997C111.838 28.7565 111.221 29.0028 110.627 29.3252V27.5383C111.338 27.2651 112.027 27.0636 112.702 26.9292C113.368 26.7859 114.012 26.7188 114.642 26.7188C116.352 26.7188 117.631 27.1576 118.472 28.0399C119.314 28.9311 119.733 30.2657 119.733 32.0571ZM123.734 38.7659V22.4418H125.674V38.7659H123.734ZM129.734 38.7659V22.4418H131.674V38.7659H129.734ZM145.781 32.402V33.3559H136.86C136.941 34.6771 137.337 35.6937 138.057 36.3968C138.782 37.0865 139.79 37.4269 141.077 37.4269C141.82 37.4269 142.54 37.3373 143.233 37.1626C143.944 36.979 144.638 36.7058 145.322 36.3431V38.1703C144.629 38.4614 143.917 38.6853 143.179 38.8466C142.455 38.9944 141.712 39.0705 140.96 39.0705C139.079 39.0705 137.589 38.5241 136.477 37.4313C135.379 36.3475 134.83 34.8741 134.83 33.0111C134.83 31.0808 135.352 29.5536 136.4 28.434C137.445 27.2965 138.858 26.7277 140.627 26.7277C142.216 26.7277 143.467 27.2383 144.39 28.2638C145.317 29.276 145.781 30.6554 145.781 32.402ZM136.914 31.8466H143.841C143.823 30.7897 143.521 29.9433 142.936 29.3073C142.36 28.6803 141.595 28.3668 140.636 28.3668C139.556 28.3668 138.687 28.6714 138.03 29.2805C137.382 29.8895 137.013 30.7449 136.914 31.8466ZM155.729 26.8307L155.742 28.8147C155.521 28.6893 155.283 28.5997 155.022 28.537C154.761 28.4743 154.486 28.443 154.185 28.443C153.086 28.443 152.24 28.8013 151.646 29.5133C151.061 30.2209 150.768 31.2376 150.768 32.5677V38.7615H148.828V27.0143H150.768V28.8416C151.178 28.125 151.709 27.5965 152.366 27.2517C153.023 26.8979 153.816 26.7232 154.747 26.7232C154.882 26.7232 155.031 26.7367 155.197 26.7635C155.355 26.7725 155.535 26.7949 155.729 26.8307ZM167.882 27.0143L162.696 39.8497C162.147 41.2515 161.612 42.1696 161.089 42.5995C160.567 43.025 159.87 43.2355 159.001 43.2355H157.443V41.6232H158.587C159.118 41.6232 159.536 41.4934 159.838 41.2381C160.131 40.9918 160.455 40.3961 160.81 39.4512L161.17 38.5778L156.381 27.0143H158.443L162.138 36.1953L165.82 27.0143H167.882Z" fill="white"/>
<path d="M49.7079 17.596V9.51233H54.8392V10.4259H50.7972V12.822H54.6682V13.749H50.7972V16.6735H54.9473V17.6005H49.7079V17.596ZM58.8858 13.2832L56.3606 9.51233H57.5444L59.5655 12.5174L61.5865 9.51233H62.7703L60.1641 13.3907L62.9413 17.596H61.7575L59.4844 14.1565L57.1708 17.596H55.987L58.8858 13.2832ZM66.8619 10.4125H65.48V13.4445H66.8619C67.375 13.4445 67.7756 13.3146 68.0592 13.0593C68.3337 12.7951 68.4733 12.4144 68.4733 11.9218C68.4733 11.447 68.3337 11.0753 68.0592 10.8111C67.7756 10.5469 67.375 10.4125 66.8619 10.4125ZM64.3907 17.596V9.51233H66.8619C67.7756 9.51233 68.4643 9.71387 68.9369 10.1214C69.396 10.5379 69.6301 11.1336 69.6301 11.9218C69.6301 12.7234 69.4005 13.328 68.9369 13.7356C68.4688 14.1431 67.7756 14.3446 66.8619 14.3446H65.48V17.6005H64.3907V17.596ZM71.1065 17.596V9.51233H72.2093V16.669H76.1703V17.596H71.1065ZM80.2259 10.2558C79.4291 10.2558 78.79 10.5513 78.3129 11.1425C77.8537 11.7337 77.6197 12.5398 77.6197 13.5654C77.6197 14.5775 77.8492 15.3881 78.3129 15.9883C78.79 16.5794 79.4291 16.875 80.2259 16.875C81.0226 16.875 81.6527 16.5794 82.1118 15.9883C82.58 15.3881 82.8185 14.582 82.8185 13.5654C82.8185 12.5443 82.5845 11.7337 82.1118 11.1425C81.6527 10.5469 81.0226 10.2558 80.2259 10.2558ZM80.2259 9.36902C81.3602 9.36902 82.2694 9.7497 82.9536 10.5066C83.6377 11.2634 83.9753 12.2845 83.9753 13.5609C83.9753 14.8418 83.6332 15.8584 82.9536 16.6153C82.2694 17.3721 81.3602 17.7528 80.2259 17.7528C79.0826 17.7528 78.1643 17.3721 77.4711 16.6153C76.787 15.8584 76.4494 14.8373 76.4494 13.5609C76.4494 12.2801 76.7915 11.2634 77.4711 10.5066C78.1643 9.74522 79.0826 9.36902 80.2259 9.36902ZM89.5478 13.7983C89.7864 13.8789 90.0159 14.0491 90.241 14.3133C90.4615 14.5686 90.6866 14.9269 90.9207 15.3837L92.0369 17.5916H90.8531L89.8179 15.5135C89.5433 14.9761 89.2822 14.6178 89.0347 14.4432C88.7781 14.2685 88.4315 14.1789 87.9994 14.1789H86.8021V17.5916H85.6993V9.51233H88.1839C89.1157 9.51233 89.8089 9.70491 90.2725 10.0945C90.7226 10.4752 90.9522 11.0574 90.9522 11.8412C90.9522 12.3517 90.8306 12.7772 90.5921 13.1131C90.3445 13.4445 90.0024 13.6773 89.5478 13.7983ZM88.1794 10.4125H86.7976V13.2832H88.1794C88.7106 13.2832 89.1112 13.1578 89.3768 12.9115C89.6513 12.6652 89.7909 12.3069 89.7909 11.8412C89.7909 11.3664 89.6513 11.0082 89.3768 10.7708C89.1112 10.5334 88.7106 10.4125 88.1794 10.4125ZM93.4458 17.596V9.51233H98.5772V10.4259H94.5486V12.822H98.4196V13.749H94.5486V16.6735H98.6852V17.6005H93.4458V17.596ZM104.028 17.596V9.51233H105.131V17.596H104.028ZM106.198 10.4259V9.51233H113.071V10.4259H110.186V17.596H109.083V10.4259H106.198ZM120.971 10.2558C120.174 10.2558 119.539 10.5513 119.071 11.1425C118.603 11.7337 118.364 12.5398 118.364 13.5654C118.364 14.5775 118.598 15.3881 119.071 15.9883C119.539 16.5794 120.174 16.875 120.971 16.875C121.767 16.875 122.402 16.5794 122.87 15.9883C123.329 15.3881 123.563 14.582 123.563 13.5654C123.563 12.5443 123.334 11.7337 122.87 11.1425C122.402 10.5469 121.767 10.2558 120.971 10.2558ZM120.971 9.36902C122.114 9.36902 123.028 9.7497 123.712 10.5066C124.396 11.2634 124.733 12.2845 124.733 13.5609C124.733 14.8418 124.391 15.8584 123.712 16.6153C123.032 17.3721 122.114 17.7528 120.971 17.7528C119.827 17.7528 118.913 17.3721 118.229 16.6153C117.545 15.8584 117.208 14.8373 117.208 13.5609C117.208 12.2801 117.55 11.2634 118.229 10.5066C118.913 9.74522 119.827 9.36902 120.971 9.36902ZM126.448 17.596V9.51233H127.925L131.53 16.2749V9.51233H132.606V17.596H131.116L127.511 10.8335V17.596H126.448Z" fill="white"/>
<path d="M35.7992 9.53931H21.3324C14.5086 9.53931 12.0105 12.0114 12.0105 18.8009V33.1948C12.0105 39.9842 14.5086 42.4698 21.3324 42.4698H35.7992C42.6095 42.4698 45.1076 39.9842 45.1076 33.1948V18.8009C45.1076 12.0114 42.623 9.53931 35.7992 9.53931Z" fill="white"/>
<path fill-rule="evenodd" clip-rule="evenodd" d="M26.1352 29.4103L25.7346 30.297H24.8433L26.7428 25.9977H27.5125L29.412 30.297H28.4938L28.1067 29.4103H26.1352ZM26.4503 28.631H27.7781L27.1119 27.0949L26.4503 28.631ZM40.5479 25.9977H41.4257V30.297H40.5479V25.9977ZM37.1045 29.5178H39.5127V30.297H36.2403V25.9977H39.4181V26.7904H37.1045V27.6637H38.7025V28.4564H37.1045V29.5178ZM34.6154 25.9977H35.5336L34.0302 30.3105H33.2875L32.3018 27.48L31.316 30.3105H30.5958L29.0789 25.9977H30.0242L30.9829 28.9624L31.9552 25.9977H32.6754L33.6611 28.9624L34.6154 25.9977ZM23.5155 25.9977H24.3932V28.434C24.3932 29.6656 23.7135 30.3776 22.5162 30.3776C21.3459 30.3776 20.6662 29.6745 20.6662 28.4608V26.0021H21.544V28.4384C21.544 29.164 21.8906 29.5491 22.5297 29.5491C23.1689 29.5491 23.5155 29.164 23.5155 28.4653V25.9977ZM18.5687 25.9977H19.4464V30.3105H18.5687V28.5504H16.5882V30.3105H15.7104V25.9977H16.5882V27.7308H18.5687V25.9977ZM28.5658 20.5204C25.5185 20.5204 23.0609 18.0617 23.0609 15.0432H23.8306C23.8306 17.6363 25.9596 19.7412 28.5658 19.7412C31.172 19.7412 33.301 17.6363 33.301 15.0432H34.0708C34.0708 18.0573 31.5996 20.5204 28.5658 20.5204Z" fill="#5A81EA"/>
</g>
<defs>
<clipPath id="clip0_2758_7583">
<rect width="174.2" height="52" fill="white" transform="translate(0.599976)"/>
</clipPath>
</defs>
</svg>
