<svg width="57" height="57" viewBox="0 0 57 57" fill="none" xmlns="http://www.w3.org/2000/svg">
<path d="M47.4444 56.2972C48.3816 57.2343 49.8969 57.2343 50.834 56.2972L56.2972 50.834C57.2343 49.8969 57.2343 48.3816 56.2972 47.4444L41.0575 32.2048C40.1204 31.2677 38.605 31.2677 37.6679 32.2048L32.2048 37.6679C31.2677 38.605 31.2677 40.1204 32.2048 41.0575L47.4444 56.2972Z" fill="#5A81EA"/>
<path d="M16.2506 25.1067C17.1877 26.0438 18.7031 26.0438 19.6402 25.1067L25.1033 19.6435C26.0404 18.7064 26.0404 17.1911 25.1033 16.254L9.84368 0.994338C8.90657 0.0572277 7.39126 0.0572278 6.45415 0.994339L0.990988 6.4575C0.0538753 7.39461 0.0538754 8.90992 0.990988 9.84703L16.2506 25.1067Z" fill="#5A81EA"/>
<path d="M6.46279 56.2972C7.3999 57.2343 8.91523 57.2343 9.85234 56.2972L25.1585 40.991C26.0956 40.0539 26.0956 38.5386 25.1585 37.6015L19.6953 32.1383C18.7582 31.2012 17.2429 31.2012 16.3058 32.1383L0.999627 47.4445C0.0625164 48.3816 0.0625165 49.8969 0.999628 50.834L6.46279 56.2972Z" fill="#5A81EA"/>
<path d="M37.6945 25.0675C38.6316 26.0046 40.1469 26.0046 41.0841 25.0675L56.2972 9.85437C57.2343 8.91726 57.2343 7.40193 56.2972 6.46482L50.834 1.00166C49.8969 0.0645491 48.3816 0.0645492 47.4444 1.00166L32.2247 16.2148C31.2876 17.1519 31.2876 18.6672 32.2247 19.6043L37.6945 25.0675Z" fill="#5A81EA"/>
</svg>
