<svg width="118" height="40" viewBox="0 0 118 40" fill="none" xmlns="http://www.w3.org/2000/svg">
<g clip-path="url(#clip0_15_118)">
<path d="M4.7935 0H113.207C115.851 0 118 2.152 118 4.8V35.2C118 37.848 115.851 40 113.207 40H4.7935C2.14909 40 0 37.848 0 35.2V4.8C0 2.152 2.14909 0 4.7935 0Z" fill="white"/>
<path d="M25.8274 19.0887C25.8034 16.2247 28.1682 14.8327 28.2721 14.7687C26.9299 12.8167 24.8527 12.5447 24.1257 12.5207C22.384 12.3367 20.6903 13.5687 19.8035 13.5687C18.9008 13.5687 17.5266 12.5447 16.0566 12.5687C14.1632 12.6007 12.3816 13.6967 11.4149 15.4087C9.40963 18.8887 10.9036 24.0087 12.829 26.8247C13.7957 28.2007 14.9142 29.7447 16.3922 29.6887C17.8302 29.6327 18.3735 28.7687 20.1071 28.7687C21.8328 28.7687 22.3361 29.6887 23.8381 29.6567C25.388 29.6327 26.3547 28.2727 27.2894 26.8807C28.3999 25.3047 28.8473 23.7447 28.8633 23.6647C28.8233 23.6487 25.8593 22.5127 25.8274 19.0887Z" fill="#002233"/>
<path d="M22.9944 10.672C23.7694 9.70404 24.2967 8.38404 24.1529 7.04004C23.0344 7.08804 21.6283 7.81604 20.8214 8.76804C20.1103 9.60804 19.4712 10.976 19.631 12.264C20.8933 12.36 22.1875 11.624 22.9944 10.672Z" fill="#002233"/>
<path d="M46.6977 29.4879H44.6844L43.5819 26.0159H39.7471L38.7005 29.4879H36.7431L40.538 17.6719H42.8868L46.6977 29.4879ZM43.2543 24.5599L42.2557 21.4799C42.1518 21.1599 41.9521 20.4239 41.6645 19.2559H41.6245C41.5047 19.7599 41.3209 20.5039 41.0653 21.4799L40.0826 24.5599H43.2543Z" fill="#002233"/>
<path d="M56.4518 25.128C56.4518 26.576 56.0603 27.72 55.2694 28.56C54.5663 29.312 53.6875 29.68 52.6489 29.68C51.5225 29.68 50.7155 29.28 50.2202 28.472V32.944H48.3268V23.768C48.3268 22.856 48.3028 21.928 48.2549 20.968H49.9166L50.0205 22.32H50.0524C50.6836 21.304 51.6423 20.792 52.9206 20.792C53.9272 20.792 54.7581 21.192 55.4292 21.984C56.1162 22.784 56.4518 23.824 56.4518 25.128ZM54.5264 25.192C54.5264 24.36 54.3426 23.68 53.9671 23.144C53.5597 22.584 53.0084 22.304 52.3214 22.304C51.858 22.304 51.4346 22.464 51.0511 22.768C50.6756 23.08 50.4199 23.48 50.3081 23.984C50.2522 24.216 50.2202 24.408 50.2202 24.56V25.984C50.2202 26.6 50.412 27.128 50.7874 27.552C51.1629 27.976 51.6583 28.192 52.2654 28.192C52.9765 28.192 53.5277 27.912 53.9272 27.368C54.3267 26.816 54.5264 26.096 54.5264 25.192Z" fill="#002233"/>
<path d="M66.2315 25.128C66.2315 26.576 65.84 27.72 65.0491 28.56C64.346 29.312 63.4672 29.68 62.4286 29.68C61.3022 29.68 60.4953 29.28 59.9999 28.472V32.944H58.1065V23.768C58.1065 22.856 58.0825 21.928 58.0346 20.968H59.6963L59.8002 22.32H59.8322C60.4633 21.304 61.422 20.792 62.7003 20.792C63.7069 20.792 64.5378 21.192 65.2089 21.984C65.8959 22.784 66.2315 23.824 66.2315 25.128ZM64.3061 25.192C64.3061 24.36 64.1223 23.68 63.7468 23.144C63.3394 22.584 62.7881 22.304 62.1011 22.304C61.6377 22.304 61.2143 22.464 60.8308 22.768C60.4553 23.08 60.2076 23.48 60.0878 23.984C60.0319 24.216 59.9999 24.408 59.9999 24.56V25.984C59.9999 26.6 60.1917 27.128 60.5672 27.552C60.9426 27.976 61.438 28.192 62.0452 28.192C62.7562 28.192 63.3154 27.912 63.7069 27.368C64.1143 26.816 64.3061 26.096 64.3061 25.192Z" fill="#002233"/>
<path d="M77.1764 26.1759C77.1764 27.1839 76.8248 27.9999 76.1298 28.6319C75.3628 29.3199 74.2923 29.6639 72.9181 29.6639C71.6479 29.6639 70.6332 29.4159 69.8663 28.9279L70.3057 27.3519C71.1365 27.8399 72.0473 28.0879 73.038 28.0879C73.749 28.0879 74.3082 27.9279 74.6997 27.6079C75.0992 27.2879 75.2989 26.8559 75.2989 26.3199C75.2989 25.8399 75.1311 25.4399 74.8116 25.1119C74.484 24.7839 73.9407 24.4799 73.1818 24.1999C71.0966 23.4239 70.066 22.2959 70.066 20.8159C70.066 19.8479 70.4335 19.0559 71.1605 18.4319C71.8875 17.8159 72.8542 17.5039 74.0606 17.5039C75.1311 17.5039 76.0259 17.6879 76.737 18.0639L76.2576 19.5999C75.5865 19.2399 74.8355 19.0559 73.9887 19.0559C73.3256 19.0559 72.7983 19.2239 72.4228 19.5439C72.1112 19.8399 71.9514 20.1919 71.9514 20.6159C71.9514 21.0799 72.1352 21.4719 72.4947 21.7679C72.8063 22.0479 73.3815 22.3519 74.2124 22.6799C75.227 23.0879 75.97 23.5679 76.4493 24.1199C76.9367 24.6719 77.1764 25.3599 77.1764 26.1759Z" fill="#002233"/>
<path d="M83.4381 22.3917H81.3529V26.5277C81.3529 27.5757 81.7204 28.1037 82.4554 28.1037C82.7909 28.1037 83.0706 28.0717 83.2943 28.0157L83.3502 29.4557C82.9747 29.5917 82.4874 29.6637 81.8802 29.6637C81.1292 29.6637 80.554 29.4317 80.1305 28.9757C79.7071 28.5197 79.4994 27.7517 79.4994 26.6797V22.3837H78.2611V20.9677H79.4994V19.4077L81.3529 18.8477V20.9677H83.4381V22.3917Z" fill="#002233"/>
<path d="M92.8197 25.1598C92.8197 26.4718 92.4442 27.5438 91.7012 28.3838C90.9183 29.2478 89.8797 29.6798 88.5854 29.6798C87.3391 29.6798 86.3405 29.2638 85.5975 28.4398C84.8545 27.6158 84.487 26.5678 84.487 25.3038C84.487 23.9838 84.8705 22.9038 85.6295 22.0638C86.3964 21.2238 87.427 20.7998 88.7213 20.7998C89.9676 20.7998 90.9742 21.2158 91.7332 22.0478C92.4602 22.8478 92.8197 23.8878 92.8197 25.1598ZM90.8624 25.1998C90.8624 24.4158 90.6946 23.7518 90.359 23.1918C89.9596 22.5118 89.3924 22.1758 88.6574 22.1758C87.8984 22.1758 87.3152 22.5118 86.9237 23.1918C86.5802 23.7518 86.4204 24.4318 86.4204 25.2398C86.4204 26.0238 86.5882 26.6958 86.9237 27.2478C87.3312 27.9278 87.9064 28.2638 88.6414 28.2638C89.3604 28.2638 89.9276 27.9198 90.3431 27.2318C90.6866 26.6558 90.8624 25.9838 90.8624 25.1998Z" fill="#002233"/>
<path d="M98.9729 22.632C98.7891 22.6 98.5894 22.584 98.3737 22.584C97.7106 22.584 97.1913 22.832 96.8318 23.336C96.5202 23.776 96.3604 24.344 96.3604 25.016V29.488H94.467V23.648C94.467 22.664 94.451 21.768 94.411 20.968H96.0568L96.1287 22.6H96.1846C96.3844 22.04 96.696 21.584 97.1274 21.248C97.5508 20.944 98.0062 20.792 98.4935 20.792C98.6693 20.792 98.8291 20.808 98.9649 20.824L98.9729 22.632Z" fill="#002233"/>
<path d="M107.423 24.8236C107.423 25.1596 107.399 25.4476 107.351 25.6796H101.678C101.702 26.5196 101.974 27.1676 102.501 27.6076C102.981 27.9996 103.596 28.1996 104.355 28.1996C105.194 28.1996 105.961 28.0636 106.648 27.7996L106.943 29.1116C106.136 29.4636 105.186 29.6396 104.091 29.6396C102.773 29.6396 101.734 29.2476 100.983 28.4716C100.232 27.6956 99.8568 26.6476 99.8568 25.3436C99.8568 24.0636 100.208 22.9916 100.911 22.1356C101.646 21.2236 102.637 20.7676 103.883 20.7676C105.106 20.7676 106.04 21.2236 106.664 22.1356C107.167 22.8716 107.423 23.7596 107.423 24.8236ZM105.617 24.3356C105.633 23.7756 105.505 23.2876 105.249 22.8796C104.922 22.3516 104.419 22.0876 103.748 22.0876C103.132 22.0876 102.629 22.3436 102.246 22.8556C101.934 23.2636 101.742 23.7596 101.686 24.3276L105.617 24.3356Z" fill="#002233"/>
<path d="M42.3427 13.4486H41.352L40.8088 11.7446H38.9233L38.404 13.4486H37.4453L39.3068 7.64062H40.4572L42.3427 13.4486ZM40.641 11.0246L40.1536 9.50463C40.1057 9.35263 40.0098 8.98463 39.858 8.40863H39.8421C39.7781 8.65663 39.6983 9.01663 39.5624 9.50463L39.0831 11.0246H40.641Z" fill="#002233"/>
<path d="M47.0071 9.25586L45.4253 13.4479H44.5225L42.9886 9.25586H43.9872L44.6983 11.4719C44.8181 11.8399 44.922 12.1919 45.0019 12.5279H45.0258C45.0977 12.2239 45.2016 11.8719 45.3294 11.4719L46.0325 9.25586H47.0071Z" fill="#002233"/>
<path d="M50.3793 13.4476L50.3074 12.9676H50.2835C49.9959 13.3516 49.5884 13.5436 49.0611 13.5436C48.3102 13.5436 47.7829 13.0156 47.7829 12.3116C47.7829 11.2796 48.6777 10.7436 50.2276 10.7436V10.6636C50.2276 10.1116 49.932 9.83959 49.3567 9.83959C48.9413 9.83959 48.5818 9.94359 48.2622 10.1516L48.0705 9.54359C48.454 9.30359 48.9413 9.18359 49.5085 9.18359C50.603 9.18359 51.1543 9.75959 51.1543 10.9196V12.4636C51.1543 12.8876 51.1703 13.2156 51.2182 13.4636L50.3793 13.4476ZM50.2515 11.3596C49.2209 11.3596 48.7016 11.6076 48.7016 12.2076C48.7016 12.6476 48.9653 12.8636 49.3408 12.8636C49.8121 12.8636 50.2515 12.5036 50.2515 12.0076V11.3596Z" fill="#002233"/>
<path d="M53.222 8.56805C52.9104 8.56805 52.6708 8.32805 52.6708 8.00805C52.6708 7.68805 52.9184 7.45605 53.238 7.45605C53.5576 7.45605 53.8132 7.68805 53.8052 8.00805C53.8052 8.34405 53.5655 8.56805 53.222 8.56805ZM52.7746 9.25605H53.7014V13.4401H52.7746V9.25605Z" fill="#002233"/>
<path d="M55.3546 7.33594H56.2814V13.4399H55.3546V7.33594Z" fill="#002233"/>
<path d="M60.2293 13.4478L60.1574 12.9678H60.1334C59.8458 13.3518 59.4383 13.5438 58.911 13.5438C58.1601 13.5438 57.6328 13.0158 57.6328 12.3118C57.6328 11.2798 58.5276 10.7438 60.0775 10.7438V10.6638C60.0775 10.1118 59.7819 9.83978 59.2066 9.83978C58.7912 9.83978 58.4317 9.94378 58.1121 10.1518L57.9204 9.53578C58.3039 9.29578 58.7912 9.17578 59.3584 9.17578C60.453 9.17578 61.0042 9.75178 61.0042 10.9118V12.4558C61.0042 12.8798 61.0202 13.2078 61.0601 13.4558H60.2293V13.4478ZM60.1014 11.3598C59.0708 11.3598 58.5515 11.6078 58.5515 12.2078C58.5515 12.6478 58.8152 12.8638 59.1907 12.8638C59.662 12.8638 60.1014 12.5038 60.1014 12.0078V11.3598Z" fill="#002233"/>
<path d="M64.7758 13.5439C64.1846 13.5439 63.7452 13.2959 63.4576 12.7999H63.4417L63.3857 13.4479H62.5948C62.6188 13.1119 62.6268 12.7359 62.6268 12.3199V7.33594H63.5615V9.87194H63.5775C63.8571 9.40794 64.2965 9.17594 64.9117 9.17594C65.9183 9.17594 66.6213 10.0399 66.6213 11.2959C66.6213 12.5919 65.8384 13.5439 64.7758 13.5439ZM64.5841 9.90394C64.0488 9.90394 63.5615 10.3679 63.5615 11.0159V11.7519C63.5615 12.3279 64.0009 12.7999 64.5681 12.7999C65.2632 12.7999 65.6786 12.2319 65.6786 11.3279C65.6786 10.4799 65.2472 9.90394 64.5841 9.90394Z" fill="#002233"/>
<path d="M67.9937 7.33594H68.9205V13.4399H67.9937V7.33594Z" fill="#002233"/>
<path d="M73.9783 11.5762H71.1901C71.2061 12.3682 71.7334 12.8162 72.5083 12.8162C72.9237 12.8162 73.2992 12.7442 73.6348 12.6162L73.7786 13.2642C73.3871 13.4402 72.9237 13.5202 72.3805 13.5202C71.0703 13.5202 70.2953 12.6962 70.2953 11.4082C70.2953 10.1282 71.0862 9.16016 72.2766 9.16016C73.3392 9.16016 74.0183 9.95216 74.0183 11.1522C74.0183 11.3202 74.0103 11.4642 73.9783 11.5762ZM73.1315 10.9122C73.1315 10.2642 72.8039 9.80816 72.2127 9.80816C71.6774 9.80816 71.262 10.2722 71.1981 10.9122H73.1315Z" fill="#002233"/>
<path d="M79.6112 13.5438C78.3888 13.5438 77.5979 12.6318 77.5979 11.3918C77.5979 10.0958 78.4048 9.17578 79.6831 9.17578C80.8894 9.17578 81.6963 10.0478 81.6963 11.3198C81.6963 12.6238 80.8655 13.5438 79.6112 13.5438ZM79.6511 9.85578C78.98 9.85578 78.5486 10.4878 78.5486 11.3598C78.5486 12.2238 78.988 12.8478 79.6431 12.8478C80.2982 12.8478 80.7376 12.1758 80.7376 11.3358C80.7297 10.4878 80.3062 9.85578 79.6511 9.85578Z" fill="#002233"/>
<path d="M86.691 13.448H85.7642V11.04C85.7642 10.296 85.4766 9.92797 84.9174 9.92797C84.3661 9.92797 83.9906 10.4 83.9906 10.952V13.44H83.0639V10.456C83.0639 10.088 83.0559 9.68797 83.0319 9.25597H83.8468L83.8868 9.90397H83.9107C84.1584 9.45597 84.6697 9.16797 85.2369 9.16797C86.1158 9.16797 86.691 9.83997 86.691 10.936V13.448Z" fill="#002233"/>
<path d="M92.7696 9.95982H91.747V11.9918C91.747 12.5118 91.9307 12.7678 92.2902 12.7678C92.45 12.7678 92.5938 12.7518 92.7057 12.7278L92.7296 13.4318C92.5459 13.5038 92.3062 13.5358 92.0106 13.5358C91.2756 13.5358 90.8442 13.1278 90.8442 12.0718V9.95982H90.237V9.26382H90.8442V8.49582L91.755 8.21582V9.25582H92.7776V9.95982" fill="#002233"/>
<path d="M97.6909 13.4479H96.7642V11.0559C96.7642 10.3039 96.4766 9.92794 95.9173 9.92794C95.438 9.92794 94.9906 10.2559 94.9906 10.9199V13.4399H94.0639V7.33594H94.9906V9.84794H95.0066C95.3022 9.39194 95.7176 9.16794 96.2609 9.16794C97.1477 9.16794 97.6909 9.85594 97.6909 10.9519V13.4479Z" fill="#002233"/>
<path d="M102.436 11.5762H99.6476C99.6636 12.3682 100.191 12.8162 100.966 12.8162C101.381 12.8162 101.757 12.7442 102.092 12.6162L102.236 13.2642C101.845 13.4402 101.381 13.5202 100.838 13.5202C99.5278 13.5202 98.7528 12.6962 98.7528 11.4082C98.7528 10.1282 99.5437 9.16016 100.734 9.16016C101.797 9.16016 102.476 9.95216 102.476 11.1522C102.476 11.3202 102.468 11.4642 102.436 11.5762ZM101.589 10.9122C101.589 10.2642 101.261 9.80816 100.67 9.80816C100.135 9.80816 99.7115 10.2722 99.6556 10.9122H101.589Z" fill="#002233"/>
</g>
<defs>
<clipPath id="clip0_15_118">
<rect width="118" height="40" fill="white"/>
</clipPath>
</defs>
</svg>
