<svg width="134" height="40" viewBox="0 0 134 40" fill="none" xmlns="http://www.w3.org/2000/svg">
<g clip-path="url(#clip0_15_171)">
<path d="M124.548 0H9.46286C9.09584 0 8.73574 0 8.37911 0C8.07095 0 7.76626 0.0103346 7.4581 0.0103346C6.8037 0.0310047 6.13891 0.0723443 5.47412 0.19292C4.80933 0.30316 4.19648 0.499527 3.59055 0.802688C2.99847 1.10929 2.45487 1.50547 1.98398 1.97399C1.5027 2.44251 1.11491 2.97993 0.80675 3.57247C0.498592 4.1719 0.304694 4.79545 0.193896 5.45689C0.0727105 6.108 0.0311616 6.76944 0.0103869 7.43089C0.0103869 7.72716 0 8.03031 0 8.33692V9.41521V30.5848V31.6631C0 31.9697 0.0103869 32.2728 0.0103869 32.5794C0.0311616 33.2409 0.0727105 33.9023 0.193896 34.5534C0.304694 35.2149 0.502055 35.835 0.80675 36.4379C1.11491 37.0166 1.5027 37.5678 1.98398 38.026C2.45487 38.4945 2.99501 38.8907 3.59055 39.187C4.19302 39.5039 4.80933 39.6968 5.47412 39.8174C6.13891 39.9277 6.8037 39.969 7.4581 39.9897C7.76626 39.9897 8.07095 40 8.37911 40C8.73574 40 9.09584 40 9.46286 40H124.548C124.904 40 125.264 40 125.621 40C125.919 40 126.234 39.9897 126.532 39.9897C127.196 39.969 127.861 39.9277 128.515 39.8174C129.18 39.6968 129.804 39.5005 130.409 39.187C131.002 38.8907 131.545 38.4945 132.016 38.026C132.487 37.5678 132.885 37.0201 133.193 36.4379C133.501 35.8384 133.695 35.2149 133.806 34.5534C133.927 33.9023 133.969 33.2409 133.99 32.5794C133.99 32.2728 133.99 31.9697 133.99 31.6631C134 31.3082 134 30.95 134 30.5848V9.41521C134 9.05004 134 8.69176 133.99 8.33692C133.99 8.03031 133.99 7.72716 133.99 7.43089C133.969 6.76944 133.927 6.108 133.806 5.45689C133.695 4.79545 133.498 4.17535 133.193 3.57247C132.885 2.98338 132.487 2.44251 132.016 1.97399C131.545 1.50547 131.005 1.10929 130.409 0.802688C129.807 0.496082 129.18 0.30316 128.515 0.19292C127.861 0.0723443 127.196 0.0310047 126.532 0.0103346C126.234 0.0103346 125.919 0 125.621 0C125.264 0 124.904 0 124.548 0Z" fill="#A6A6A6"/>
<path d="M8.37912 39.1318C8.07096 39.1318 7.78704 39.1318 7.47888 39.1215C6.92489 39.1112 6.27049 39.0802 5.62647 38.9596C5.02401 38.8562 4.48041 38.6737 3.97835 38.4187C3.46591 38.1638 2.99502 37.8193 2.59684 37.4197C2.18827 37.0132 1.84895 36.555 1.58581 36.0348C1.32958 35.5353 1.15646 35.0082 1.0422 34.395C0.921016 33.7335 0.889854 33.0617 0.879466 32.5519C0.869079 32.3383 0.86908 31.6458 0.86908 31.6458V8.33003C0.86908 8.33003 0.879466 7.64791 0.879466 7.44466C0.889854 6.92446 0.921016 6.25269 1.0422 5.60158C1.153 4.99182 1.32958 4.46128 1.58581 3.95142C1.85241 3.44156 2.18827 2.97304 2.58991 2.57686C2.99848 2.17035 3.46937 1.8224 3.98181 1.57092C4.49426 1.30565 5.0344 1.1334 5.62994 1.03005C6.29473 0.909478 6.9699 0.878473 7.49273 0.868138L8.38258 0.857803H125.61L126.521 0.868138C127.034 0.878473 127.709 0.909478 128.363 1.03005C128.966 1.1334 129.509 1.30565 130.022 1.57092C130.534 1.82585 131.005 2.17035 131.403 2.57686C131.812 2.97304 132.151 3.44156 132.425 3.96175C132.681 4.46128 132.854 4.9987 132.947 5.59124C133.069 6.21134 133.1 6.85212 133.121 7.45499C133.131 7.73059 133.131 8.03376 133.131 8.33003C133.131 8.6952 133.131 9.05348 133.131 9.40831V30.5779C133.131 30.9327 133.131 31.291 133.131 31.6458C133.131 31.9628 133.131 32.2556 133.121 32.5622C133.1 33.141 133.069 33.7852 132.958 34.3846C132.854 34.9944 132.681 35.5249 132.414 36.0348C132.148 36.555 131.812 37.0132 131.41 37.4093C131.002 37.8158 130.531 38.1535 130.018 38.4153C129.506 38.6806 128.976 38.8425 128.36 38.9562C127.726 39.0767 127.072 39.1077 126.507 39.1181C126.22 39.1284 125.915 39.1284 125.617 39.1284H124.544H8.37912V39.1318Z" fill="white"/>
<path d="M45.642 25.3724L43.4121 19.3781L41.1927 25.3724H45.642ZM37.8688 29.8199L42.4911 17.7693H44.3435L48.9659 29.8199H47.2589L46.1544 26.7263H40.7011L39.5965 29.8199H37.8688ZM52.1063 28.4661V33.2581H50.614V20.7802H52.1063V22.1445C52.4214 21.607 52.8161 21.2109 53.294 20.9525C53.7787 20.6872 54.35 20.5563 55.0113 20.5563C56.1159 20.5563 57.0126 20.9938 57.7016 21.8689C58.3976 22.737 58.7438 23.8842 58.7438 25.3104C58.7438 26.7298 58.3976 27.8735 57.7016 28.752C57.0126 29.6201 56.1159 30.0542 55.0113 30.0542C54.35 30.0542 53.7787 29.9267 53.294 29.6684C52.8161 29.4031 52.4214 29 52.1063 28.4661ZM57.1892 25.3104C57.1892 24.2184 56.9607 23.3606 56.5036 22.737C56.0605 22.1135 55.4441 21.8 54.6512 21.8C53.8618 21.8 53.2351 22.1135 52.7781 22.737C52.3279 23.3606 52.1029 24.2184 52.1029 25.3104C52.1029 26.4025 52.3279 27.2603 52.7781 27.8839C53.2351 28.5005 53.8583 28.8106 54.6512 28.8106C55.4407 28.8106 56.0605 28.5005 56.5036 27.8839C56.9607 27.2603 57.1892 26.4025 57.1892 25.3104ZM62.6633 28.4661V33.2581H61.1606V20.7802H62.6633V22.1445C62.9784 21.607 63.3697 21.2109 63.8406 20.9525C64.3253 20.6872 64.9001 20.5563 65.5683 20.5563C66.6659 20.5563 67.5592 20.9938 68.2482 21.8689C68.9442 22.737 69.2904 23.8842 69.2904 25.3104C69.2904 26.7298 68.9442 27.8735 68.2482 28.752C67.5592 29.6201 66.6659 30.0542 65.5683 30.0542C64.9001 30.0542 64.3253 29.9267 63.8406 29.6684C63.3697 29.4031 62.975 29 62.6633 28.4661ZM67.7358 25.3104C67.7358 24.2184 67.5073 23.3606 67.0502 22.737C66.6071 22.1135 65.9907 21.8 65.1978 21.8C64.4084 21.8 63.7817 22.1135 63.3247 22.737C62.8815 23.3606 62.6599 24.2184 62.6599 25.3104C62.6599 26.4025 62.8815 27.2603 63.3247 27.8839C63.7817 28.5005 64.4049 28.8106 65.1978 28.8106C65.9873 28.8106 66.6071 28.5005 67.0502 27.8839C67.5073 27.2603 67.7358 26.4025 67.7358 25.3104ZM80.0309 28.1009V24.866H77.3614V23.5225H81.6583V28.7038C81.0247 29.1516 80.3253 29.4892 79.5601 29.72C78.8018 29.944 77.9916 30.0542 77.126 30.0542C75.2285 30.0542 73.7466 29.503 72.6767 28.404C71.6137 27.3051 71.0805 25.7721 71.0805 23.805C71.0805 21.8379 71.6137 20.3048 72.6767 19.2059C73.7466 18.1 75.232 17.5454 77.126 17.5454C77.9154 17.5454 78.6633 17.6453 79.3662 17.8417C80.0829 18.0311 80.7407 18.3171 81.3398 18.696V20.4357C80.7338 19.919 80.0898 19.5332 79.4077 19.2748C78.7256 19.0164 78.0089 18.8889 77.261 18.8889C75.7825 18.8889 74.6676 19.2989 73.9163 20.1188C73.1788 20.9456 72.8118 22.1755 72.8118 23.8015C72.8118 25.4276 73.1788 26.654 73.9163 27.4739C74.6676 28.2938 75.7825 28.7038 77.261 28.7038C77.8392 28.7038 78.3586 28.6555 78.8156 28.5625C79.2657 28.4661 79.6708 28.311 80.0309 28.1009ZM90.1482 25.2691H88.6663C87.4579 25.2691 86.6234 25.4069 86.1595 25.6859C85.6955 25.9581 85.4635 26.4266 85.4635 27.0915C85.4635 27.622 85.6366 28.0423 85.9863 28.3524C86.3326 28.659 86.8069 28.8106 87.4094 28.8106C88.2404 28.8106 88.9052 28.5177 89.4038 27.9355C89.9024 27.3533 90.1517 26.5748 90.1517 25.6033V25.2691H90.1482ZM91.6405 24.6593V29.8199H90.1482V28.4454C89.8089 28.9966 89.383 29.4031 88.881 29.6684C88.3685 29.9267 87.7453 30.0542 87.0078 30.0542C86.0798 30.0542 85.3389 29.7958 84.7883 29.2791C84.2413 28.7554 83.9712 28.0561 83.9712 27.1811C83.9712 26.1717 84.3105 25.4034 84.9926 24.8798C85.6817 24.3631 86.7031 24.1047 88.0603 24.1047H90.1482V23.9634C90.1482 23.2779 89.9231 22.7473 89.473 22.3753C89.0229 22.0032 88.3893 21.8172 87.5722 21.8172C87.0528 21.8172 86.5507 21.8792 86.0591 21.9998C85.5674 22.1204 85.093 22.3098 84.636 22.5579V21.1833C85.1831 20.9732 85.7128 20.8181 86.2322 20.7148C86.7446 20.6046 87.2397 20.5529 87.7245 20.5529C89.0402 20.5529 90.0236 20.8905 90.671 21.5692C91.3185 22.2547 91.6405 23.2813 91.6405 24.6593ZM94.7186 29.8199V17.2629H96.2109V29.8199H94.7186ZM99.3341 29.8199V17.2629H100.826V29.8199H99.3341ZM111.678 24.9246V25.6584H104.815C104.877 26.6747 105.182 27.4567 105.736 27.9975C106.294 28.5281 107.069 28.7899 108.059 28.7899C108.631 28.7899 109.185 28.721 109.718 28.5866C110.265 28.4454 110.798 28.2352 111.325 27.9562V29.3618C110.791 29.5857 110.244 29.7579 109.676 29.882C109.119 29.9956 108.548 30.0542 107.969 30.0542C106.522 30.0542 105.376 29.6339 104.521 28.7933C103.676 27.9596 103.254 26.8262 103.254 25.3931C103.254 23.9083 103.655 22.7336 104.462 21.8723C105.265 20.9973 106.352 20.5598 107.713 20.5598C108.935 20.5598 109.898 20.9525 110.608 21.7414C111.321 22.52 111.678 23.581 111.678 24.9246ZM104.857 24.4974H110.185C110.172 23.6844 109.94 23.0333 109.489 22.5441C109.046 22.0618 108.458 21.8206 107.72 21.8206C106.889 21.8206 106.221 22.0549 105.715 22.5234C105.217 22.9919 104.933 23.6499 104.857 24.4974ZM119.33 20.639L119.34 22.1651C119.17 22.0687 118.987 21.9998 118.786 21.9516C118.585 21.9033 118.374 21.8792 118.142 21.8792C117.297 21.8792 116.646 22.1548 116.189 22.7026C115.739 23.2469 115.514 24.0289 115.514 25.0521V29.8165H114.022V20.7802H115.514V22.1858C115.829 21.6346 116.238 21.2281 116.743 20.9628C117.249 20.6907 117.858 20.5563 118.575 20.5563C118.679 20.5563 118.793 20.5667 118.921 20.5873C119.042 20.5942 119.181 20.6114 119.33 20.639ZM128.678 20.7802L124.69 30.6536C124.267 31.7319 123.855 32.4382 123.453 32.7689C123.052 33.0962 122.515 33.2581 121.847 33.2581H120.649V32.0179H121.528C121.937 32.0179 122.259 31.918 122.491 31.7216C122.716 31.5321 122.965 31.0739 123.239 30.347L123.516 29.6753L119.832 20.7802H121.418L124.26 27.8425L127.092 20.7802H128.678Z" fill="#002233"/>
<path d="M37.7753 13.5354V7.31717H41.7225V8.01995H38.6132V9.86303H41.5909V10.5761H38.6132V12.8257H41.8056V13.5389H37.7753V13.5354ZM44.8352 10.2179L42.8928 7.31717H43.8034L45.358 9.62877L46.9127 7.31717H47.8233L45.8185 10.3005L47.9549 13.5354H47.0442L45.2957 10.8896L43.516 13.5354H42.6054L44.8352 10.2179ZM50.9706 8.00961H49.9077V10.3419H50.9706C51.3654 10.3419 51.6735 10.242 51.8917 10.0456C52.1029 9.84236 52.2102 9.54953 52.2102 9.17058C52.2102 8.80541 52.1029 8.51947 51.8917 8.31622C51.6735 8.11296 51.3654 8.00961 50.9706 8.00961ZM49.0698 13.5354V7.31717H50.9706C51.6735 7.31717 52.2033 7.47219 52.5668 7.78569C52.92 8.10607 53.1 8.56426 53.1 9.17058C53.1 9.78723 52.9235 10.2523 52.5668 10.5658C52.2067 10.8793 51.6735 11.0343 50.9706 11.0343H49.9077V13.5389H49.0698V13.5354ZM54.2357 13.5354V7.31717H55.084V12.8223H58.131V13.5354H54.2357ZM61.2506 7.88904C60.6378 7.88904 60.1461 8.11641 59.7791 8.57115C59.4259 9.02589 59.2459 9.64599 59.2459 10.4349C59.2459 11.2135 59.4225 11.837 59.7791 12.2986C60.1461 12.7534 60.6378 12.9808 61.2506 12.9808C61.8635 12.9808 62.3482 12.7534 62.7014 12.2986C63.0615 11.837 63.245 11.2169 63.245 10.4349C63.245 9.64944 63.065 9.02589 62.7014 8.57115C62.3482 8.11296 61.8635 7.88904 61.2506 7.88904ZM61.2506 7.20692C62.1232 7.20692 62.8226 7.49975 63.3489 8.08196C63.8752 8.66417 64.1349 9.44963 64.1349 10.4315C64.1349 11.4167 63.8717 12.1987 63.3489 12.781C62.8226 13.3632 62.1232 13.656 61.2506 13.656C60.3712 13.656 59.6648 13.3632 59.1316 12.781C58.6053 12.1987 58.3457 11.4133 58.3457 10.4315C58.3457 9.44618 58.6088 8.66417 59.1316 8.08196C59.6648 7.49631 60.3712 7.20692 61.2506 7.20692ZM68.4214 10.614C68.6049 10.676 68.7815 10.807 68.9546 11.0102C69.1242 11.2066 69.2974 11.4822 69.4774 11.8336L70.3361 13.532H69.4255L68.6291 11.9335C68.4179 11.5201 68.2171 11.2445 68.0266 11.1101C67.8293 10.9758 67.5627 10.9069 67.2303 10.9069H66.3093V13.532H65.461V7.31717H67.3722C68.089 7.31717 68.6222 7.4653 68.9788 7.76502C69.3251 8.05785 69.5016 8.50569 69.5016 9.10857C69.5016 9.5013 69.4082 9.82858 69.2246 10.087C69.0342 10.3419 68.7711 10.521 68.4214 10.614ZM67.3688 8.00961H66.3058V10.2179H67.3688C67.7774 10.2179 68.0855 10.1214 68.2898 9.93193C68.501 9.74245 68.6083 9.46685 68.6083 9.10857C68.6083 8.7434 68.501 8.4678 68.2898 8.28521C68.0855 8.10263 67.7774 8.00961 67.3688 8.00961ZM71.4198 13.5354V7.31717H75.367V8.01995H72.2681V9.86303H75.2458V10.5761H72.2681V12.8257H75.4501V13.5389H71.4198V13.5354ZM79.56 13.5354V7.31717H80.4083V13.5354H79.56ZM81.2289 8.01995V7.31717H86.5161V8.01995H84.2967V13.5354H83.4484V8.01995H81.2289ZM92.5927 7.88904C91.9798 7.88904 91.4916 8.11641 91.1315 8.57115C90.7714 9.02589 90.5879 9.64599 90.5879 10.4349C90.5879 11.2135 90.768 11.837 91.1315 12.2986C91.4916 12.7534 91.9798 12.9808 92.5927 12.9808C93.2055 12.9808 93.6937 12.7534 94.0538 12.2986C94.407 11.837 94.587 11.2169 94.587 10.4349C94.587 9.64944 94.4105 9.02589 94.0538 8.57115C93.6937 8.11296 93.2055 7.88904 92.5927 7.88904ZM92.5927 7.20692C93.4721 7.20692 94.175 7.49975 94.7013 8.08196C95.2276 8.66417 95.4873 9.44963 95.4873 10.4315C95.4873 11.4167 95.2241 12.1987 94.7013 12.781C94.1785 13.3632 93.4721 13.656 92.5927 13.656C91.7132 13.656 91.0103 13.3632 90.484 12.781C89.9578 12.1987 89.6981 11.4133 89.6981 10.4315C89.6981 9.44618 89.9612 8.66417 90.484 8.08196C91.0103 7.49631 91.7132 7.20692 92.5927 7.20692ZM96.8065 13.5354V7.31717H97.9421L100.716 12.5191V7.31717H101.543V13.5354H100.397L97.6236 8.33344V13.5354H96.8065Z" fill="#002233"/>
<path d="M27.0763 7.33789H15.948C10.699 7.33789 8.77733 9.23953 8.77733 14.4622V25.5344C8.77733 30.7571 10.699 32.669 15.948 32.669H27.0763C32.315 32.669 34.2367 30.7571 34.2367 25.5344V14.4622C34.2367 9.23953 32.3254 7.33789 27.0763 7.33789Z" fill="#002233"/>
<path fill-rule="evenodd" clip-rule="evenodd" d="M19.6425 22.6233L19.3343 23.3054H18.6487L20.1099 19.9982H20.702L22.1631 23.3054H21.4568L21.159 22.6233H19.6425ZM19.8848 22.0239H20.9063L20.3938 20.8423L19.8848 22.0239ZM30.7292 19.9982H31.4044V23.3054H30.7292V19.9982ZM28.0804 22.706H29.9328V23.3054H27.4156V19.9982H29.8601V20.608H28.0804V21.2798H29.3096V21.8895H28.0804V22.706ZM26.1657 19.9982H26.872L25.7156 23.3158H25.1443L24.386 21.1385L23.6277 23.3158H23.0737L21.9069 19.9982H22.634L23.3715 22.2788L24.1194 19.9982H24.6734L25.4317 22.2788L26.1657 19.9982ZM17.6273 19.9982H18.3025V21.8723C18.3025 22.8197 17.7797 23.3674 16.8587 23.3674C15.9584 23.3674 15.4356 22.8266 15.4356 21.893V20.0017H16.1108V21.8758C16.1108 22.4338 16.3774 22.7301 16.869 22.7301C17.3607 22.7301 17.6273 22.4338 17.6273 21.8964V19.9982ZM13.8221 19.9982H14.4973V23.3158H13.8221V21.9619H12.2986V23.3158H11.6234V19.9982H12.2986V21.3314H13.8221V19.9982ZM21.5122 15.785C19.1681 15.785 17.2776 13.8937 17.2776 11.5717H17.8697C17.8697 13.5664 19.5074 15.1855 21.5122 15.1855C23.5169 15.1855 25.1547 13.5664 25.1547 11.5717H25.7468C25.7468 13.8902 23.8459 15.785 21.5122 15.785Z" fill="white"/>
</g>
<defs>
<clipPath id="clip0_15_171">
<rect width="134" height="40" fill="white"/>
</clipPath>
</defs>
</svg>
