<svg width="17" height="18" viewBox="0 0 17 18" fill="none" xmlns="http://www.w3.org/2000/svg">
<path d="M15.4782 0.774792L8.50088 7.7529L1.52352 0.774792C1.35571 0.621209 1.13511 0.538301 0.907693 0.543341C0.680274 0.54838 0.463568 0.640979 0.302718 0.801845C0.141869 0.962711 0.0492811 1.17944 0.0442421 1.40688C0.0392031 1.63433 0.122102 1.85495 0.275669 2.02278L7.24949 9.00089L0.273899 15.9772C0.188677 16.0584 0.120552 16.1559 0.0735265 16.2638C0.0265014 16.3718 0.00152562 16.488 6.77352e-05 16.6057C-0.00139015 16.7235 0.0206993 16.8403 0.0650371 16.9494C0.109375 17.0584 0.175066 17.1575 0.25825 17.2408C0.341434 17.3241 0.440432 17.39 0.549424 17.4345C0.658416 17.479 0.775203 17.5012 0.892919 17.4999C1.01064 17.4987 1.12691 17.4738 1.2349 17.427C1.34289 17.3801 1.44042 17.3121 1.52175 17.227L8.50088 10.2506L15.4782 17.2287C15.6461 17.3823 15.8667 17.4652 16.0941 17.4602C16.3215 17.4552 16.5382 17.3626 16.6991 17.2017C16.8599 17.0408 16.9525 16.8241 16.9575 16.5967C16.9626 16.3692 16.8797 16.1486 16.7261 15.9808L9.74874 9.00266L16.7261 2.02278C16.8113 1.94155 16.8794 1.84411 16.9265 1.73618C16.9735 1.62824 16.9985 1.51199 16.9999 1.39427C17.0014 1.27654 16.9793 1.15971 16.935 1.05064C16.8906 0.941576 16.8249 0.842474 16.7417 0.759163C16.6586 0.675852 16.5596 0.610013 16.4506 0.565516C16.3416 0.521019 16.2248 0.498762 16.1071 0.500053C15.9894 0.501344 15.8731 0.526158 15.7651 0.573035C15.6571 0.619912 15.5596 0.687906 15.4782 0.773022V0.774792Z" fill="#002233"/>
</svg>
