<svg width="72" height="77" viewBox="0 0 72 77" fill="none" xmlns="http://www.w3.org/2000/svg">
<g opacity="0.4">
<g opacity="0.1">
<path d="M6.25494 71.8488L3.19576 68.7896C2.85662 68.4528 2.85662 67.9037 3.19576 67.5646L67.1593 3.60103C67.4961 3.26189 68.0452 3.26189 68.3843 3.60103L71.4436 6.66021C71.7827 6.99704 71.7827 7.54613 71.4436 7.88527L7.48232 71.8488C7.14087 72.1879 6.59177 72.1879 6.25494 71.8488Z" fill="white"/>
</g>
<g opacity="0.1">
<path d="M50.2521 6.62965H1.12296C0.6454 6.62965 0.257812 6.24206 0.257812 5.7645V1.43644C0.257812 0.958877 0.6454 0.571289 1.12296 0.571289H50.2521C50.7296 0.571289 51.1172 0.958877 51.1172 1.43644V5.7645C51.1195 6.24206 50.7319 6.62965 50.2521 6.62965Z" fill="white"/>
</g>
<g opacity="0.1">
<path d="M71.1346 76.9053H66.8066C66.329 76.9053 65.9414 76.5177 65.9414 76.0401V26.911C65.9414 26.4335 66.329 26.0459 66.8066 26.0459H71.1346C71.6121 26.0459 71.9997 26.4335 71.9997 26.911V76.0378C72.002 76.5177 71.6144 76.9053 71.1346 76.9053Z" fill="white"/>
</g>
</g>
</svg>
