<svg width="91" height="35" viewBox="0 0 91 35" fill="none" xmlns="http://www.w3.org/2000/svg">
<path d="M22.554 18.0815C22.554 15.5721 21.588 13.426 19.6559 11.646C17.7239 9.86609 15.2595 8.9761 12.2629 8.9761C10.9843 8.9761 9.77041 9.16762 8.62414 9.54783C7.47505 9.92804 6.53156 10.4068 5.79367 10.9842C5.05578 11.5615 4.46997 12.1699 4.03625 12.8092C3.60252 13.4485 3.38566 14.0343 3.38566 14.5666C3.38566 15.1609 3.60252 15.6594 4.03625 16.0621C4.46997 16.4649 5.03606 16.6677 5.73734 16.6677C6.28372 16.6677 6.77096 16.5663 7.19905 16.3607C7.62432 16.1551 7.98764 15.9016 8.28336 15.5974C8.57908 15.2933 8.88888 14.9919 9.20713 14.6962C9.52538 14.4005 9.94502 14.1498 10.4632 13.9442C10.9786 13.7386 11.5813 13.6372 12.2657 13.6372C13.6655 13.6372 14.7948 14.0484 15.6538 14.868C16.5128 15.6904 16.9437 16.7606 16.9437 18.0843V18.7912H11.5813C8.61569 18.7912 6.27527 19.5263 4.56573 20.9936C2.85337 22.461 2 24.2972 2 26.5053C2 28.4233 2.75197 30.068 4.25874 31.4452C5.76551 32.8224 7.65812 33.5096 9.93939 33.5096C11.8095 33.5096 13.4599 33.0393 14.8906 32.0958C15.606 31.6255 16.1383 31.1608 16.4875 30.7045H16.9437C16.9635 30.7947 17.0029 30.882 17.0339 30.9721V31.8846C17.0339 32.5239 17.5324 33.0421 18.1492 33.0421H21.4866C22.1034 33.0421 22.6019 32.5239 22.6019 31.8846V20.5824C22.6019 20.4782 22.585 20.3768 22.5596 20.2811V18.0815H22.554ZM16.9409 26.2518C16.4396 26.8292 15.9129 27.3023 15.3666 27.6656C13.9668 28.5951 12.5445 29.0569 11.0997 29.0569C9.95911 29.0569 9.09166 28.8035 8.4974 28.2937C7.90314 27.7839 7.60742 27.1024 7.60742 26.2518C7.60742 25.2774 7.95102 24.4916 8.6354 23.8889C9.31979 23.289 10.2999 22.9876 11.5785 22.9876H16.9409V26.2518Z" fill="white"/>
<path d="M85.4947 11.8309C83.4556 9.95239 80.8927 9.01172 77.8059 9.01172C74.7163 9.01172 72.1534 9.95239 70.1172 11.8309C68.0781 13.7095 67.0586 15.9569 67.0586 18.5734V23.9583C67.0586 26.5747 68.0781 28.825 70.1172 30.712C72.1562 32.599 74.7192 33.5424 77.8059 33.5424C79.4169 33.5424 80.8786 33.3706 82.1882 33.0299C83.495 32.6863 84.5314 32.2554 85.2919 31.7287C86.0523 31.2048 86.6353 30.6528 87.038 30.0755C87.4408 29.4981 87.6436 28.9348 87.6436 28.3856C87.6436 27.8083 87.4351 27.3126 87.0155 26.9014C86.5959 26.4902 86.1002 26.2846 85.52 26.2846C85.0187 26.2846 84.5568 26.3719 84.14 26.5465C83.7203 26.7212 83.3373 26.938 82.9881 27.1971C82.6388 27.4562 82.2586 27.7097 81.8474 27.9604C81.4362 28.211 80.8899 28.4251 80.2055 28.5997C79.5211 28.7743 78.7212 28.8616 77.8087 28.8616C76.302 28.8616 75.0712 28.3969 74.1136 27.4703C73.1561 26.5437 72.6773 25.3721 72.6773 23.9555V23.2486H85.7735C86.579 23.2486 87.2464 23.0063 87.7703 22.5191C88.2941 22.0319 88.5561 21.4235 88.5561 20.6941V18.5734C88.5532 15.9569 87.5337 13.7095 85.4947 11.8309ZM72.6716 18.824C72.6716 17.3032 73.1476 16.064 74.0967 15.1064C75.0487 14.1488 76.2823 13.67 77.8059 13.67C79.3268 13.67 80.566 14.1488 81.5235 15.1064C82.4811 16.064 82.9599 17.3032 82.9599 18.824H72.6716Z" fill="white"/>
<path d="M60.4353 0H56.9739C56.3346 0 55.8164 0.518219 55.8164 1.15754V31.6308C55.8164 32.2701 56.3346 32.7884 56.9739 32.7884H60.4353C61.0746 32.7884 61.5928 32.2701 61.5928 31.6308V1.15754C61.5928 0.518219 61.0746 0 60.4353 0Z" fill="white"/>
<path d="M30.3891 9.32225C29.992 8.92514 29.3499 8.92514 28.9527 9.32225L26.6377 11.6373C26.2406 12.0344 26.2406 12.6766 26.6377 13.0737L33.0957 19.5316C33.4928 19.9288 34.1349 19.9288 34.532 19.5316L36.8471 17.2166C37.2442 16.8195 37.2442 16.1773 36.8471 15.7802L30.3891 9.32225Z" fill="white"/>
<path d="M43.6079 22.5395C43.2107 22.1424 42.5686 22.1424 42.1715 22.5395L39.8564 24.8546C39.4593 25.2517 39.4593 25.8938 39.8564 26.291L46.3229 32.7574C46.72 33.1545 47.3621 33.1545 47.7592 32.7574L50.0743 30.4423C50.4714 30.0452 50.4714 29.4031 50.0743 29.006L43.6079 22.5395Z" fill="white"/>
<path d="M47.7555 9.32225C47.3584 8.92514 46.7162 8.92514 46.3191 9.32225L39.833 15.8084C39.4359 16.2055 39.4359 16.8476 39.833 17.2447L42.1481 19.5598C42.5452 19.9569 43.1873 19.9569 43.5844 19.5598L50.0706 13.0737C50.4677 12.6766 50.4677 12.0344 50.0706 11.6373L47.7555 9.32225Z" fill="white"/>
<path d="M34.5207 22.5561C34.1236 22.159 33.4815 22.159 33.0844 22.5561L26.6377 29.0028C26.2406 29.4 26.2406 30.0421 26.6377 30.4392L28.9527 32.7543C29.3499 33.1514 29.992 33.1514 30.3891 32.7543L36.8386 26.3076C37.2357 25.9105 37.2357 25.2683 36.8386 24.8712L34.5207 22.5561Z" fill="white"/>
</svg>
