<svg width="20" height="22" viewBox="0 0 20 22" fill="none" xmlns="http://www.w3.org/2000/svg">
<path d="M19.2 5.63285H15.51C15.85 5.06425 16.05 4.38937 16.05 3.66667C16.05 1.64469 14.5025 0 12.6 0C11.565 0 10.6325 0.488889 10 1.25942C9.3675 0.488889 8.435 0 7.4 0C5.4975 0 3.95 1.64469 3.95 3.66667C3.95 4.38937 4.1475 5.06425 4.49 5.63285H0.8C0.3575 5.63285 0 6.0128 0 6.48309V11.7971C0 11.914 0.09 12.0097 0.2 12.0097H1.2V21.1498C1.2 21.62 1.5575 22 2 22H18C18.4425 22 18.8 21.62 18.8 21.1498V12.0097H19.8C19.91 12.0097 20 11.914 20 11.7971V6.48309C20 6.0128 19.6425 5.63285 19.2 5.63285ZM10.85 3.66667C10.85 2.64106 11.635 1.80676 12.6 1.80676C13.565 1.80676 14.35 2.64106 14.35 3.66667C14.35 4.69227 13.565 5.52657 12.6 5.52657H10.85V3.66667ZM7.4 1.80676C8.365 1.80676 9.15 2.64106 9.15 3.66667V5.52657H7.4C6.435 5.52657 5.65 4.69227 5.65 3.66667C5.65 2.64106 6.435 1.80676 7.4 1.80676ZM1.7 10.2029V7.43961H9.15V10.2029H1.7ZM2.9 12.0097H9.15V20.1932H2.9V12.0097ZM17.1 20.1932H10.85V12.0097H17.1V20.1932ZM18.3 10.2029H10.85V7.43961H18.3V10.2029Z" fill="#002233"/>
</svg>
