<svg width="134" height="40" viewBox="0 0 134 40" fill="none" xmlns="http://www.w3.org/2000/svg">
<g clip-path="url(#clip0_15_149)">
<path d="M129.037 40H4.96297C2.23337 40 0 37.75 0 35V5.00002C0 2.25 2.23332 0 4.96297 0H129.037C131.767 0 134 2.25 134 5.00002V35C134 37.75 131.767 40 129.037 40" fill="white"/>
<path d="M129.037 0H4.96297C2.23337 0 0 2.25 0 5.00002V35C0 37.75 2.23332 40 4.96297 40H129.037C131.767 40 134 37.75 134 35V5.00002C134 2.25 131.767 0 129.037 0H129.037ZM129.037 0.799975C131.336 0.799975 133.206 2.68441 133.206 5.00002V35C133.206 37.316 131.336 39.2004 129.037 39.2004H4.96297C2.66455 39.2004 0.794082 37.316 0.794082 35V5.00002C0.794082 2.68441 2.6645 0.80002 4.96297 0.80002H129.037" fill="#A6A6A6"/>
<path d="M47.0683 10.2431C47.0683 11.0809 46.822 11.748 46.3288 12.2457C45.7685 12.8375 45.0384 13.1337 44.1408 13.1337C43.2812 13.1337 42.5503 12.8337 41.9493 12.2328C41.3472 11.6324 41.0468 10.8879 41.0468 9.99965C41.0468 9.11096 41.3472 8.36689 41.9493 7.76601C42.5503 7.16567 43.2812 6.86523 44.1408 6.86523C44.5673 6.86523 44.9757 6.94928 45.3634 7.11687C45.7511 7.28486 46.0621 7.50786 46.2947 7.78714L45.7712 8.31485C45.3769 7.84026 44.8341 7.60314 44.1408 7.60314C43.5139 7.60314 42.9718 7.82507 42.5143 8.26919C42.0567 8.71376 41.828 9.29028 41.828 9.99965C41.828 10.7091 42.0567 11.2855 42.5143 11.7301C42.9718 12.1743 43.5139 12.3962 44.1408 12.3962C44.8058 12.3962 45.3603 12.1731 45.8042 11.7262C46.0924 11.4351 46.259 11.0305 46.3036 10.511H44.1407V9.79026H47.0267C47.0546 9.94697 47.0682 10.0974 47.0682 10.2431" fill="#002233"/>
<path d="M47.0697 10.2435H46.9704C46.9696 11.0622 46.7322 11.6981 46.2599 12.1754L46.2589 12.1762L46.2585 12.1771C45.716 12.7485 45.0188 13.0328 44.1421 13.0341C43.3055 13.0328 42.6052 12.7454 42.0204 12.1625C41.437 11.5786 41.1485 10.8656 41.1474 10C41.1485 9.13405 41.437 8.42153 42.0204 7.83795C42.6052 7.25473 43.3055 6.96683 44.1421 6.96562C44.5559 6.96562 44.9498 7.04697 45.3255 7.20903C45.7016 7.37235 45.9987 7.58637 46.22 7.85206L46.296 7.78753L46.2259 7.71683L45.7024 8.24491L45.7725 8.31524L45.849 8.25124C45.4364 7.75315 44.8572 7.50205 44.1422 7.50354C43.492 7.50273 42.9201 7.73679 42.447 8.19776C41.9693 8.66022 41.7293 9.26919 41.7301 10C41.7293 10.7309 41.9693 11.3399 42.447 11.8024C42.9201 12.2633 43.492 12.4974 44.1421 12.4966C44.8292 12.4978 45.4147 12.2629 45.8757 11.7973C46.1836 11.4863 46.3581 11.0556 46.4039 10.5199L46.4131 10.4114H44.2414V9.89065H47.0281V9.79066L46.9303 9.80823C46.9575 9.95987 46.9703 10.104 46.9703 10.2435H47.1688C47.1688 10.0915 47.1549 9.93524 47.1258 9.77277L47.1111 9.69066H44.0429V10.6114H46.3049V10.5114L46.2061 10.5028C46.1623 11.0059 46.0033 11.3849 45.7354 11.656C45.3089 12.0841 44.7854 12.2953 44.1422 12.2966C43.5385 12.2957 43.0263 12.0864 42.5847 11.6586C42.1473 11.2325 41.9298 10.6883 41.9287 10C41.9298 9.31175 42.1473 8.76763 42.5847 8.34144C43.0263 7.91373 43.5385 7.70434 44.1422 7.70353C44.8134 7.70515 45.3202 7.92856 45.6967 8.37973L45.7665 8.46333L46.3663 7.85827L46.4306 7.79346L46.372 7.72344C46.1282 7.43055 45.8032 7.19806 45.4039 7.02548C45.0038 6.85237 44.5815 6.76563 44.1422 6.76563C43.2597 6.76486 42.4982 7.07735 41.8805 7.69576C41.2606 8.31295 40.9481 9.08875 40.9489 10C40.9481 10.9109 41.2606 11.6872 41.881 12.3047C42.4982 12.9227 43.2597 13.2349 44.1422 13.2341C45.0611 13.2349 45.8234 12.9274 46.4019 12.3153L46.3301 12.2461L46.4003 12.3169C46.9145 11.7993 47.1696 11.1001 47.1689 10.2435H47.0696H47.0697ZM51.6448 7.73715H48.9326V9.63956H51.3785V10.3605H48.9326V12.2629H51.6448V13H48.168V7.00005H51.6448V7.73715Z" fill="#002233"/>
<path d="M51.6419 7.73749V7.63749H48.8305V9.7399H51.2763V10.2606L48.8304 10.2609V12.3633H51.5426V12.9004H48.2644V7.10038H51.5426V7.73749H51.6419V7.63749V7.73749H51.7411V6.90039H48.0659V13.1004H51.7411V12.1633H49.029V10.4609H51.4748V9.5399H49.029V7.83748H51.7411V7.73749H51.6419ZM54.869 13.0004H54.1032V7.73744H52.4398V7.00034H56.5324V7.73744H54.869V13.0003" fill="#002233"/>
<path d="M54.8668 13.0004V12.9004H54.2003V7.63749H52.5369V7.10043H56.4309V7.63749H54.7676V13.0004H54.8668V12.9004V13.0004H54.9661V7.83748H56.6295V6.90039H52.3384V7.83744H54.0018V13.1003H54.9661V13.0003H54.8668V13.0004ZM59.4913 13.0004V7.00034H60.2563V13.0003H59.4913" fill="#002233"/>
<path d="M59.492 13.0004H59.5913V7.10038H60.1577V12.9004H59.492V13.0004H59.5913H59.492V13.1004H60.3562V6.90039H59.3928V13.1004H59.492V13.0004V13.0004ZM63.6515 13.0004H62.8858V7.73744H61.2225V7.00034H65.315V7.73744H63.6515V13.0003" fill="#002233"/>
<path d="M63.6544 12.9997V12.8996H62.9878V7.63676H61.3246V7.0997H65.2185V7.63676H63.5551V12.9996H63.6544V12.8996V12.9996H63.7536V7.83675H65.417V6.89966H61.126V7.83671H62.7893V13.0996H63.7536V12.9996H63.6544V12.9997ZM69.2633 11.722C69.7041 12.1715 70.2435 12.3961 70.8813 12.3961C71.5192 12.3961 72.0588 12.1715 72.499 11.722C72.9402 11.2724 73.1612 10.6976 73.1612 9.99965C73.1612 9.30169 72.9402 8.72697 72.499 8.27737C72.0588 7.82776 71.5192 7.60314 70.8813 7.60314C70.2435 7.60314 69.7041 7.82776 69.2633 8.27737C68.8232 8.72697 68.6023 9.30165 68.6023 9.99965C68.6023 10.6976 68.8232 11.2724 69.2633 11.722ZM73.065 12.2242C72.4795 12.8308 71.7514 13.1337 70.8813 13.1337C70.0105 13.1337 69.2826 12.8308 68.6984 12.2242C68.1125 11.6183 67.821 10.8767 67.821 9.99965C67.821 9.12264 68.1125 8.38082 68.6984 7.77505C69.2827 7.16832 70.0105 6.86523 70.8813 6.86523C71.7468 6.86523 72.4729 7.16994 73.0612 7.77896C73.6486 8.38792 73.9425 9.12812 73.9425 9.99965C73.9425 10.8767 73.6493 11.6183 73.065 12.2242Z" fill="#002233"/>
<path d="M69.2643 11.7224L69.1937 11.7926C69.6508 12.2602 70.2212 12.4977 70.8823 12.4965C71.5429 12.4977 72.1141 12.2602 72.5705 11.7926C73.0307 11.3246 73.2621 10.7192 73.2614 10C73.2621 9.28096 73.0307 8.67545 72.5705 8.20742C72.1141 7.73984 71.5429 7.50237 70.8823 7.50353C70.2212 7.50237 69.6508 7.73984 69.1937 8.20742C68.7346 8.67545 68.5027 9.28096 68.5039 10C68.5027 10.7191 68.7346 11.3246 69.1937 11.7926L69.2643 11.7224L69.3349 11.652C68.9138 11.2204 68.7032 10.6774 68.7024 10C68.7032 9.32275 68.9138 8.77976 69.3348 8.34805C69.7597 7.91646 70.2673 7.70474 70.8823 7.70357C71.4968 7.70474 72.0055 7.91646 72.4293 8.34805C72.8512 8.77976 73.0617 9.32275 73.0625 10C73.0617 10.6773 72.8512 11.2204 72.4293 11.652C72.0055 12.0837 71.4968 12.2953 70.8823 12.2965C70.2673 12.2953 69.7597 12.0837 69.3348 11.652L69.2643 11.7224ZM73.066 12.2246L72.995 12.1552C72.4259 12.7426 71.7298 13.0329 70.8823 13.034C70.0343 13.0328 69.3383 12.7426 68.7702 12.1552L68.7675 12.152L68.7702 12.1552C68.2023 11.5656 67.922 10.8547 67.9212 10C67.922 9.14532 68.2023 8.43442 68.7702 7.84496C69.3383 7.25743 70.0343 6.96683 70.8823 6.96567C71.7244 6.96683 72.4188 7.25864 72.9911 7.84923C73.5611 8.44144 73.843 9.15121 73.8442 10C73.843 10.8547 73.5619 11.5656 72.995 12.1552L73.066 12.2246L73.1374 12.2941C73.739 11.6715 74.0434 10.8992 74.0427 10C74.0434 9.10595 73.7379 8.33524 73.1334 7.70987C72.5286 7.08202 71.7709 6.76455 70.8823 6.76563C69.9889 6.76455 69.229 7.08054 68.628 7.70596V7.70551C68.0251 8.32854 67.7218 9.10083 67.7226 10C67.7218 10.8992 68.0251 11.6715 68.628 12.2945L68.6307 12.2973L68.628 12.2941C69.229 12.9195 69.9889 13.2348 70.8823 13.234C71.7752 13.2348 72.5351 12.9195 73.1374 12.2941L73.066 12.2246ZM75.0174 13.0001V7H75.9488L78.8432 11.6676H78.8762L78.8432 10.5113V7H79.609V13H78.8102L75.782 8.10621H75.7491L75.782 9.26289V13H75.0174" fill="#002233"/>
<path d="M75.0155 13.0004H75.1148V7.10038H75.8918L78.7862 11.768H78.9761L78.9405 10.5102V7.10043H79.5078V12.9004H78.8634L75.8352 8.0066H75.6452L75.6808 9.2649V12.9004H75.0155V13.0004H75.1148H75.0155V13.1004H75.8793V9.26171L75.8464 8.1039L75.7471 8.1066V8.2066H75.7801V8.1066L75.6959 8.15977L78.7532 13.1004H79.7063V6.90039H78.742V10.5129L78.7749 11.6707L78.8742 11.668V11.568H78.8412V11.668L78.9254 11.6149L76.0018 6.90039H74.9163V13.1004H75.0156V13.0004L75.0155 13.0004ZM106.144 30.0004H107.996V17.4992H106.144L106.144 30.0004ZM122.826 22.0024L120.703 27.4223H120.64L118.436 22.0024H116.441L119.745 29.5777L117.861 33.7914H119.794L124.886 22.0024L122.826 22.0024ZM112.323 28.5805C111.715 28.5805 110.87 28.275 110.87 27.5188C110.87 26.5539 111.924 26.184 112.833 26.184C113.648 26.184 114.03 26.3609 114.525 26.6024C114.381 27.7602 113.392 28.5805 112.323 28.5805ZM112.546 21.7289C111.205 21.7289 109.816 22.3242 109.242 23.643L110.885 24.3344C111.237 23.643 111.891 23.4176 112.578 23.4176C113.536 23.4176 114.509 23.9969 114.525 25.0262V25.1547C114.19 24.9617 113.472 24.6723 112.594 24.6723C110.822 24.6723 109.017 25.6531 109.017 27.4867C109.017 29.1594 110.471 30.2371 112.098 30.2371C113.344 30.2371 114.03 29.6742 114.462 29.0149H114.525V29.9797H116.313V25.1867C116.313 22.9676 114.669 21.7289 112.546 21.7289ZM101.099 23.5242H98.4651V19.2391H101.099C102.484 19.2391 103.27 20.3941 103.27 21.3816C103.27 22.3504 102.484 23.5242 101.099 23.5242ZM101.052 17.4992H96.6139V30.0004H98.4651V25.2641H101.052C103.105 25.2641 105.122 23.7668 105.122 21.3816C105.122 18.9965 103.105 17.4992 101.052 17.4992ZM76.8514 28.5828C75.5718 28.5828 74.5006 27.5035 74.5006 26.0211C74.5006 24.5231 75.5718 23.4274 76.8514 23.4274C78.1147 23.4274 79.1061 24.5231 79.1061 26.0211C79.1061 27.5035 78.1147 28.5828 76.8514 28.5828H76.8514ZM78.9781 22.7024H78.9141C78.4985 22.2031 77.6986 21.752 76.6913 21.752C74.5804 21.752 72.6457 23.6207 72.6457 26.0211C72.6457 28.4055 74.5804 30.2582 76.6913 30.2582C77.6986 30.2582 78.4985 29.807 78.9141 29.2918H78.9781V29.9039C78.9781 31.5313 78.1147 32.4012 76.7235 32.4012C75.5881 32.4012 74.8845 31.5793 74.5963 30.8867L72.9815 31.5633C73.4452 32.691 74.6766 34.0766 76.7235 34.0766C78.8982 34.0766 80.7372 32.7875 80.7372 29.6461V22.0098H78.9781V22.7024ZM82.0164 30.0004H83.8713V17.4988H82.0164V30.0004ZM86.6059 25.8762C86.5579 24.2328 87.8692 23.3953 88.8125 23.3953C89.5486 23.3953 90.172 23.7656 90.3794 24.2977L86.6059 25.8762ZM92.3627 24.4586C92.0113 23.5078 90.9393 21.752 88.7485 21.752C86.5738 21.752 84.7669 23.4758 84.7669 26.0051C84.7669 28.3895 86.5579 30.2582 88.9564 30.2582C90.8916 30.2582 92.0113 29.066 92.4748 28.3734L91.0355 27.4066C90.5561 28.1156 89.9001 28.5828 88.9564 28.5828C88.013 28.5828 87.3415 28.1477 86.9095 27.2941L92.5542 24.9418L92.3627 24.4586ZM47.39 23.057V24.8613H51.6756C51.5476 25.8762 51.2118 26.6172 50.7 27.1328C50.0766 27.7613 49.1011 28.4539 47.39 28.4539C44.7514 28.4539 42.6887 26.3113 42.6887 23.6531C42.6887 20.9949 44.7514 18.852 47.39 18.852C48.8133 18.852 49.8525 19.416 50.6201 20.141L51.8834 18.8684C50.8121 17.8371 49.3887 17.0477 47.39 17.0477C43.7759 17.0477 40.7377 20.0121 40.7377 23.6531C40.7377 27.2941 43.7759 30.2582 47.39 30.2582C49.3411 30.2582 50.8121 29.6141 51.9633 28.4055C53.1467 27.2133 53.5146 25.5379 53.5146 24.1848C53.5146 23.7656 53.4828 23.3793 53.4185 23.057H47.39ZM58.3869 28.5828C57.1073 28.5828 56.0039 27.5195 56.0039 26.0051C56.0039 24.4746 57.1073 23.4274 58.3869 23.4274C59.6659 23.4274 60.7694 24.4746 60.7694 26.0051C60.7694 27.5195 59.6659 28.5828 58.3869 28.5828ZM58.3869 21.752C56.0519 21.752 54.1489 23.5402 54.1489 26.0051C54.1489 28.4539 56.0519 30.2582 58.3869 30.2582C60.7214 30.2582 62.6243 28.4539 62.6243 26.0051C62.6243 23.5402 60.7214 21.752 58.3869 21.752ZM67.6311 28.5828C66.3521 28.5828 65.2485 27.5195 65.2485 26.0051C65.2485 24.4746 66.3521 23.4274 67.6311 23.4274C68.9103 23.4274 70.0137 24.4746 70.0137 26.0051C70.0137 27.5195 68.9103 28.5828 67.6311 28.5828H67.6311ZM67.6311 21.752C65.2962 21.752 63.3936 23.5402 63.3936 26.0051C63.3936 28.4539 65.2962 30.2582 67.6311 30.2582C69.9657 30.2582 71.8687 28.4539 71.8687 26.0051C71.8687 23.5402 69.9657 21.752 67.6311 21.752H67.6311Z" fill="#002233"/>
<path d="M10.4307 7.61173C10.0976 7.91451 9.8988 8.41952 9.8988 9.08988V8.93834V31.0595V30.9137C9.8988 31.5328 10.0693 32.0109 10.3582 32.3188L10.4319 32.3899V32.3902C10.6657 32.6028 10.9654 32.7156 11.309 32.7153C11.6447 32.7153 12.0224 32.6074 12.421 32.3798L26.8287 24.1325L31.7776 21.2993C32.4061 20.9395 32.759 20.4755 32.818 20.0028V20.0008C32.759 19.527 32.4061 19.0633 31.7777 18.7036L26.8283 15.8707L12.421 7.62341C12.0216 7.39533 11.6436 7.28711 11.307 7.28711C10.9639 7.28711 10.6645 7.3996 10.4308 7.61173H10.4307Z" fill="#00C1FF"/>
<path d="M10.4359 32.3896L10.3621 32.3185C10.0733 32.0107 9.90271 31.5326 9.90271 30.9135V31.0592V8.94355V9.08962C9.90271 8.41926 10.1015 7.91424 10.4346 7.61146L22.7327 20.001L10.4359 32.3896Z" fill="#002233"/>
<path d="M26.828 24.1309L22.7281 19.9997L26.8277 15.8692L31.777 18.702C32.4055 19.0618 32.7584 19.5254 32.8173 19.9993V20.0012C32.7584 20.4739 32.4055 20.938 31.777 21.2976L26.8281 24.1308" fill="#002233"/>
<path d="M11.3118 32.7148C10.9683 32.7152 10.6685 32.6023 10.4348 32.3898V32.3895L22.7317 20.0008L26.8316 24.132L12.4238 32.3793C12.0252 32.607 11.6475 32.7148 11.3118 32.7148Z" fill="#002233"/>
<path d="M22.729 20.001L10.4309 7.61152C10.6647 7.39939 10.964 7.2869 11.3072 7.2869C11.6437 7.2869 12.0218 7.39507 12.4212 7.6232L26.8285 15.8705L22.7289 20.001" fill="#002233"/>
<path d="M11.3116 32.8613C10.9681 32.8613 10.6679 32.7484 10.4342 32.5359L10.4338 32.5363C10.4328 32.5353 10.4318 32.5344 10.4307 32.5336L10.3667 32.4707C10.3647 32.4687 10.3628 32.4664 10.3605 32.4641L10.4342 32.3898C10.668 32.6023 10.9677 32.7152 11.3113 32.7148C11.647 32.7148 12.0246 32.607 12.4233 32.3793L26.8309 24.132L26.9233 24.2251L26.8298 24.2785L12.4232 32.5254C12.0599 32.7328 11.7144 32.841 11.4023 32.859C11.3721 32.8605 11.3419 32.8613 11.3116 32.8613" fill="#002233"/>
<path d="M10.3574 32.4639C10.0691 32.156 9.8988 31.6783 9.8988 31.0588V30.9131C9.8988 31.5322 10.0691 32.0103 10.3574 32.3182L10.431 32.3893L10.3574 32.4639Z" fill="#002233"/>
<path d="M26.9208 24.2255L26.8285 24.1325L31.7774 21.2993C32.406 20.9397 32.7588 20.4755 32.8178 20.0028C32.8178 20.1763 32.7794 20.3497 32.7031 20.5185C32.5491 20.8588 32.2405 21.1802 31.7775 21.4454L26.9208 24.2256" fill="url(#paint0_linear_15_149)"/>
<path d="M32.8182 20.001C32.7592 19.5271 32.4064 19.0635 31.7779 18.7037L26.8285 15.8708L26.9208 15.7778H26.9212L31.7779 18.558C32.4708 18.9548 32.8178 19.4778 32.8182 20.001Z" fill="url(#paint1_linear_15_149)"/>
<path d="M9.8988 9.08887V8.93606C9.8988 8.88096 9.90027 8.82707 9.90308 8.77476V8.77238C9.90308 8.77166 9.90308 8.7709 9.90335 8.77009V8.7642C9.93319 8.23095 10.0973 7.815 10.3574 7.53726L10.4299 7.61065C10.0973 7.91347 9.8988 8.4185 9.8988 9.08887Z" fill="url(#paint2_linear_15_149)"/>
<path d="M26.8306 15.8701L12.4233 7.62274C12.0238 7.39466 11.6459 7.28649 11.3093 7.28649C10.9661 7.28649 10.6668 7.39898 10.433 7.6111L10.3605 7.53767C10.3831 7.5135 10.4067 7.49019 10.4311 7.46778C10.4318 7.46697 10.433 7.46616 10.4338 7.4654C10.6657 7.25489 10.9619 7.1424 11.302 7.14038H11.3093C11.6459 7.14038 12.0238 7.2486 12.4233 7.47677L26.9233 15.7768L26.9229 15.7771L26.8306 15.8701Z" fill="url(#paint3_linear_15_149)"/>
</g>
<defs>
<linearGradient id="paint0_linear_15_149" x1="33.5836" y1="20.0019" x2="9.56573" y2="20.0019" gradientUnits="userSpaceOnUse">
<stop stop-color="#E0C500"/>
<stop offset="0.4087" stop-color="#E0A600"/>
<stop offset="0.7754" stop-color="#E09100"/>
<stop offset="1" stop-color="#E08900"/>
</linearGradient>
<linearGradient id="paint1_linear_15_149" x1="33.584" y1="20.002" x2="9.56614" y2="20.002" gradientUnits="userSpaceOnUse">
<stop stop-color="#FFE840"/>
<stop offset="0.4087" stop-color="#FFCE40"/>
<stop offset="0.7754" stop-color="#FFBC40"/>
<stop offset="1" stop-color="#FFB540"/>
</linearGradient>
<linearGradient id="paint2_linear_15_149" x1="11.5243" y1="8.72605" x2="2.48183" y2="17.3264" gradientUnits="userSpaceOnUse">
<stop stop-color="#40B8FF"/>
<stop offset="0.00657" stop-color="#40B9FF"/>
<stop offset="0.2601" stop-color="#40CEFF"/>
<stop offset="0.5122" stop-color="#40DDFF"/>
<stop offset="0.7604" stop-color="#40E7FF"/>
<stop offset="1" stop-color="#40EAFF"/>
</linearGradient>
<linearGradient id="paint3_linear_15_149" x1="7.24551" y1="8.39444" x2="13.7055" y2="14.8274" gradientUnits="userSpaceOnUse">
<stop stop-color="#65B895"/>
<stop offset="0.0685" stop-color="#62BD95"/>
<stop offset="0.4762" stop-color="#50DB97"/>
<stop offset="0.8009" stop-color="#44ED98"/>
<stop offset="1" stop-color="#40F498"/>
</linearGradient>
<clipPath id="clip0_15_149">
<rect width="134" height="40" fill="white"/>
</clipPath>
</defs>
</svg>
