<svg width="26" height="27" viewBox="0 0 26 27" fill="none" xmlns="http://www.w3.org/2000/svg">
<path fill-rule="evenodd" clip-rule="evenodd" d="M6.18329 4.63684C5.92535 4.76581 5.55785 5.05313 4.99165 5.61933C3.92787 6.68312 2.52869 11.1997 8.82182 17.4928C15.1149 23.786 19.6315 22.3868 20.6953 21.323C21.2615 20.7568 21.5488 20.3893 21.6778 20.1314C21.7792 19.9286 21.7577 19.854 21.725 19.7747C21.6593 19.6152 21.4871 19.3858 21.0831 18.9818C20.9105 18.8092 20.7141 18.622 20.4871 18.4057C20.461 18.3808 20.4345 18.3555 20.4075 18.3298C20.1494 18.0837 19.8599 17.8065 19.5463 17.4928C19.2365 17.1831 18.6904 16.7998 18.1044 16.6533C17.5664 16.5188 17.0131 16.5788 16.4821 17.1098C16.0318 17.5602 15.5411 17.883 14.9873 18.005C14.4197 18.1301 13.8889 18.0219 13.4096 17.7982C12.9461 17.5819 12.5065 17.2469 12.0851 16.8758C11.6647 16.5056 11.2186 16.0595 10.7499 15.5907L10.7239 15.5648C10.2552 15.096 9.80908 14.6499 9.43889 14.2296C9.06776 13.8081 8.73274 13.3686 8.51644 12.9051C8.29274 12.4257 8.18458 11.8949 8.30963 11.3274C8.43166 10.7735 8.75448 10.2829 9.20483 9.83251C9.73581 9.30153 9.7959 8.74827 9.66139 8.21025C9.51488 7.62422 9.13159 7.07816 8.82181 6.76838C8.50818 6.45475 8.23092 6.16522 7.98482 5.90712C7.95913 5.88018 7.93385 5.85366 7.90896 5.82754C7.69264 5.60056 7.50544 5.40413 7.33284 5.23153C6.92884 4.82753 6.69947 4.6553 6.53992 4.58961C6.46067 4.55697 6.38601 4.53548 6.18329 4.63684ZM9.16089 4.78575C9.40553 5.04232 9.67167 5.32014 9.97086 5.61933C10.4271 6.07559 11.0014 6.87009 11.2379 7.81613C11.4864 8.81017 11.355 9.98048 10.3539 10.9816C10.0382 11.2972 9.93012 11.5247 9.89656 11.6771C9.86601 11.8157 9.87754 11.9791 9.98898 12.2179C10.1078 12.4726 10.3234 12.7751 10.6584 13.1556C10.991 13.5333 11.4019 13.9446 11.8859 14.4287C12.37 14.9128 12.7813 15.3236 13.159 15.6562C13.5395 15.9913 13.8421 16.2068 14.0967 16.3257C14.3356 16.4371 14.4989 16.4486 14.6376 16.4181C14.7899 16.3845 15.0174 16.2765 15.3331 15.9608C16.3342 14.9597 17.5045 14.8283 18.4985 15.0768C19.4446 15.3133 20.2391 15.8875 20.6953 16.3438C20.9945 16.643 21.2723 16.9091 21.5289 17.1538C21.5559 17.1795 21.5828 17.2051 21.6095 17.2306C21.8333 17.4439 22.0448 17.6454 22.2322 17.8328C22.6325 18.2331 23.0252 18.6644 23.2276 19.156C23.4631 19.7279 23.4129 20.2948 23.1312 20.8581C22.8772 21.3662 22.4272 21.8892 21.8444 22.472C19.844 24.4724 14.249 25.2181 7.67277 18.6419C1.09655 12.0657 1.84226 6.47063 3.8426 4.47029C4.42545 3.88743 4.94847 3.43745 5.45657 3.1834C6.01988 2.90174 6.58677 2.85153 7.15864 3.08701C7.65022 3.28942 8.08155 3.68214 8.48189 4.08248C8.66927 4.26986 8.87082 4.48136 9.08414 4.70522C9.10956 4.73189 9.13514 4.75874 9.16089 4.78575Z" fill="white"/>
</svg>
