<svg width="369" height="370" viewBox="0 0 369 370" fill="none" xmlns="http://www.w3.org/2000/svg">
<g opacity="0.1">
<path d="M65.1672 4.5862C58.7763 -1.52808 48.4419 -1.52808 42.051 4.5862L4.7932 40.2311C-1.59773 46.3454 -1.59773 56.2323 4.7932 62.3466L108.725 161.779C115.116 167.894 125.45 167.894 131.841 161.779L169.099 126.135C175.49 120.02 175.49 110.133 169.099 104.019L65.1672 4.5862Z" fill="#82A4FF"/>
<path d="M260.139 208.091C253.748 201.977 243.414 201.977 237.023 208.091L199.765 243.736C193.374 249.85 193.374 259.737 199.765 265.852L303.833 365.414C310.224 371.529 320.558 371.529 326.949 365.414L364.207 329.769C370.598 323.655 370.598 313.768 364.207 307.654L260.139 208.091Z" fill="#82A4FF"/>
<path d="M326.889 4.58571C320.498 -1.52857 310.164 -1.52857 303.773 4.58571L199.387 104.452C192.997 110.566 192.997 120.453 199.387 126.568L236.645 162.213C243.036 168.327 253.37 168.327 259.761 162.213L364.147 62.3461C370.538 56.2319 370.538 46.3449 364.147 40.2306L326.889 4.58571Z" fill="#82A4FF"/>
<path d="M131.66 208.347C125.269 202.233 114.935 202.233 108.544 208.347L4.79339 307.606C-1.59755 313.721 -1.59755 323.608 4.79339 329.722L42.0512 365.367C48.4421 371.481 58.7764 371.481 65.1674 365.367L168.963 266.107C175.354 259.993 175.354 250.106 168.963 243.992L131.66 208.347Z" fill="#82A4FF"/>
</g>
</svg>
