<svg width="36" height="36" viewBox="0 0 36 36" fill="none" xmlns="http://www.w3.org/2000/svg">
<rect width="36" height="36" rx="18" fill="#F3F3F5"/>
<path fill-rule="evenodd" clip-rule="evenodd" d="M28.4954 12.8126C28.6475 12.3446 28.4954 12 27.7666 12H25.3604C24.7481 12 24.4658 12.2974 24.3127 12.6257C24.3127 12.6257 23.089 15.3651 21.3556 17.1446C20.7946 17.6606 20.5398 17.8243 20.2336 17.8243C20.0806 17.8243 19.8505 17.6606 19.8505 17.1917V12.8126C19.8505 12.2503 19.6818 12 19.1722 12H15.3882C15.006 12 14.7759 12.2606 14.7759 12.5083C14.7759 13.0406 15.6431 13.164 15.732 14.6623V17.9177C15.732 18.6317 15.5917 18.7611 15.2856 18.7611C14.4698 18.7611 12.4852 16.0089 11.3073 12.8597C11.0791 12.2469 10.8481 12 10.233 12H7.82498C7.1375 12 7 12.2974 7 12.6257C7 13.2103 7.81582 16.1143 10.7995 19.9551C12.7886 22.578 15.589 24 18.14 24C19.6699 24 19.8587 23.6846 19.8587 23.1403V21.1577C19.8587 20.526 20.0036 20.4 20.4885 20.4C20.846 20.4 21.4574 20.5646 22.8855 21.8289C24.5171 23.328 24.7857 24 25.7042 24H28.1104C28.7979 24 29.1425 23.6846 28.9445 23.0606C28.7264 22.44 27.9472 21.5391 26.9142 20.4703C26.3532 19.8617 25.5117 19.206 25.256 18.8777C24.8994 18.4569 25.0011 18.2691 25.256 17.8946C25.256 17.8946 28.1892 14.1009 28.4945 12.8126H28.4954Z" fill="#002233"/>
</svg>
