<svg width="25" height="25" viewBox="0 0 25 25" fill="none" xmlns="http://www.w3.org/2000/svg">
<path d="M19.8891 15.9382C19.1988 15.9414 18.5181 16.0885 17.8972 16.3686C17.2763 16.6486 16.7311 17.0545 16.3018 17.5564L9.56057 13.6436C9.80625 12.9074 9.80625 12.1195 9.56057 11.3833L16.3018 7.47056C16.986 8.25715 17.948 8.79351 19.0173 8.98464C20.0867 9.17576 21.1944 9.00931 22.1443 8.51478C23.0941 8.02024 23.8248 7.22954 24.2069 6.28273C24.5889 5.33593 24.5977 4.29414 24.2316 3.34191C23.8655 2.38968 23.1483 1.58847 22.2069 1.08022C21.2654 0.571966 20.1607 0.389471 19.0882 0.565061C18.0157 0.740652 17.0448 1.263 16.3475 2.03956C15.6501 2.81613 15.2713 3.79679 15.2781 4.80784C15.2825 5.1907 15.3446 5.57112 15.4626 5.93799L8.72138 9.85074C8.12624 9.15516 7.31277 8.64871 6.39373 8.40157C5.47469 8.15443 4.4956 8.17885 3.59218 8.47145C2.68876 8.76404 1.90576 9.31032 1.35171 10.0346C0.797655 10.7588 0.5 11.6251 0.5 12.5135C0.5 13.4018 0.797655 14.2681 1.35171 14.9924C1.90576 15.7166 2.68876 16.2629 3.59218 16.5555C4.4956 16.8481 5.47469 16.8725 6.39373 16.6254C7.31277 16.3782 8.12624 15.8718 8.72138 15.1762L15.4626 19.0889C15.3446 19.4558 15.2825 19.8362 15.2781 20.2191C15.2781 21.0658 15.5486 21.8934 16.0552 22.5974C16.5619 23.3014 17.282 23.8501 18.1245 24.1741C18.9671 24.4981 19.8942 24.5829 20.7886 24.4177C21.683 24.2526 22.5046 23.8448 23.1495 23.2462C23.7943 22.6475 24.2335 21.8847 24.4114 21.0543C24.5893 20.2238 24.498 19.3631 24.149 18.5809C23.8 17.7986 23.209 17.13 22.4508 16.6597C21.6925 16.1893 20.801 15.9382 19.8891 15.9382ZM19.8891 2.23929C20.4362 2.23929 20.9711 2.38994 21.4261 2.67217C21.881 2.95441 22.2356 3.35556 22.445 3.8249C22.6544 4.29424 22.7092 4.81068 22.6025 5.30893C22.4957 5.80718 22.2322 6.26485 21.8453 6.62407C21.4584 6.98329 20.9655 7.22792 20.4288 7.32702C19.8921 7.42613 19.3359 7.37527 18.8303 7.18086C18.3248 6.98645 17.8927 6.65724 17.5887 6.23484C17.2848 5.81245 17.1225 5.31585 17.1225 4.80784C17.1225 4.12662 17.414 3.4733 17.9328 2.9916C18.4516 2.50991 19.1553 2.23929 19.8891 2.23929ZM5.13407 15.082C4.5869 15.082 4.05201 14.9314 3.59705 14.6491C3.14209 14.3669 2.78749 13.9657 2.5781 13.4964C2.36871 13.0271 2.31392 12.5106 2.42067 12.0124C2.52742 11.5141 2.7909 11.0564 3.17782 10.6972C3.56473 10.338 4.05768 10.0934 4.59434 9.99428C5.131 9.89517 5.68726 9.94603 6.19279 10.1404C6.69831 10.3348 7.13039 10.6641 7.43438 11.0865C7.73837 11.5089 7.90063 12.0055 7.90063 12.5135C7.90063 13.1947 7.60915 13.848 7.09032 14.3297C6.57149 14.8114 5.86781 15.082 5.13407 15.082ZM19.8891 22.7876C19.3419 22.7876 18.807 22.637 18.352 22.3548C17.8971 22.0725 17.5425 21.6714 17.3331 21.202C17.1237 20.7327 17.0689 20.2162 17.1757 19.718C17.2824 19.2197 17.5459 18.7621 17.9328 18.4029C18.3197 18.0436 18.8127 17.799 19.3493 17.6999C19.886 17.6008 20.4423 17.6517 20.9478 17.8461C21.4533 18.0405 21.8854 18.3697 22.1894 18.7921C22.4934 19.2145 22.6556 19.7111 22.6556 20.2191C22.6556 20.9003 22.3641 21.5536 21.8453 22.0353C21.3265 22.517 20.6228 22.7876 19.8891 22.7876Z" fill="#5A81EA"/>
</svg>
