<svg width="249" height="39" viewBox="0 0 249 39" fill="none" xmlns="http://www.w3.org/2000/svg">
<path d="M235.415 13.8213C234.965 13.4873 234.38 13.3203 233.658 13.3203H228.555V17.2035H233.658C234.38 17.2035 234.955 17.0365 235.415 16.7025C235.865 16.3684 236.095 15.8987 236.095 15.2828C236.095 14.6356 235.865 14.1449 235.415 13.8213Z" fill="#002233"/>
<path d="M106.303 0.0105591L112.683 38.3111H249V0.0105591H106.303ZM140.563 26.9327C137.321 30.2627 133.264 31.9225 128.411 31.9225C126.895 31.9225 125.462 31.7659 124.124 31.4527C121.812 30.9099 119.763 29.8973 117.985 28.4254C115.182 26.0975 113.781 23.0076 113.781 19.1556C113.781 16.2014 114.607 13.696 116.249 11.6396C116.751 11.0132 117.326 10.4287 117.985 9.88582C120.788 7.55794 124.26 6.38877 128.411 6.38877C131.329 6.38877 133.776 7.00467 135.721 8.23647C137.677 9.46826 139.13 10.9924 140.082 12.8192L133.305 16.0344C132.877 15.1993 132.239 14.479 131.371 13.8735C130.503 13.268 129.52 12.9653 128.401 12.9653C126.487 12.9653 124.929 13.5603 123.737 14.7399C122.544 15.9195 121.938 17.3914 121.938 19.1452C121.938 20.8989 122.534 22.3604 123.737 23.5504C124.929 24.73 126.487 25.3251 128.401 25.3251C129.143 25.3251 129.917 25.2102 130.712 24.991C131.507 24.7718 132.124 24.5108 132.542 24.2185V23.3416H127.606V16.8277H140.563V26.9327ZM219.248 21.3061C219.248 24.5108 218.15 27.0788 215.943 29.0204C213.736 30.9621 210.474 31.9225 206.144 31.9225C201.814 31.9225 198.541 30.9517 196.314 29.0204C194.369 27.3189 193.281 25.1476 193.04 22.4961C192.444 24.7718 191.189 26.7239 189.286 28.3524C186.515 30.7324 183.053 31.9225 178.901 31.9225C174.76 31.9225 171.299 30.7324 168.517 28.3524C165.861 26.0767 164.47 23.1642 164.365 19.6254C164.281 19.7611 164.187 19.8864 164.093 20.0116C163.152 21.2434 162.023 22.162 160.726 22.7466L165.547 31.4736H156.375L152.705 23.707H149.797V31.4736H141.745V6.80633L155.936 6.79589C158.938 6.79589 161.28 7.61013 162.974 9.21773C164.355 10.533 165.17 12.1302 165.421 13.9779C166.112 12.4747 167.147 11.1281 168.517 9.9589C171.288 7.57881 174.75 6.38877 178.901 6.38877C183.043 6.38877 186.504 7.57881 189.286 9.9589C191.137 11.5456 192.371 13.4351 192.988 15.6377V6.79589H201.156V21.0764C201.156 22.3082 201.584 23.3312 202.452 24.1246C203.32 24.9284 204.544 25.3251 206.144 25.3251C207.713 25.3251 208.926 24.9284 209.794 24.1246C210.651 23.3208 211.091 22.3082 211.091 21.0764V6.80633H219.258V21.3061H219.248ZM241.732 21.2956C240.048 22.9137 237.706 23.7175 234.694 23.7175H228.555V31.484H220.503V6.80633H234.694C237.695 6.80633 240.038 7.62057 241.732 9.22817C243.416 10.8462 244.263 12.8609 244.263 15.2723C244.263 17.6733 243.416 19.6776 241.732 21.2956Z" fill="#002233"/>
<path d="M178.901 12.9862C177.019 12.9862 175.481 13.5812 174.3 14.7608C173.118 15.9404 172.522 17.4123 172.522 19.1661C172.522 20.9198 173.107 22.3813 174.3 23.5713C175.481 24.7509 177.019 25.3459 178.901 25.3459C180.783 25.3459 182.321 24.7509 183.502 23.5713C184.684 22.3917 185.28 20.9198 185.28 19.1661C185.28 17.4123 184.684 15.9509 183.502 14.7608C182.321 13.5708 180.794 12.9862 178.901 12.9862Z" fill="#002233"/>
<path d="M156.585 13.8213C156.083 13.4873 155.455 13.3203 154.713 13.3203H149.808V17.2035H154.713C155.455 17.2035 156.083 17.0365 156.585 16.7025C157.087 16.3684 157.338 15.8882 157.338 15.241C157.338 14.6251 157.087 14.1449 156.585 13.8213Z" fill="#002233"/>
<path d="M27.2112 18.1533L12.8631 0.010376H0V38.3109H12.4971V18.9049L27.7131 38.3109H39.7082V0.010376H27.2112V18.1533Z" fill="#002233"/>
<path d="M83.3796 0.0105591H70.6943V22.1725C70.6943 24.0828 70.025 25.6695 68.6864 26.9118C67.3478 28.154 65.455 28.7804 63.0288 28.7804C60.5503 28.7804 58.6469 28.154 57.3084 26.9118C55.9698 25.6695 55.3005 24.0933 55.3005 22.1725V0.0105591H42.6152V22.5796C42.6152 27.5172 44.3407 31.484 47.7813 34.4905C51.2219 37.4969 56.3044 39.0001 63.0288 39.0001C69.7531 39.0001 74.8251 37.4969 78.2448 34.4905C81.6645 31.484 83.3796 27.4964 83.3796 22.517V0.0105591Z" fill="#002233"/>
<path d="M124.123 31.4527C121.812 30.9099 119.763 29.8973 117.985 28.4254C115.182 26.0975 113.781 23.0076 113.781 19.1556C113.781 16.2014 114.607 13.696 116.249 11.6396L111.626 0.00012207H95.9293L90.9513 12.5373L87.6676 20.805L86.6009 23.4982L83.3172 31.7659L80.7236 38.3111H94.8835L96.3685 33.8328H111.208L112.693 38.3111H126.853L124.123 31.4527ZM99.7045 23.7279L103.783 11.3995L107.862 23.7279H99.7045Z" fill="#002233"/>
</svg>
