<svg width="142" height="48" viewBox="0 0 142 48" fill="none" xmlns="http://www.w3.org/2000/svg">
<path d="M5.7522 0H135.848C139.021 0 141.6 2.5824 141.6 5.76V42.24C141.6 45.4176 139.021 48 135.848 48H5.7522C2.5789 48 0 45.4176 0 42.24V5.76C0 2.5824 2.5789 0 5.7522 0Z" fill="white"/>
<path d="M30.9928 22.9064C30.9641 19.4696 33.8018 17.7992 33.9265 17.7224C32.3159 15.38 29.8232 15.0536 28.9508 15.0248C26.8609 14.804 24.8284 16.2824 23.7643 16.2824C22.6809 16.2824 21.032 15.0536 19.2679 15.0824C16.9958 15.1208 14.8579 16.436 13.6979 18.4904C11.2916 22.6664 13.0843 28.8104 15.3948 32.1896C16.5548 33.8408 17.897 35.6936 19.6706 35.6264C21.3963 35.5592 22.0482 34.5224 24.1286 34.5224C26.1993 34.5224 26.8033 35.6264 28.6057 35.588C30.4656 35.5592 31.6256 33.9272 32.7473 32.2568C34.0799 30.3656 34.6167 28.4936 34.6359 28.3976C34.588 28.3784 31.0312 27.0152 30.9928 22.9064" fill="#5A81EA"/>
<path d="M27.5933 12.8064C28.5232 11.6448 29.156 10.0608 28.9834 8.44805C27.6412 8.50565 25.9539 9.37925 24.9856 10.5216C24.1324 11.5296 23.3654 13.1712 23.5572 14.7168C25.0719 14.832 26.625 13.9488 27.5933 12.8064" fill="#5A81EA"/>
<path d="M56.0372 35.3855H53.6213L52.2983 31.2191H47.6965L46.4406 35.3855H44.0918L48.6456 21.2063H51.4642L56.0372 35.3855ZM51.9052 29.4719L50.7068 25.7759C50.5822 25.3919 50.3425 24.5087 49.9974 23.1071H49.9494C49.8056 23.7119 49.5851 24.6047 49.2783 25.7759L48.0991 29.4719H51.9052Z" fill="#5A81EA"/>
<path d="M67.7421 30.1536C67.7421 31.8912 67.2724 33.264 66.3232 34.272C65.4796 35.1744 64.425 35.616 63.1787 35.616C61.8269 35.616 60.8587 35.136 60.2643 34.1664V39.5328H57.9921V28.5216C57.9921 27.4272 57.9634 26.3136 57.9059 25.1616H59.9L60.0246 26.784H60.0629C60.8203 25.5648 61.9708 24.9504 63.5047 24.9504C64.7126 24.9504 65.7097 25.4304 66.515 26.3808C67.3395 27.3408 67.7421 28.5888 67.7421 30.1536V30.1536ZM65.4317 30.2304C65.4317 29.232 65.2112 28.416 64.7606 27.7728C64.2716 27.1008 63.6101 26.7648 62.7856 26.7648C62.2296 26.7648 61.7215 26.9568 61.2613 27.3216C60.8107 27.696 60.5039 28.176 60.3697 28.7808C60.3026 29.0592 60.2643 29.2896 60.2643 29.472V31.1808C60.2643 31.92 60.4944 32.5536 60.9449 33.0624C61.3955 33.5712 61.9899 33.8304 62.7185 33.8304C63.5718 33.8304 64.2333 33.4944 64.7126 32.8416C65.192 32.1792 65.4317 31.3152 65.4317 30.2304V30.2304Z" fill="#5A81EA"/>
<path d="M79.4778 30.1536C79.4778 31.8912 79.008 33.264 78.0589 34.272C77.2152 35.1744 76.1607 35.616 74.9144 35.616C73.5626 35.616 72.5943 35.136 71.9999 34.1664V39.5328H69.7278V28.5216C69.7278 27.4272 69.699 26.3136 69.6415 25.1616H71.6356L71.7602 26.784H71.7986C72.556 25.5648 73.7064 24.9504 75.2403 24.9504C76.4483 24.9504 77.4453 25.4304 78.2506 26.3808C79.0751 27.3408 79.4778 28.5888 79.4778 30.1536ZM77.1673 30.2304C77.1673 29.232 76.9468 28.416 76.4962 27.7728C76.0073 27.1008 75.3458 26.7648 74.5213 26.7648C73.9652 26.7648 73.4571 26.9568 72.997 27.3216C72.5464 27.696 72.2492 28.176 72.1054 28.7808C72.0383 29.0592 71.9999 29.2896 71.9999 29.472V31.1808C71.9999 31.92 72.23 32.5536 72.6806 33.0624C73.1312 33.5712 73.7256 33.8304 74.4542 33.8304C75.3074 33.8304 75.9785 33.4944 76.4483 32.8416C76.9372 32.1792 77.1673 31.3152 77.1673 30.2304V30.2304Z" fill="#5A81EA"/>
<path d="M92.6116 31.4111C92.6116 32.6207 92.1898 33.5999 91.3557 34.3583C90.4354 35.1839 89.1507 35.5967 87.5018 35.5967C85.9774 35.5967 84.7599 35.2991 83.8395 34.7135L84.3668 32.8223C85.3639 33.4079 86.4568 33.7055 87.6456 33.7055C88.4988 33.7055 89.1699 33.5135 89.6397 33.1295C90.119 32.7455 90.3587 32.2271 90.3587 31.5839C90.3587 31.0079 90.1574 30.5279 89.7739 30.1343C89.3808 29.7407 88.7289 29.3759 87.8181 29.0399C85.3159 28.1087 84.0792 26.7551 84.0792 24.9791C84.0792 23.8175 84.5202 22.8671 85.3926 22.1183C86.265 21.3791 87.4251 21.0047 88.8727 21.0047C90.1574 21.0047 91.2311 21.2255 92.0843 21.6767L91.5091 23.5199C90.7038 23.0879 89.8026 22.8671 88.7864 22.8671C87.9907 22.8671 87.358 23.0687 86.9074 23.4527C86.5335 23.8079 86.3417 24.2303 86.3417 24.7391C86.3417 25.2959 86.5622 25.7663 86.9936 26.1215C87.3675 26.4575 88.0578 26.8223 89.0549 27.2159C90.2724 27.7055 91.164 28.2815 91.7392 28.9439C92.324 29.6063 92.6116 30.4319 92.6116 31.4111" fill="#5A81EA"/>
<path d="M100.126 26.87H97.6235V31.8332C97.6235 33.0908 98.0645 33.7244 98.9465 33.7244C99.3491 33.7244 99.6847 33.686 99.9531 33.6188L100.02 35.3468C99.5696 35.51 98.9848 35.5964 98.2562 35.5964C97.355 35.5964 96.6648 35.318 96.1567 34.7708C95.6485 34.2236 95.3993 33.302 95.3993 32.0156V26.8604H93.9133V25.1612H95.3993V23.2892L97.6235 22.6172V25.1612H100.126V26.87" fill="#5A81EA"/>
<path d="M111.384 30.1918C111.384 31.7662 110.933 33.0526 110.041 34.0606C109.102 35.0974 107.856 35.6158 106.303 35.6158C104.807 35.6158 103.609 35.1166 102.717 34.1278C101.825 33.139 101.384 31.8814 101.384 30.3646C101.384 28.7806 101.845 27.4846 102.755 26.4766C103.676 25.4686 104.912 24.9598 106.466 24.9598C107.961 24.9598 109.169 25.459 110.08 26.4574C110.952 27.4174 111.384 28.6654 111.384 30.1918V30.1918ZM109.035 30.2398C109.035 29.299 108.834 28.5022 108.431 27.8302C107.952 27.0142 107.271 26.611 106.389 26.611C105.478 26.611 104.778 27.0142 104.308 27.8302C103.896 28.5022 103.704 29.3182 103.704 30.2878C103.704 31.2286 103.906 32.035 104.308 32.6974C104.797 33.5134 105.488 33.9166 106.37 33.9166C107.232 33.9166 107.913 33.5038 108.412 32.6782C108.824 31.987 109.035 31.1806 109.035 30.2398V30.2398Z" fill="#5A81EA"/>
<path d="M118.767 27.1584C118.547 27.12 118.307 27.1008 118.048 27.1008C117.253 27.1008 116.63 27.3984 116.198 28.0032C115.824 28.5312 115.632 29.2128 115.632 30.0192V35.3856H113.36V28.3776C113.36 27.1968 113.341 26.1216 113.293 25.1616H115.268L115.354 27.12H115.422C115.661 26.448 116.035 25.9008 116.553 25.4976C117.061 25.1328 117.607 24.9504 118.192 24.9504C118.403 24.9504 118.595 24.9696 118.758 24.9888L118.767 27.1584" fill="#5A81EA"/>
<path d="M128.907 29.7883C128.907 30.1915 128.878 30.5371 128.821 30.8155H122.014C122.043 31.8235 122.369 32.6011 123.001 33.1291C123.577 33.5995 124.315 33.8395 125.226 33.8395C126.232 33.8395 127.153 33.6763 127.977 33.3595L128.332 34.9339C127.364 35.3563 126.223 35.5675 124.909 35.5675C123.327 35.5675 122.081 35.0971 121.18 34.1659C120.279 33.2347 119.828 31.9771 119.828 30.4123C119.828 28.8763 120.25 27.5899 121.094 26.5627C121.976 25.4683 123.164 24.9211 124.66 24.9211C126.127 24.9211 127.248 25.4683 127.996 26.5627C128.6 27.4459 128.907 28.5115 128.907 29.7883V29.7883ZM126.74 29.2027C126.76 28.5307 126.606 27.9451 126.299 27.4555C125.906 26.8219 125.302 26.5051 124.497 26.5051C123.759 26.5051 123.155 26.8123 122.695 27.4267C122.321 27.9163 122.091 28.5115 122.024 29.1931L126.74 29.2027V29.2027Z" fill="#5A81EA"/>
<path d="M50.8112 16.1383H49.6224L48.9705 14.0935H46.708L46.0848 16.1383H44.9344L47.1682 9.16875H48.5487L50.8112 16.1383ZM48.7692 13.2295L48.1844 11.4055C48.1269 11.2231 48.0118 10.7815 47.8297 10.0903H47.8105C47.7338 10.3879 47.6379 10.8199 47.4749 11.4055L46.8997 13.2295H48.7692Z" fill="#5A81EA"/>
<path d="M56.4086 11.107L54.5103 16.1374H53.427L51.5863 11.107H52.7847L53.6379 13.7662C53.7817 14.2078 53.9064 14.6302 54.0022 15.0334H54.031C54.1173 14.6686 54.2419 14.2462 54.3953 13.7662L55.239 11.107H56.4086" fill="#5A81EA"/>
<path d="M60.4552 16.1371L60.3689 15.5611H60.3402C59.995 16.0219 59.5061 16.2523 58.8734 16.2523C57.9722 16.2523 57.3394 15.6187 57.3394 14.7739C57.3394 13.5355 58.4132 12.8923 60.2731 12.8923V12.7963C60.2731 12.1339 59.9183 11.8075 59.2281 11.8075C58.7296 11.8075 58.2981 11.9323 57.9147 12.1819L57.6846 11.4523C58.1448 11.1643 58.7296 11.0203 59.4102 11.0203C60.7237 11.0203 61.3852 11.7115 61.3852 13.1035V14.9563C61.3852 15.4651 61.4043 15.8587 61.4619 16.1563L60.4552 16.1371V16.1371ZM60.3018 13.6315C59.0651 13.6315 58.4419 13.9291 58.4419 14.6491C58.4419 15.1771 58.7583 15.4363 59.2089 15.4363C59.7745 15.4363 60.3018 15.0043 60.3018 14.4091V13.6315Z" fill="#5A81EA"/>
<path d="M63.8664 10.2817C63.4925 10.2817 63.2049 9.99367 63.2049 9.60967C63.2049 9.22567 63.5021 8.94727 63.8856 8.94727C64.2691 8.94727 64.5759 9.22567 64.5663 9.60967C64.5663 10.0129 64.2787 10.2817 63.8664 10.2817V10.2817ZM63.3296 11.1073H64.4416V16.1281H63.3296V11.1073V11.1073Z" fill="#5A81EA"/>
<path d="M66.4256 8.80313H67.5377V16.1279H66.4256V8.80313Z" fill="#5A81EA"/>
<path d="M72.2751 16.1373L72.1888 15.5613H72.1601C71.815 16.0221 71.326 16.2525 70.6933 16.2525C69.7921 16.2525 69.1594 15.6189 69.1594 14.7741C69.1594 13.5357 70.2331 12.8925 72.093 12.8925V12.7965C72.093 12.1341 71.7383 11.8077 71.048 11.8077C70.5495 11.8077 70.1181 11.9325 69.7346 12.1821L69.5045 11.4429C69.9647 11.1549 70.5495 11.0109 71.2301 11.0109C72.5436 11.0109 73.2051 11.7021 73.2051 13.0941V14.9469C73.2051 15.4557 73.2242 15.8493 73.2722 16.1469H72.2751V16.1373V16.1373ZM72.1217 13.6317C70.885 13.6317 70.2619 13.9293 70.2619 14.6493C70.2619 15.1773 70.5782 15.4365 71.0288 15.4365C71.5945 15.4365 72.1217 15.0045 72.1217 14.4093V13.6317Z" fill="#5A81EA"/>
<path d="M77.731 16.2527C77.0216 16.2527 76.4943 15.9551 76.1492 15.3599H76.13L76.0629 16.1375H75.1138C75.1425 15.7343 75.1521 15.2831 75.1521 14.7839V8.80313H76.2738V11.8463H76.293C76.6285 11.2895 77.1558 11.0111 77.894 11.0111C79.102 11.0111 79.9456 12.0479 79.9456 13.5551C79.9456 15.1103 79.0061 16.2527 77.731 16.2527V16.2527ZM77.5009 11.8847C76.8586 11.8847 76.2738 12.4415 76.2738 13.2191V14.1023C76.2738 14.7935 76.8011 15.3599 77.4818 15.3599C78.3158 15.3599 78.8144 14.6783 78.8144 13.5935C78.8144 12.5759 78.2967 11.8847 77.5009 11.8847V11.8847Z" fill="#5A81EA"/>
<path d="M81.5925 8.80313H82.7046V16.1279H81.5925V8.80313Z" fill="#5A81EA"/>
<path d="M88.774 13.8914H85.4281C85.4473 14.8418 86.08 15.3794 87.01 15.3794C87.5085 15.3794 87.9591 15.293 88.3617 15.1394L88.5343 15.917C88.0645 16.1282 87.5085 16.2242 86.8566 16.2242C85.2843 16.2242 84.3544 15.2354 84.3544 13.6898C84.3544 12.1538 85.3035 10.9922 86.732 10.9922C88.007 10.9922 88.8219 11.9426 88.8219 13.3826C88.8219 13.5842 88.8123 13.757 88.774 13.8914V13.8914ZM87.7578 13.0946C87.7578 12.317 87.3647 11.7698 86.6553 11.7698C86.0129 11.7698 85.5144 12.3266 85.4377 13.0946H87.7578Z" fill="#5A81EA"/>
<path d="M95.5334 16.2525C94.0666 16.2525 93.1175 15.1581 93.1175 13.6701C93.1175 12.1149 94.0858 11.0109 95.6197 11.0109C97.0673 11.0109 98.0356 12.0573 98.0356 13.5837C98.0356 15.1485 97.0386 16.2525 95.5334 16.2525ZM95.5814 11.8269C94.7761 11.8269 94.2584 12.5853 94.2584 13.6317C94.2584 14.6685 94.7856 15.4173 95.5718 15.4173C96.3579 15.4173 96.8852 14.6109 96.8852 13.6029C96.8756 12.5853 96.3675 11.8269 95.5814 11.8269V11.8269Z" fill="#5A81EA"/>
<path d="M104.029 16.1376H102.917V13.248C102.917 12.3552 102.572 11.9136 101.901 11.9136C101.239 11.9136 100.789 12.48 100.789 13.1424V16.128H99.6767V12.5472C99.6767 12.1056 99.6671 11.6256 99.6383 11.1072H100.616L100.664 11.8848H100.693C100.99 11.3472 101.604 11.0016 102.284 11.0016C103.339 11.0016 104.029 11.808 104.029 13.1232V16.1376Z" fill="#5A81EA"/>
<path d="M111.324 11.9518H110.096V14.3902C110.096 15.0142 110.317 15.3214 110.748 15.3214C110.94 15.3214 111.113 15.3022 111.247 15.2734L111.276 16.1182C111.055 16.2046 110.767 16.243 110.413 16.243C109.531 16.243 109.013 15.7534 109.013 14.4862V11.9518H108.284V11.1166H109.013V10.195L110.106 9.85898V11.107H111.333V11.9518" fill="#5A81EA"/>
<path d="M117.229 16.1375H116.117V13.2671C116.117 12.3647 115.772 11.9135 115.101 11.9135C114.526 11.9135 113.989 12.3071 113.989 13.1039V16.1279H112.877V8.80313H113.989V11.8175H114.008C114.363 11.2703 114.861 11.0015 115.513 11.0015C116.577 11.0015 117.229 11.8271 117.229 13.1423V16.1375" fill="#5A81EA"/>
<path d="M122.923 13.8914H119.577C119.596 14.8418 120.229 15.3794 121.159 15.3794C121.658 15.3794 122.108 15.293 122.511 15.1394L122.683 15.917C122.214 16.1282 121.658 16.2242 121.006 16.2242C119.433 16.2242 118.503 15.2354 118.503 13.6898C118.503 12.1538 119.453 10.9922 120.881 10.9922C122.156 10.9922 122.971 11.9426 122.971 13.3826C122.971 13.5842 122.961 13.757 122.923 13.8914V13.8914ZM121.907 13.0946C121.907 12.317 121.514 11.7698 120.804 11.7698C120.162 11.7698 119.654 12.3266 119.587 13.0946H121.907Z" fill="#5A81EA"/>
</svg>
