<svg width="162" height="48" viewBox="0 0 162 48" fill="none" xmlns="http://www.w3.org/2000/svg">
<g clip-path="url(#clip0_3599_7783)">
<path d="M149.857 0H11.7555C11.315 0 10.8829 0 10.455 0C10.0852 0 9.71953 0.0124015 9.34974 0.0124015C8.56446 0.0372056 7.76672 0.0868132 6.96897 0.231504C6.17122 0.363792 5.4358 0.599432 4.70869 0.963225C3.99819 1.33115 3.34587 1.80656 2.7808 2.36879C2.20326 2.93101 1.73791 3.57592 1.36812 4.28697C0.998335 5.00628 0.765657 5.75454 0.6327 6.54827C0.487277 7.3296 0.437418 8.12333 0.412489 8.91706C0.412489 9.27259 0.400024 9.63638 0.400024 10.0043V11.2983V36.7017V37.9957C0.400024 38.3636 0.412489 38.7274 0.412489 39.0953C0.437418 39.8891 0.487277 40.6828 0.6327 41.4641C0.765657 42.2579 1.00249 43.002 1.36812 43.7254C1.73791 44.4199 2.20326 45.0814 2.7808 45.6312C3.34587 46.1934 3.99404 46.6688 4.70869 47.0244C5.43164 47.4047 6.17122 47.6362 6.96897 47.7809C7.76672 47.9132 8.56446 47.9628 9.34974 47.9876C9.71953 47.9876 10.0852 48 10.455 48C10.8829 48 11.315 48 11.7555 48H149.857C150.285 48 150.717 48 151.145 48C151.502 48 151.881 47.9876 152.238 47.9876C153.036 47.9628 153.833 47.9132 154.619 47.7809C155.416 47.6362 156.164 47.4006 156.891 47.0244C157.602 46.6688 158.254 46.1934 158.819 45.6312C159.384 45.0814 159.862 44.4241 160.232 43.7254C160.602 43.0061 160.834 42.2579 160.967 41.4641C161.113 40.6828 161.163 39.8891 161.188 39.0953C161.188 38.7274 161.188 38.3636 161.188 37.9957C161.2 37.5699 161.2 37.1399 161.2 36.7017V11.2983C161.2 10.86 161.2 10.4301 161.188 10.0043C161.188 9.63638 161.188 9.27259 161.188 8.91706C161.163 8.12333 161.113 7.3296 160.967 6.54827C160.834 5.75454 160.598 5.01042 160.232 4.28697C159.862 3.58005 159.384 2.93101 158.819 2.36879C158.254 1.80656 157.606 1.33115 156.891 0.963225C156.168 0.595298 155.416 0.363792 154.619 0.231504C153.833 0.0868132 153.036 0.0372056 152.238 0.0124015C151.881 0.0124015 151.502 0 151.145 0C150.717 0 150.285 0 149.857 0Z" fill="white"/>
<path d="M10.4549 46.9582C10.0851 46.9582 9.74443 46.9582 9.37464 46.9458C8.70985 46.9334 7.92456 46.8962 7.15175 46.7515C6.42879 46.6275 5.77646 46.4084 5.174 46.1025C4.55907 45.7966 3.994 45.3832 3.51618 44.9036C3.0259 44.4158 2.61872 43.866 2.30294 43.2417C1.99548 42.6423 1.78773 42.0098 1.65062 41.2739C1.5052 40.4802 1.4678 39.6741 1.45534 39.0623C1.44287 38.8059 1.44287 37.975 1.44287 37.975V9.99603C1.44287 9.99603 1.45534 9.1775 1.45534 8.93359C1.4678 8.30936 1.5052 7.50323 1.65062 6.7219C1.78358 5.99018 1.99548 5.35354 2.30294 4.7417C2.62287 4.12987 3.0259 3.56764 3.50787 3.09223C3.99815 2.60442 4.56322 2.18689 5.17815 1.8851C5.79308 1.56678 6.44125 1.36009 7.1559 1.23607C7.95365 1.09138 8.76386 1.05417 9.39125 1.04177L10.4591 1.02937H151.133L152.225 1.04177C152.84 1.05417 153.65 1.09138 154.436 1.23607C155.159 1.36009 155.811 1.56678 156.426 1.8851C157.041 2.19102 157.606 2.60442 158.084 3.09223C158.574 3.56764 158.981 4.12987 159.309 4.75411C159.617 5.35354 159.825 5.99844 159.937 6.70949C160.082 7.45361 160.12 8.22254 160.145 8.94599C160.157 9.27671 160.157 9.64051 160.157 9.99603C160.157 10.4342 160.157 10.8642 160.157 11.29V36.6935C160.157 37.1193 160.157 37.5492 160.157 37.975C160.157 38.3553 160.157 38.7067 160.145 39.0747C160.12 39.7692 160.082 40.5422 159.949 41.2615C159.825 41.9933 159.617 42.6299 159.297 43.2417C158.977 43.866 158.574 44.4158 158.092 44.8912C157.602 45.379 157.037 45.7842 156.422 46.0983C155.807 46.4167 155.171 46.611 154.432 46.7474C153.671 46.8921 152.886 46.9293 152.209 46.9417C151.864 46.9541 151.498 46.9541 151.141 46.9541H149.853H10.4549V46.9582Z" fill="white"/>
<path d="M55.1703 30.4469L52.4946 23.2538L49.8313 30.4469H55.1703ZM45.8425 35.7839L51.3894 21.3232H53.6123L59.1591 35.7839H57.1107L55.7853 32.0716H49.2413L47.9158 35.7839H45.8425ZM62.9276 34.1593V39.9097H61.1368V24.9363H62.9276V26.5734C63.3057 25.9285 63.7794 25.453 64.3528 25.143C64.9344 24.8247 65.62 24.6676 66.4136 24.6676C67.739 24.6676 68.8151 25.1926 69.642 26.2426C70.4771 27.2844 70.8926 28.661 70.8926 30.3725C70.8926 32.0757 70.4771 33.4482 69.642 34.5024C68.8151 35.5442 67.739 36.0651 66.4136 36.0651C65.62 36.0651 64.9344 35.9121 64.3528 35.602C63.7794 35.2837 63.3057 34.8 62.9276 34.1593ZM69.0271 30.3725C69.0271 29.062 68.7528 28.0327 68.2044 27.2844C67.6725 26.5362 66.933 26.16 65.9815 26.16C65.0342 26.16 64.2821 26.5362 63.7337 27.2844C63.1935 28.0327 62.9235 29.062 62.9235 30.3725C62.9235 31.683 63.1935 32.7124 63.7337 33.4606C64.2821 34.2006 65.03 34.5727 65.9815 34.5727C66.9288 34.5727 67.6725 34.2006 68.2044 33.4606C68.7528 32.7124 69.0271 31.683 69.0271 30.3725ZM75.596 34.1593V39.9097H73.7927V24.9363H75.596V26.5734C75.9741 25.9285 76.4436 25.453 77.0087 25.143C77.5904 24.8247 78.2801 24.6676 79.082 24.6676C80.3991 24.6676 81.4711 25.1926 82.2979 26.2426C83.133 27.2844 83.5485 28.661 83.5485 30.3725C83.5485 32.0757 83.133 33.4482 82.2979 34.5024C81.4711 35.5442 80.3991 36.0651 79.082 36.0651C78.2801 36.0651 77.5904 35.9121 77.0087 35.602C76.4436 35.2837 75.9699 34.8 75.596 34.1593ZM81.683 30.3725C81.683 29.062 81.4087 28.0327 80.8603 27.2844C80.3285 26.5362 79.5889 26.16 78.6374 26.16C77.6901 26.16 76.938 26.5362 76.3896 27.2844C75.8577 28.0327 75.5918 29.062 75.5918 30.3725C75.5918 31.683 75.8577 32.7124 76.3896 33.4606C76.938 34.2006 77.6859 34.5727 78.6374 34.5727C79.5847 34.5727 80.3285 34.2006 80.8603 33.4606C81.4087 32.7124 81.683 31.683 81.683 30.3725ZM96.4371 33.7211V29.8392H93.2337V28.227H98.3899V34.4445C97.6296 34.9819 96.7903 35.3871 95.8721 35.6641C94.9621 35.9328 93.9899 36.0651 92.9511 36.0651C90.6742 36.0651 88.8959 35.4036 87.6121 34.0849C86.3365 32.7661 85.6966 30.9265 85.6966 28.566C85.6966 26.2054 86.3365 24.3658 87.6121 23.0471C88.8959 21.72 90.6784 21.0545 92.9511 21.0545C93.8985 21.0545 94.7959 21.1743 95.6394 21.41C96.4995 21.6374 97.2889 21.9805 98.0077 22.4352V24.5229C97.2806 23.9028 96.5078 23.4398 95.6892 23.1297C94.8707 22.8197 94.0106 22.6667 93.1132 22.6667C91.339 22.6667 90.0011 23.1587 89.0995 24.1426C88.2145 25.1347 87.7741 26.6106 87.7741 28.5618C87.7741 30.5131 88.2145 31.9848 89.0995 32.9687C90.0011 33.9526 91.339 34.4445 93.1132 34.4445C93.8071 34.4445 94.4303 34.3866 94.9788 34.275C95.5189 34.1593 96.005 33.9732 96.4371 33.7211ZM108.578 30.3229H106.8C105.349 30.3229 104.348 30.4883 103.791 30.8231C103.235 31.1497 102.956 31.7119 102.956 32.5098C102.956 33.1464 103.164 33.6508 103.584 34.0229C103.999 34.3908 104.568 34.5727 105.291 34.5727C106.288 34.5727 107.086 34.2213 107.685 33.5226C108.283 32.824 108.582 31.8897 108.582 30.7239V30.3229H108.578ZM110.369 29.5912V35.7839H108.578V34.1345C108.171 34.7959 107.66 35.2837 107.057 35.602C106.442 35.9121 105.694 36.0651 104.809 36.0651C103.696 36.0651 102.807 35.755 102.146 35.1349C101.49 34.5065 101.165 33.6673 101.165 32.6173C101.165 31.406 101.573 30.4841 102.391 29.8558C103.218 29.2357 104.444 28.9256 106.072 28.9256H108.578V28.7561C108.578 27.9335 108.308 27.2968 107.768 26.8503C107.227 26.4039 106.467 26.1806 105.487 26.1806C104.863 26.1806 104.261 26.255 103.671 26.3997C103.081 26.5444 102.512 26.7718 101.963 27.0694V25.42C102.62 25.1678 103.255 24.9818 103.879 24.8577C104.494 24.7255 105.088 24.6635 105.669 24.6635C107.248 24.6635 108.428 25.0686 109.205 25.883C109.982 26.7057 110.369 27.9376 110.369 29.5912ZM114.062 35.7839V20.7155H115.853V35.7839H114.062ZM119.601 35.7839V20.7155H121.392V35.7839H119.601ZM134.413 29.9095V30.7901H126.178C126.253 32.0096 126.619 32.948 127.283 33.597C127.952 34.2337 128.883 34.5479 130.071 34.5479C130.757 34.5479 131.422 34.4652 132.062 34.304C132.718 34.1345 133.358 33.8823 133.989 33.5474V35.2341C133.35 35.5028 132.693 35.7095 132.012 35.8584C131.343 35.9948 130.657 36.0651 129.963 36.0651C128.227 36.0651 126.851 35.5607 125.825 34.552C124.811 33.5516 124.304 32.1915 124.304 30.4717C124.304 28.69 124.786 27.2803 125.754 26.2468C126.718 25.1967 128.023 24.6717 129.656 24.6717C131.122 24.6717 132.278 25.143 133.129 26.0897C133.985 27.024 134.413 28.2972 134.413 29.9095ZM126.228 29.3969H132.622C132.606 28.4213 132.327 27.6399 131.787 27.0529C131.255 26.4741 130.549 26.1848 129.664 26.1848C128.667 26.1848 127.865 26.4659 127.258 27.0281C126.66 27.5903 126.319 28.3799 126.228 29.3969ZM143.596 24.7668L143.608 26.5982C143.404 26.4824 143.184 26.3997 142.943 26.3419C142.702 26.284 142.449 26.255 142.17 26.255C141.157 26.255 140.376 26.5858 139.827 27.2431C139.287 27.8962 139.017 28.8347 139.017 30.0625V35.7798H137.226V24.9363H139.017V26.623C139.395 25.9615 139.885 25.4737 140.492 25.1554C141.098 24.8288 141.83 24.6676 142.69 24.6676C142.814 24.6676 142.952 24.68 143.105 24.7048C143.251 24.7131 143.417 24.7337 143.596 24.7668ZM154.814 24.9363L150.027 36.7844C149.521 38.0783 149.026 38.9258 148.544 39.3226C148.062 39.7154 147.418 39.9097 146.616 39.9097H145.179V38.4214H146.234C146.724 38.4214 147.111 38.3015 147.389 38.0659C147.659 37.8385 147.958 37.2887 148.287 36.4164L148.619 35.6103L144.198 24.9363H146.101L149.512 33.411L152.911 24.9363H154.814Z" fill="#5A81EA"/>
<path d="M45.7303 16.2425V8.78061H50.467V9.62394H46.7358V11.8356H50.3091V12.6914H46.7358V15.3909H50.5667V16.2466H45.7303V16.2425ZM54.2023 12.2614L51.8713 8.78061H52.9641L54.8296 11.5545L56.6952 8.78061H57.788L55.3823 12.3607L57.9458 16.2425H56.8531L54.7549 13.0676L52.6192 16.2425H51.5265L54.2023 12.2614ZM61.5648 9.61154H60.2892V12.4103H61.5648C62.0384 12.4103 62.4082 12.2904 62.67 12.0547C62.9234 11.8108 63.0523 11.4594 63.0523 11.0047C63.0523 10.5665 62.9234 10.2234 62.67 9.97947C62.4082 9.73556 62.0384 9.61154 61.5648 9.61154ZM59.2837 16.2425V8.78061H61.5648C62.4082 8.78061 63.0439 8.96664 63.4802 9.34283C63.904 9.7273 64.1201 10.2771 64.1201 11.0047C64.1201 11.7447 63.9082 12.3028 63.4802 12.679C63.0481 13.0552 62.4082 13.2412 61.5648 13.2412H60.2892V16.2466H59.2837V16.2425ZM65.4829 16.2425V8.78061H66.5008V15.3868H70.1572V16.2425H65.4829ZM73.9008 9.46685C73.1654 9.46685 72.5754 9.7397 72.1349 10.2854C71.7111 10.8311 71.4951 11.5752 71.4951 12.5219C71.4951 13.4562 71.707 14.2044 72.1349 14.7584C72.5754 15.3041 73.1654 15.5769 73.9008 15.5769C74.6362 15.5769 75.2179 15.3041 75.6417 14.7584C76.0738 14.2044 76.294 13.4603 76.294 12.5219C76.294 11.5793 76.078 10.8311 75.6417 10.2854C75.2179 9.73556 74.6362 9.46685 73.9008 9.46685ZM73.9008 8.64832C74.9478 8.64832 75.7871 8.99971 76.4187 9.69836C77.0502 10.397 77.3618 11.3396 77.3618 12.5177C77.3618 13.7001 77.0461 14.6385 76.4187 15.3371C75.7871 16.0358 74.9478 16.3872 73.9008 16.3872C72.8454 16.3872 71.9978 16.0358 71.358 15.3371C70.7264 14.6385 70.4148 13.6959 70.4148 12.5177C70.4148 11.3354 70.7306 10.397 71.358 9.69836C71.9978 8.99558 72.8454 8.64832 73.9008 8.64832ZM82.5056 12.7369C82.7258 12.8113 82.9378 12.9684 83.1455 13.2123C83.3491 13.4479 83.5568 13.7786 83.7729 14.2003L84.8033 16.2384H83.7106L82.7549 14.3202C82.5015 13.8241 82.2605 13.4934 82.032 13.3322C81.7951 13.1709 81.4752 13.0882 81.0764 13.0882H79.9711V16.2384H78.9532V8.78061H81.2467C82.1068 8.78061 82.7466 8.95837 83.1746 9.31803C83.5901 9.66942 83.802 10.2068 83.802 10.9303C83.802 11.4016 83.6898 11.7943 83.4696 12.1043C83.2411 12.4103 82.9253 12.6252 82.5056 12.7369ZM81.2425 9.61154H79.967V12.2614H81.2425C81.7328 12.2614 82.1026 12.1457 82.3478 11.9183C82.6012 11.6909 82.73 11.3602 82.73 10.9303C82.73 10.4921 82.6012 10.1614 82.3478 9.94226C82.1026 9.72316 81.7328 9.61154 81.2425 9.61154ZM86.1038 16.2425V8.78061H90.8404V9.62394H87.1218V11.8356H90.695V12.6914H87.1218V15.3909H90.9402V16.2466H86.1038V16.2425ZM95.8721 16.2425V8.78061H96.89V16.2425H95.8721ZM97.8747 9.62394V8.78061H104.219V9.62394H101.556V16.2425H100.538V9.62394H97.8747ZM111.511 9.46685C110.776 9.46685 110.19 9.7397 109.758 10.2854C109.326 10.8311 109.106 11.5752 109.106 12.5219C109.106 13.4562 109.322 14.2044 109.758 14.7584C110.19 15.3041 110.776 15.5769 111.511 15.5769C112.247 15.5769 112.832 15.3041 113.265 14.7584C113.688 14.2044 113.904 13.4603 113.904 12.5219C113.904 11.5793 113.693 10.8311 113.265 10.2854C112.832 9.73556 112.247 9.46685 111.511 9.46685ZM111.511 8.64832C112.567 8.64832 113.41 8.99971 114.042 9.69836C114.673 10.397 114.985 11.3396 114.985 12.5177C114.985 13.7001 114.669 14.6385 114.042 15.3371C113.414 16.0358 112.567 16.3872 111.511 16.3872C110.456 16.3872 109.612 16.0358 108.981 15.3371C108.349 14.6385 108.038 13.6959 108.038 12.5177C108.038 11.3354 108.353 10.397 108.981 9.69836C109.612 8.99558 110.456 8.64832 111.511 8.64832ZM116.568 16.2425V8.78061H117.931L121.259 15.023V8.78061H122.252V16.2425H120.876L117.548 10.0001V16.2425H116.568Z" fill="#5A81EA"/>
<path d="M32.8917 8.80546H19.5377C13.2388 8.80546 10.9329 11.0874 10.9329 17.3546V30.6413C10.9329 36.9085 13.2388 39.2028 19.5377 39.2028H32.8917C39.1781 39.2028 41.4841 36.9085 41.4841 30.6413V17.3546C41.4841 11.0874 39.1905 8.80546 32.8917 8.80546Z" fill="#5A81EA"/>
<path fill-rule="evenodd" clip-rule="evenodd" d="M23.971 27.148L23.6012 27.9665H22.7785L24.5319 23.9979H25.2424L26.9958 27.9665H26.1482L25.7908 27.148H23.971ZM24.2618 26.4287H25.4875L24.8726 25.0107L24.2618 26.4287ZM37.2751 23.9979H38.0853V27.9665H37.2751V23.9979ZM34.0965 27.2472H36.3194V27.9665H33.2988V23.9979H36.2322V24.7296H34.0965V25.5357H35.5715V26.2674H34.0965V27.2472ZM31.7989 23.9979H32.6465L31.2587 27.9789H30.5732L29.6632 25.3662L28.7533 27.9789H28.0885L26.6883 23.9979H27.5608L28.4458 26.7346L29.3433 23.9979H30.0081L30.918 26.7346L31.7989 23.9979ZM21.5528 23.9979H22.363V26.2468C22.363 27.3836 21.7356 28.0409 20.6304 28.0409C19.5501 28.0409 18.9227 27.3919 18.9227 26.2716V24.002H19.7329V26.2509C19.7329 26.9206 20.0529 27.2761 20.6429 27.2761C21.2329 27.2761 21.5528 26.9206 21.5528 26.2757V23.9979ZM16.9865 23.9979H17.7967V27.9789H16.9865V26.3543H15.1584V27.9789H14.3481V23.9979H15.1584V25.5977H16.9865V23.9979ZM26.2146 18.942C23.4017 18.942 21.1331 16.6724 21.1331 13.8861H21.8436C21.8436 16.2797 23.8089 18.2227 26.2146 18.2227C28.6203 18.2227 30.5856 16.2797 30.5856 13.8861H31.2961C31.2961 16.6683 29.0151 18.942 26.2146 18.942Z" fill="white"/>
</g>
<defs>
<clipPath id="clip0_3599_7783">
<rect width="160.8" height="48" fill="white" transform="translate(0.400024)"/>
</clipPath>
</defs>
</svg>
