<svg width="162" height="48" viewBox="0 0 162 48" fill="none" xmlns="http://www.w3.org/2000/svg">
<g clip-path="url(#clip0_3827_3438)">
<path d="M155.444 48H6.55554C3.28002 48 0.599976 45.3 0.599976 42V6.00003C0.599976 2.7 3.27996 0 6.55554 0H155.444C158.72 0 161.4 2.7 161.4 6.00003V42C161.4 45.3 158.72 48 155.444 48" fill="white"/>
<path d="M155.444 0H6.55554C3.28002 0 0.599976 2.7 0.599976 6.00003V42C0.599976 45.3 3.27996 48 6.55554 48H155.444C158.72 48 161.4 45.3 161.4 42V6.00003C161.4 2.7 158.72 0 155.444 0H155.444ZM155.444 0.95997C158.203 0.95997 160.447 3.22129 160.447 6.00003V42C160.447 44.7792 158.203 47.0405 155.444 47.0405H6.55554C3.79743 47.0405 1.55287 44.7792 1.55287 42V6.00003C1.55287 3.22129 3.79738 0.960024 6.55554 0.960024H155.444" fill="white"/>
<path d="M57.0819 12.2917C57.0819 13.297 56.7864 14.0976 56.1945 14.6949C55.5222 15.405 54.6461 15.7604 53.5689 15.7604C52.5374 15.7604 51.6604 15.4004 50.9392 14.6794C50.2167 13.9589 49.8561 13.0655 49.8561 11.9996C49.8561 10.9331 50.2167 10.0403 50.9392 9.31922C51.6604 8.59881 52.5374 8.23828 53.5689 8.23828C54.0808 8.23828 54.5708 8.33913 55.036 8.54024C55.5013 8.74183 55.8744 9.00944 56.1536 9.34456L55.5254 9.97782C55.0523 9.40831 54.4009 9.12377 53.5689 9.12377C52.8167 9.12377 52.1662 9.39008 51.6172 9.92302C51.0681 10.4565 50.7936 11.1483 50.7936 11.9996C50.7936 12.8509 51.0681 13.5426 51.6172 14.0762C52.1662 14.6091 52.8166 14.8754 53.5689 14.8754C54.367 14.8754 55.0323 14.6077 55.565 14.0715C55.9108 13.7222 56.1107 13.2366 56.1643 12.6131H53.5689V11.7483H57.0321C57.0655 11.9364 57.0818 12.1168 57.0818 12.2917" fill="#5A81EA"/>
<path d="M57.0835 12.2921H56.9644C56.9634 13.2746 56.6786 14.0377 56.1118 14.6105L56.1106 14.6115L56.1101 14.6125C55.4591 15.2981 54.6224 15.6394 53.5705 15.6409C52.5665 15.6394 51.7262 15.2944 51.0245 14.595C50.3243 13.8943 49.9781 13.0388 49.9768 12.0001C49.9781 10.9609 50.3243 10.1058 51.0245 9.40555C51.7262 8.70568 52.5665 8.3602 53.5705 8.35875C54.067 8.35875 54.5397 8.45636 54.9905 8.65084C55.4418 8.84682 55.7983 9.10364 56.064 9.42248L56.1552 9.34503L56.071 9.2602L55.4428 9.89389L55.527 9.97829L55.6187 9.90149C55.1236 9.30378 54.4286 9.00247 53.5705 9.00424C52.7903 9.00327 52.104 9.28415 51.5363 9.83732C50.9631 10.3923 50.6751 11.123 50.6761 12.0001C50.6751 12.8771 50.9631 13.6078 51.5363 14.1628C52.104 14.716 52.7903 14.9968 53.5705 14.9959C54.3949 14.9973 55.0976 14.7155 55.6508 14.1568C56.0202 13.7836 56.2296 13.2667 56.2845 12.6239L56.2956 12.4936H53.6896V11.8688H57.0336V11.7488L56.9163 11.7699C56.9489 11.9518 56.9643 12.1247 56.9643 12.2921H57.2025C57.2025 12.1098 57.1858 11.9223 57.1508 11.7273L57.1332 11.6288H53.4514V12.7336H56.1658V12.6136L56.0472 12.6033C55.9947 13.2071 55.8039 13.6618 55.4824 13.9872C54.9706 14.5009 54.3424 14.7544 53.5705 14.7559C52.8461 14.7549 52.2315 14.5036 51.7015 13.9904C51.1767 13.4789 50.9157 12.826 50.9143 12.0001C50.9157 11.1741 51.1767 10.5212 51.7015 10.0097C52.2315 9.49647 52.8461 9.24521 53.5705 9.24424C54.376 9.24618 54.9841 9.51427 55.4359 10.0557L55.5197 10.156L56.2394 9.42992L56.3167 9.35215L56.2464 9.26813C55.9537 8.91666 55.5638 8.63768 55.0846 8.43058C54.6044 8.22284 54.0977 8.11875 53.5705 8.11875C52.5116 8.11784 51.5978 8.49282 50.8566 9.23491C50.1126 9.97554 49.7376 10.9065 49.7386 12.0001C49.7376 13.0931 50.1126 14.0246 50.8571 14.7657C51.5978 15.5073 52.5116 15.8818 53.5705 15.8809C54.6733 15.8818 55.588 15.5128 56.2822 14.7783L56.1961 14.6954L56.2803 14.7802C56.8973 14.1591 57.2034 13.3201 57.2026 12.2921H57.0835H57.0835ZM62.5737 9.28458H59.3191V11.5675H62.2541V12.4326H59.3191V14.7155H62.5737V15.6001H58.4015V8.40006H62.5737V9.28458Z" fill="#5A81EA"/>
<path d="M62.5703 9.28498V9.16499H59.1966V11.6879H62.1316V12.3127L59.1965 12.313V14.8359H62.4511V15.4805H58.5173V8.52046H62.4511V9.28498H62.5703V9.16499V9.28498H62.6893V8.28047H58.2791V15.7204H62.6893V14.5959H59.4347V12.553H62.3698V11.4479H59.4347V9.40498H62.6893V9.28498H62.5703ZM66.4427 15.6005H65.5238V9.28493H63.5278V8.40041H68.4388V9.28493H66.4427V15.6004" fill="#5A81EA"/>
<path d="M66.4402 15.6005V15.4805H65.6404V9.16499H63.6444V8.52051H68.3172V9.16499H66.3211V15.6004H66.4402V15.4805V15.6004H66.5593V9.40498H68.5554V8.28047H63.4061V9.40493H65.4022V15.7204H66.5593V15.6004H66.4402V15.6005ZM71.9896 15.6005V8.40041H72.9076V15.6004H71.9896" fill="#5A81EA"/>
<path d="M71.9904 15.6005H72.1096V8.52046H72.7893V15.4805H71.9904V15.6005H72.1096H71.9904V15.7204H73.0275V8.28047H71.8713V15.7204H71.9904V15.6005V15.6005ZM76.9819 15.6005H76.063V9.28493H74.067V8.40041H78.9779V9.28493H76.9819V15.6004" fill="#5A81EA"/>
<path d="M76.9851 15.5996V15.4796H76.1853V9.16411H74.1894V8.51964H78.8621V9.16411H76.8661V15.5996H76.9851V15.4796V15.5996H77.1043V9.4041H79.1003V8.27959H73.9512V9.40405H75.9471V15.7195H77.1043V15.5995H76.9851V15.5996ZM83.7159 14.0664C84.2449 14.6058 84.8921 14.8753 85.6575 14.8753C86.4229 14.8753 87.0705 14.6058 87.5987 14.0664C88.1281 13.5268 88.3934 12.8372 88.3934 11.9996C88.3934 11.162 88.1281 10.4724 87.5987 9.93284C87.0705 9.39332 86.4229 9.12377 85.6575 9.12377C84.8921 9.12377 84.2449 9.39332 83.7159 9.93284C83.1878 10.4724 82.9226 11.162 82.9226 11.9996C82.9226 12.8372 83.1878 13.5268 83.7159 14.0664ZM88.2779 14.6691C87.5753 15.397 86.7016 15.7604 85.6575 15.7604C84.6125 15.7604 83.7391 15.397 83.038 14.6691C82.3349 13.942 81.9851 13.052 81.9851 11.9996C81.9851 10.9472 82.3349 10.057 83.038 9.33006C83.7391 8.60199 84.6125 8.23828 85.6575 8.23828C86.6961 8.23828 87.5675 8.60393 88.2733 9.33475C88.9782 10.0655 89.3309 10.9537 89.3309 11.9996C89.3309 13.052 88.9791 13.942 88.2779 14.6691Z" fill="#5A81EA"/>
<path d="M83.7171 14.0668L83.6324 14.1512C84.181 14.7123 84.8655 14.9973 85.6587 14.9958C86.4515 14.9973 87.1369 14.7123 87.6846 14.1512C88.2368 13.5895 88.5146 12.863 88.5137 12C88.5145 11.1372 88.2368 10.4105 87.6846 9.84891C87.1369 9.28781 86.4515 9.00284 85.6587 9.00424C84.8655 9.00284 84.181 9.28781 83.6324 9.84891C83.0815 10.4105 82.8033 11.1372 82.8047 12C82.8033 12.8629 83.0815 13.5895 83.6324 14.1512L83.7171 14.0668L83.8018 13.9824C83.2965 13.4644 83.0439 12.8128 83.0429 12C83.0439 11.1873 83.2965 10.5357 83.8018 10.0177C84.3117 9.49976 84.9207 9.24569 85.6587 9.24429C86.3962 9.24569 87.0066 9.49976 87.5152 10.0177C88.0214 10.5357 88.2741 11.1873 88.275 12C88.2741 12.8128 88.0214 13.4644 87.5152 13.9824C87.0066 14.5004 86.3962 14.7544 85.6587 14.7558C84.9207 14.7544 84.3117 14.5004 83.8018 13.9824L83.7171 14.0668ZM88.2792 14.6696L88.194 14.5862C87.511 15.2912 86.6758 15.6395 85.6587 15.6409C84.6412 15.6394 83.806 15.2912 83.1243 14.5862L83.1211 14.5824L83.1243 14.5862C82.4427 13.8788 82.1064 13.0257 82.1054 12C82.1064 10.9744 82.4427 10.1213 83.1243 9.41396C83.806 8.70892 84.6411 8.3602 85.6587 8.3588C86.6693 8.3602 87.5026 8.71037 88.1894 9.41908C88.8733 10.1297 89.2116 10.9815 89.213 12C89.2116 13.0257 88.8743 13.8788 88.194 14.5862L88.2792 14.6696L88.3649 14.7529C89.0869 14.0058 89.4521 13.0791 89.4513 12C89.4521 10.9271 89.0855 10.0023 88.3601 9.25184C87.6343 8.49843 86.7252 8.11746 85.6587 8.11875C84.5868 8.11746 83.6748 8.49665 82.9536 9.24715V9.24661C82.2301 9.99425 81.8662 10.921 81.8672 12C81.8662 13.0791 82.2301 14.0058 82.9536 14.7534L82.9568 14.7568L82.9536 14.7529C83.6748 15.5034 84.5868 15.8818 85.6587 15.8808C86.7302 15.8818 87.6422 15.5034 88.3649 14.7529L88.2792 14.6696ZM90.6209 15.6001V8.4H91.7386L95.2118 14.0011H95.2514L95.2118 12.6136V8.4H96.1308V15.6H95.1723L91.5385 9.72746H91.4989L91.5385 11.1155V15.6H90.6209" fill="#5A81EA"/>
<path d="M90.6185 15.6005H90.7376V8.52046H91.67L95.1433 14.1216H95.3713L95.3285 12.6123V8.52051H96.0092V15.4805H95.236L91.6022 9.60792H91.3742L91.4169 11.1179V15.4805H90.6185V15.6005H90.7376H90.6185V15.7204H91.6551V11.1141L91.6156 9.72468L91.4965 9.72792V9.84792H91.536V9.72792L91.435 9.79172L95.1038 15.7204H96.2475V8.28047H95.0903V12.6154L95.1298 14.0048L95.249 14.0016V13.8816H95.2094V14.0016L95.3104 13.9379L91.8021 8.28047H90.4995V15.7204H90.6186V15.6005L90.6185 15.6005ZM127.973 36.0005H130.195V20.999H127.972L127.973 36.0005ZM147.992 26.4029L145.444 32.9068H145.367L142.723 26.4029H140.329L144.294 35.4932L142.034 40.5497H144.353L150.463 26.4029L147.992 26.4029ZM135.387 34.2966C134.658 34.2966 133.643 33.93 133.643 33.0226C133.643 31.8647 134.908 31.4208 135.999 31.4208C136.977 31.4208 137.436 31.6331 138.03 31.9229C137.858 33.3122 136.67 34.2966 135.387 34.2966ZM135.655 26.0747C134.046 26.0747 132.38 26.789 131.69 28.3716L133.662 29.2013C134.084 28.3716 134.869 28.1011 135.693 28.1011C136.843 28.1011 138.011 28.7963 138.03 30.0314V30.1857C137.628 29.9541 136.766 29.6067 135.712 29.6067C133.586 29.6067 131.421 30.7837 131.421 32.9841C131.421 34.9913 133.165 36.2845 135.118 36.2845C136.613 36.2845 137.436 35.609 137.954 34.8179H138.03V35.9757H140.175V30.224C140.175 27.5611 138.203 26.0747 135.655 26.0747ZM121.919 28.229H118.758V23.0869H121.919C123.581 23.0869 124.524 24.4729 124.524 25.6579C124.524 26.8205 123.581 28.229 121.919 28.229ZM121.862 20.999H116.537V36.0005H118.758V30.3169H121.862C124.325 30.3169 126.747 28.5201 126.747 25.6579C126.747 22.7958 124.325 20.999 121.862 20.999ZM92.8216 34.2994C91.2861 34.2994 90.0006 33.0042 90.0006 31.2253C90.0006 29.4277 91.2861 28.1129 92.8216 28.1129C94.3375 28.1129 95.5272 29.4277 95.5272 31.2253C95.5272 33.0042 94.3375 34.2994 92.8216 34.2994H92.8216ZM95.3736 27.2429H95.2969C94.7981 26.6437 93.8382 26.1024 92.6295 26.1024C90.0965 26.1024 87.7747 28.3449 87.7747 31.2253C87.7747 34.0866 90.0964 36.3099 92.6295 36.3099C93.8382 36.3099 94.7981 35.7684 95.2969 35.1501H95.3736V35.8847C95.3736 37.8376 94.3375 38.8814 92.6681 38.8814C91.3056 38.8814 90.4613 37.8952 90.1155 37.064L88.1777 37.876C88.7342 39.2292 90.2118 40.8919 92.6681 40.8919C95.2778 40.8919 97.4846 39.345 97.4846 35.5753V26.4118H95.3736V27.2429ZM99.0196 36.0005H101.246V20.9985H99.0196V36.0005ZM104.527 31.0514C104.469 29.0793 106.043 28.0743 107.175 28.0743C108.058 28.0743 108.806 28.5187 109.055 29.1573L104.527 31.0514ZM111.435 29.3503C111.013 28.2093 109.727 26.1024 107.098 26.1024C104.488 26.1024 102.32 28.1709 102.32 31.2061C102.32 34.0674 104.469 36.3099 107.348 36.3099C109.67 36.3099 111.013 34.8792 111.57 34.048L109.843 32.8879C109.267 33.7387 108.48 34.2994 107.348 34.2994C106.216 34.2994 105.41 33.7772 104.891 32.7529L111.665 29.9302L111.435 29.3503ZM57.468 27.6684V29.8336H62.6106C62.4571 31.0514 62.0541 31.9407 61.4399 32.5593C60.6918 33.3136 59.5212 34.1447 57.4679 34.1447C54.3016 34.1447 51.8264 31.5735 51.8264 28.3837C51.8264 25.1939 54.3016 22.6224 57.468 22.6224C59.1759 22.6224 60.4229 23.2992 61.3441 24.1692L62.86 22.642C61.5745 21.4045 59.8664 20.4573 57.468 20.4573C53.131 20.4573 49.4851 24.0145 49.4851 28.3837C49.4851 32.7529 53.131 36.3099 57.468 36.3099C59.8092 36.3099 61.5745 35.5369 62.9559 34.0866C64.376 32.6559 64.8175 30.6455 64.8175 29.0217C64.8175 28.5187 64.7793 28.0551 64.7021 27.6684H57.468ZM70.6642 34.2994C69.1287 34.2994 67.8046 33.0234 67.8046 31.2061C67.8046 29.3695 69.1287 28.1129 70.6642 28.1129C72.199 28.1129 73.5232 29.3695 73.5232 31.2061C73.5232 33.0234 72.199 34.2994 70.6642 34.2994ZM70.6642 26.1024C67.8622 26.1024 65.5786 28.2482 65.5786 31.2061C65.5786 34.1447 67.8622 36.3099 70.6642 36.3099C73.4655 36.3099 75.7491 34.1447 75.7491 31.2061C75.7491 28.2482 73.4655 26.1024 70.6642 26.1024ZM81.7572 34.2994C80.2224 34.2994 78.8981 33.0234 78.8981 31.2061C78.8981 29.3695 80.2224 28.1129 81.7572 28.1129C83.2922 28.1129 84.6164 29.3695 84.6164 31.2061C84.6164 33.0234 83.2922 34.2994 81.7572 34.2994H81.7572ZM81.7572 26.1024C78.9554 26.1024 76.6723 28.2482 76.6723 31.2061C76.6723 34.1447 78.9554 36.3099 81.7572 36.3099C84.5587 36.3099 86.8424 34.1447 86.8424 31.2061C86.8424 28.2482 84.5587 26.1024 81.7572 26.1024H81.7572Z" fill="#5A81EA"/>
<path d="M13.1168 9.13407C12.7171 9.4974 12.4785 10.1034 12.4785 10.9079V10.726V37.2713V37.0965C12.4785 37.8394 12.6832 38.4131 13.0298 38.7826L13.1182 38.8679V38.8683C13.3988 39.1233 13.7585 39.2587 14.1708 39.2583C14.5736 39.2583 15.0268 39.1289 15.5051 38.8557L32.7944 28.959L38.7331 25.5591C39.4873 25.1274 39.9108 24.5706 39.9815 24.0033V24.001C39.9108 23.4325 39.4873 22.876 38.7331 22.4443L32.7939 19.0448L15.5052 9.14809C15.0259 8.8744 14.5723 8.74453 14.1684 8.74453C13.7566 8.74453 13.3974 8.87952 13.1169 9.13407H13.1168Z" fill="#00C1FF"/>
<path d="M13.123 38.8676L13.0345 38.7823C12.6879 38.4128 12.4833 37.8391 12.4833 37.0962V37.271V10.7323V10.9075C12.4833 10.1031 12.7219 9.49709 13.1216 9.13376L27.8792 24.0012L13.123 38.8676Z" fill="#5A81EA"/>
<path d="M32.7935 28.957L27.8737 23.9996L32.7931 19.043L38.7323 22.4423C39.4865 22.8741 39.91 23.4305 39.9807 23.9991V24.0014C39.91 24.5686 39.4865 25.1256 38.7323 25.5572L32.7936 28.957" fill="#5A81EA"/>
<path d="M14.1741 39.2578C13.7619 39.2582 13.4022 39.1227 13.1217 38.8677V38.8674L27.8779 24.0009L32.7978 28.9583L15.5085 38.8552C15.0302 39.1284 14.577 39.2578 14.1741 39.2578Z" fill="#5A81EA"/>
<path d="M27.8747 24.0012L13.1171 9.13382C13.3976 8.87927 13.7568 8.74428 14.1686 8.74428C14.5725 8.74428 15.0261 8.87409 15.5054 9.14784L32.7941 19.0446L27.8747 24.0012" fill="#5A81EA"/>
<path d="M14.174 39.4336C13.7617 39.4336 13.4015 39.2981 13.121 39.0431L13.1205 39.0436C13.1194 39.0424 13.1181 39.0413 13.1168 39.0403L13.0401 38.9648C13.0377 38.9625 13.0354 38.9597 13.0326 38.957L13.1211 38.8678C13.4016 39.1228 13.7613 39.2583 14.1736 39.2578C14.5764 39.2578 15.0296 39.1285 15.5079 38.8552L32.7971 28.9584L32.9079 29.0701L32.7958 29.1342L15.5079 39.0305C15.072 39.2794 14.6573 39.4092 14.2828 39.4308C14.2465 39.4326 14.2103 39.4335 14.174 39.4335" fill="#5A81EA"/>
<path d="M13.0289 38.9566C12.6828 38.5872 12.4785 38.0139 12.4785 37.2705V37.0957C12.4785 37.8386 12.6828 38.4123 13.0289 38.7818L13.1172 38.8671L13.0289 38.9566Z" fill="#5A81EA"/>
<path d="M32.905 29.0706L32.7942 28.959L38.7329 25.5592C39.4872 25.1276 39.9106 24.5706 39.9814 24.0034C39.9814 24.2116 39.9353 24.4197 39.8437 24.6223C39.6589 25.0305 39.2886 25.4163 38.733 25.7345L32.905 29.0707" fill="url(#paint0_linear_3827_3438)"/>
<path d="M39.9819 24.0012C39.9111 23.4326 39.4877 22.8762 38.7335 22.4444L32.7942 19.045L32.905 18.9333H32.9054L38.7335 22.2695C39.565 22.7458 39.9814 23.3734 39.9819 24.0012Z" fill="url(#paint1_linear_3827_3438)"/>
<path d="M12.4785 10.9066V10.7233C12.4785 10.6572 12.4803 10.5925 12.4837 10.5297V10.5269C12.4837 10.526 12.4837 10.5251 12.484 10.5241V10.517C12.5198 9.87714 12.7167 9.378 13.0289 9.04471L13.1158 9.13278C12.7167 9.49617 12.4785 10.1022 12.4785 10.9066Z" fill="url(#paint2_linear_3827_3438)"/>
<path d="M32.7967 19.0441L15.5079 9.14729C15.0286 8.87359 14.5751 8.74378 14.1712 8.74378C13.7594 8.74378 13.4001 8.87877 13.1197 9.13333L13.0326 9.0452C13.0598 9.0162 13.088 8.98823 13.1173 8.96134C13.1182 8.96037 13.1197 8.9594 13.1206 8.95848C13.3989 8.70587 13.7543 8.57088 14.1624 8.56845H14.1712C14.5751 8.56845 15.0286 8.69832 15.5079 8.97213L32.908 18.9321L32.9075 18.9325L32.7967 19.0441Z" fill="url(#paint3_linear_3827_3438)"/>
</g>
<defs>
<linearGradient id="paint0_linear_3827_3438" x1="40.9003" y1="24.0023" x2="12.0789" y2="24.0023" gradientUnits="userSpaceOnUse">
<stop stop-color="#E0C500"/>
<stop offset="0.4087" stop-color="#E0A600"/>
<stop offset="0.7754" stop-color="#E09100"/>
<stop offset="1" stop-color="#E08900"/>
</linearGradient>
<linearGradient id="paint1_linear_3827_3438" x1="40.9009" y1="24.0024" x2="12.0794" y2="24.0024" gradientUnits="userSpaceOnUse">
<stop stop-color="#FFE840"/>
<stop offset="0.4087" stop-color="#FFCE40"/>
<stop offset="0.7754" stop-color="#FFBC40"/>
<stop offset="1" stop-color="#FFB540"/>
</linearGradient>
<linearGradient id="paint2_linear_3827_3438" x1="14.4291" y1="10.4713" x2="3.57816" y2="20.7917" gradientUnits="userSpaceOnUse">
<stop stop-color="#40B8FF"/>
<stop offset="0.00657" stop-color="#40B9FF"/>
<stop offset="0.2601" stop-color="#40CEFF"/>
<stop offset="0.5122" stop-color="#40DDFF"/>
<stop offset="0.7604" stop-color="#40E7FF"/>
<stop offset="1" stop-color="#40EAFF"/>
</linearGradient>
<linearGradient id="paint3_linear_3827_3438" x1="9.29463" y1="10.0733" x2="17.0466" y2="17.7929" gradientUnits="userSpaceOnUse">
<stop stop-color="#65B895"/>
<stop offset="0.0685" stop-color="#62BD95"/>
<stop offset="0.4762" stop-color="#50DB97"/>
<stop offset="0.8009" stop-color="#44ED98"/>
<stop offset="1" stop-color="#40F498"/>
</linearGradient>
<clipPath id="clip0_3827_3438">
<rect width="160.8" height="48" fill="white" transform="translate(0.599976)"/>
</clipPath>
</defs>
</svg>
