<svg width="22" height="12" viewBox="0 0 22 12" fill="none" xmlns="http://www.w3.org/2000/svg">
<path fill-rule="evenodd" clip-rule="evenodd" d="M21.4954 0.812571C21.6475 0.344571 21.4954 0 20.7666 0H18.3604C17.7481 0 17.4658 0.297429 17.3127 0.625714C17.3127 0.625714 16.089 3.36514 14.3556 5.14457C13.7946 5.66057 13.5398 5.82429 13.2336 5.82429C13.0806 5.82429 12.8505 5.66057 12.8505 5.19171V0.812571C12.8505 0.250286 12.6818 0 12.1722 0H8.38824C8.006 0 7.77592 0.260571 7.77592 0.508286C7.77592 1.04057 8.64307 1.164 8.73198 2.66229V5.91771C8.73198 6.63171 8.59174 6.76114 8.28558 6.76114C7.46976 6.76114 5.48522 4.00886 4.30733 0.859714C4.07908 0.246857 3.84809 0 3.23302 0H0.824983C0.137497 0 0 0.297429 0 0.625714C0 1.21029 0.815816 4.11429 3.7995 7.95514C5.78863 10.578 8.58899 12 11.14 12C12.6699 12 12.8587 11.6846 12.8587 11.1403V9.15771C12.8587 8.526 13.0036 8.4 13.4885 8.4C13.846 8.4 14.4574 8.56457 15.8855 9.82886C17.5171 11.328 17.7857 12 18.7042 12H21.1104C21.7979 12 22.1425 11.6846 21.9445 11.0606C21.7264 10.44 20.9472 9.53914 19.9142 8.47029C19.3532 7.86171 18.5117 7.206 18.256 6.87771C17.8994 6.45686 18.0011 6.26914 18.256 5.89457C18.256 5.89457 21.1892 2.10086 21.4945 0.812571H21.4954Z" fill="white"/>
</svg>
