<svg width="42" height="42" viewBox="0 0 42 42" fill="none" xmlns="http://www.w3.org/2000/svg">
<path d="M41.4242 21C41.4242 32.28 32.28 41.4242 21 41.4242C9.72001 41.4242 0.575758 32.28 0.575758 21C0.575758 9.72 9.72001 0.575758 21 0.575758C32.28 0.575758 41.4242 9.72 41.4242 21Z" stroke="#5A81EA" stroke-width="1.15152"/>
<path d="M18.6989 16.5558H8.48288C8.35662 16.5558 8.25415 16.4534 8.25415 16.3271V15.1828C8.25415 15.0566 8.35662 14.9541 8.48288 14.9541H18.6989C18.8252 14.9541 18.9277 15.0566 18.9277 15.1828V16.3271C18.9277 16.4534 18.8252 16.5558 18.6989 16.5558Z" fill="#5A81EA"/>
<path d="M34.2029 16.5558H23.9868C23.8605 16.5558 23.7581 16.4534 23.7581 16.3271V15.1828C23.7581 15.0566 23.8605 14.9541 23.9868 14.9541H34.2029C34.3291 14.9541 34.4316 15.0566 34.4316 15.1828V16.3271C34.4316 16.4534 34.3291 16.5558 34.2029 16.5558Z" fill="#5A81EA"/>
<path d="M18.6989 28.5695H8.48288C8.35662 28.5695 8.25415 28.467 8.25415 28.3408V27.1965C8.25415 27.0702 8.35662 26.9678 8.48288 26.9678H18.6989C18.8252 26.9678 18.9277 27.0702 18.9277 27.1965V28.3408C18.9277 28.467 18.8252 28.5695 18.6989 28.5695Z" fill="#5A81EA"/>
<path d="M34.2029 28.5695H23.9868C23.8605 28.5695 23.7581 28.467 23.7581 28.3408V27.1965C23.7581 27.0702 23.8605 26.9678 23.9868 26.9678H34.2029C34.3291 26.9678 34.4316 27.0702 34.4316 27.1965V28.3408C34.4316 28.467 34.3291 28.5695 34.2029 28.5695Z" fill="#5A81EA"/>
<path d="M21.7168 13.5383H20.5725C20.4462 13.5383 20.3438 13.4358 20.3438 13.3096V4.25608C20.3438 4.12982 20.4462 4.02734 20.5725 4.02734H21.7168C21.843 4.02734 21.9455 4.12982 21.9455 4.25608V13.3102C21.9455 13.4358 21.843 13.5383 21.7168 13.5383Z" fill="#5A81EA"/>
<path d="M21.8088 25.809H20.6645C20.5383 25.809 20.4358 25.7066 20.4358 25.5803V18.1462C20.4358 18.02 20.5383 17.9175 20.6645 17.9175H21.8088C21.9351 17.9175 22.0375 18.02 22.0375 18.1462V25.5803C22.0375 25.7066 21.9351 25.809 21.8088 25.809Z" fill="#5A81EA"/>
<path d="M21.8088 39.054H20.6645C20.5383 39.054 20.4358 38.9515 20.4358 38.8253V30.2292C20.4358 30.103 20.5383 30.0005 20.6645 30.0005H21.8088C21.9351 30.0005 22.0375 30.103 22.0375 30.2292V38.8253C22.0375 38.9515 21.9351 39.054 21.8088 39.054Z" fill="#5A81EA"/>
</svg>
