<svg width="42" height="42" viewBox="0 0 42 42" fill="none" xmlns="http://www.w3.org/2000/svg">
<path d="M41.4242 21C41.4242 32.28 32.28 41.4242 21 41.4242C9.72 41.4242 0.575758 32.28 0.575758 21C0.575758 9.72 9.72 0.575758 21 0.575758C32.28 0.575758 41.4242 9.72 41.4242 21Z" stroke="#5A81EA" stroke-width="1.15152"/>
<path d="M10.9725 14.7267H5.33225C5.20599 14.7267 5.10352 14.6243 5.10352 14.498V13.3537C5.10352 13.2275 5.20599 13.125 5.33225 13.125H10.9725C11.0987 13.125 11.2012 13.2275 11.2012 13.3537V14.498C11.2012 14.6243 11.0987 14.7267 10.9725 14.7267Z" fill="#5A81EA"/>
<path d="M26.4691 14.7267H16.2524C16.1262 14.7267 16.0237 14.6243 16.0237 14.498V13.3537C16.0237 13.2275 16.1262 13.125 16.2524 13.125H26.4685C26.5947 13.125 26.6972 13.2275 26.6972 13.3537V14.498C26.6978 14.6243 26.5954 14.7267 26.4691 14.7267Z" fill="#5A81EA"/>
<path d="M10.9725 29.027H5.33225C5.20599 29.027 5.10352 28.9246 5.10352 28.7983V27.654C5.10352 27.5278 5.20599 27.4253 5.33225 27.4253H10.9725C11.0987 27.4253 11.2012 27.5278 11.2012 27.654V28.7983C11.2012 28.9246 11.0987 29.027 10.9725 29.027Z" fill="#5A81EA"/>
<path d="M26.4691 29.027H16.2524C16.1262 29.027 16.0237 28.9246 16.0237 28.7983V27.654C16.0237 27.5278 16.1262 27.4253 16.2524 27.4253H26.4685C26.5947 27.4253 26.6972 27.5278 26.6972 27.654V28.7983C26.6978 28.9246 26.5954 29.027 26.4691 29.027Z" fill="#5A81EA"/>
<path d="M13.9909 11.7061H12.8467C12.7204 11.7061 12.6179 11.6036 12.6179 11.4773V6.54221C12.6179 6.41595 12.7204 6.31348 12.8467 6.31348H13.9909C14.1172 6.31348 14.2197 6.41595 14.2197 6.54221V11.4773C14.2197 11.6036 14.1172 11.7061 13.9909 11.7061Z" fill="#5A81EA"/>
<path d="M14.073 26.2674H12.9287C12.8024 26.2674 12.7 26.1649 12.7 26.0386V16.3166C12.7 16.1904 12.8024 16.0879 12.9287 16.0879H14.073C14.1992 16.0879 14.3017 16.1904 14.3017 16.3166V26.0386C14.3023 26.1649 14.1998 26.2674 14.073 26.2674Z" fill="#5A81EA"/>
<path d="M14.073 36.7656H12.9287C12.8024 36.7656 12.7 36.6632 12.7 36.5369V30.6863C12.7 30.56 12.8024 30.4575 12.9287 30.4575H14.073C14.1992 30.4575 14.3017 30.56 14.3017 30.6863V36.5369C14.3023 36.6632 14.1998 36.7656 14.073 36.7656Z" fill="#5A81EA"/>
<path d="M10.9725 14.7267H5.33225C5.20599 14.7267 5.10352 14.6243 5.10352 14.498V13.3537C5.10352 13.2275 5.20599 13.125 5.33225 13.125H10.9725C11.0987 13.125 11.2012 13.2275 11.2012 13.3537V14.498C11.2012 14.6243 11.0987 14.7267 10.9725 14.7267Z" fill="#5A81EA"/>
<path d="M10.9725 29.027H5.33225C5.20599 29.027 5.10352 28.9246 5.10352 28.7983V27.654C5.10352 27.5278 5.20599 27.4253 5.33225 27.4253H10.9725C11.0987 27.4253 11.2012 27.5278 11.2012 27.654V28.7983C11.2012 28.9246 11.0987 29.027 10.9725 29.027Z" fill="#5A81EA"/>
<path d="M36.5911 14.7267H30.9509C30.8246 14.7267 30.7222 14.6243 30.7222 14.498V13.3537C30.7222 13.2275 30.8246 13.125 30.9509 13.125H36.5911C36.7174 13.125 36.8199 13.2275 36.8199 13.3537V14.498C36.8199 14.6243 36.7174 14.7267 36.5911 14.7267Z" fill="#5A81EA"/>
<path d="M36.5911 29.027H30.9509C30.8246 29.027 30.7222 28.9246 30.7222 28.7983V27.654C30.7222 27.5278 30.8246 27.4253 30.9509 27.4253H36.5911C36.7174 27.4253 36.8199 27.5278 36.8199 27.654V28.7983C36.8199 28.9246 36.7174 29.027 36.5911 29.027Z" fill="#5A81EA"/>
<path d="M36.5911 14.7267H30.9509C30.8246 14.7267 30.7222 14.6243 30.7222 14.498V13.3537C30.7222 13.2275 30.8246 13.125 30.9509 13.125H36.5911C36.7174 13.125 36.8199 13.2275 36.8199 13.3537V14.498C36.8199 14.6243 36.7174 14.7267 36.5911 14.7267Z" fill="#5A81EA"/>
<path d="M36.5911 29.027H30.9509C30.8246 29.027 30.7222 28.9246 30.7222 28.7983V27.654C30.7222 27.5278 30.8246 27.4253 30.9509 27.4253H36.5911C36.7174 27.4253 36.8199 27.5278 36.8199 27.654V28.7983C36.8199 28.9246 36.7174 29.027 36.5911 29.027Z" fill="#5A81EA"/>
<path d="M13.9909 11.7061H12.8467C12.7204 11.7061 12.6179 11.6036 12.6179 11.4773V6.54221C12.6179 6.41595 12.7204 6.31348 12.8467 6.31348H13.9909C14.1172 6.31348 14.2197 6.41595 14.2197 6.54221V11.4773C14.2197 11.6036 14.1172 11.7061 13.9909 11.7061Z" fill="#5A81EA"/>
<path d="M14.073 26.2674H12.9287C12.8024 26.2674 12.7 26.1649 12.7 26.0386V16.3166C12.7 16.1904 12.8024 16.0879 12.9287 16.0879H14.073C14.1992 16.0879 14.3017 16.1904 14.3017 16.3166V26.0386C14.3023 26.1649 14.1998 26.2674 14.073 26.2674Z" fill="#5A81EA"/>
<path d="M14.073 36.7656H12.9287C12.8024 36.7656 12.7 36.6632 12.7 36.5369V30.6863C12.7 30.56 12.8024 30.4575 12.9287 30.4575H14.073C14.1992 30.4575 14.3017 30.56 14.3017 30.6863V36.5369C14.3023 36.6632 14.1998 36.7656 14.073 36.7656Z" fill="#5A81EA"/>
<path d="M29.0847 11.7061H27.9404C27.8141 11.7061 27.7117 11.6036 27.7117 11.4773V6.54221C27.7117 6.41595 27.8141 6.31348 27.9404 6.31348H29.0847C29.2109 6.31348 29.3134 6.41595 29.3134 6.54221V11.4773C29.3134 11.6036 29.2109 11.7061 29.0847 11.7061Z" fill="#5A81EA"/>
<path d="M29.1843 26.2674H28.04C27.9138 26.2674 27.8113 26.1649 27.8113 26.0386V16.3166C27.8113 16.1904 27.9138 16.0879 28.04 16.0879H29.1843C29.3105 16.0879 29.413 16.1904 29.413 16.3166V26.0386C29.413 26.1649 29.3105 26.2674 29.1843 26.2674Z" fill="#5A81EA"/>
<path d="M29.1843 36.7656H28.04C27.9138 36.7656 27.8113 36.6632 27.8113 36.5369V30.6863C27.8113 30.56 27.9138 30.4575 28.04 30.4575H29.1843C29.3105 30.4575 29.413 30.56 29.413 30.6863V36.5369C29.413 36.6632 29.3105 36.7656 29.1843 36.7656Z" fill="#5A81EA"/>
<path d="M29.0847 11.7061H27.9404C27.8141 11.7061 27.7117 11.6036 27.7117 11.4773V6.54221C27.7117 6.41595 27.8141 6.31348 27.9404 6.31348H29.0847C29.2109 6.31348 29.3134 6.41595 29.3134 6.54221V11.4773C29.3134 11.6036 29.2109 11.7061 29.0847 11.7061Z" fill="#5A81EA"/>
<path d="M29.1843 26.2674H28.04C27.9138 26.2674 27.8113 26.1649 27.8113 26.0386V16.3166C27.8113 16.1904 27.9138 16.0879 28.04 16.0879H29.1843C29.3105 16.0879 29.413 16.1904 29.413 16.3166V26.0386C29.413 26.1649 29.3105 26.2674 29.1843 26.2674Z" fill="#5A81EA"/>
<path d="M29.1843 36.7656H28.04C27.9138 36.7656 27.8113 36.6632 27.8113 36.5369V30.6863C27.8113 30.56 27.9138 30.4575 28.04 30.4575H29.1843C29.3105 30.4575 29.413 30.56 29.413 30.6863V36.5369C29.413 36.6632 29.3105 36.7656 29.1843 36.7656Z" fill="#5A81EA"/>
</svg>
