<svg width="42" height="42" viewBox="0 0 42 42" fill="none" xmlns="http://www.w3.org/2000/svg">
<path d="M41.4242 21C41.4242 32.28 32.28 41.4242 21 41.4242C9.72 41.4242 0.575758 32.28 0.575758 21C0.575758 9.72 9.72 0.575758 21 0.575758C32.28 0.575758 41.4242 9.72 41.4242 21Z" stroke="#5A81EA" stroke-width="1.15152"/>
<path d="M21.4184 18.6046H20.2741C20.1479 18.6046 20.0454 18.5021 20.0454 18.3759V4.85324C20.0454 4.72698 20.1479 4.62451 20.2741 4.62451H21.4184C21.5447 4.62451 21.6471 4.72698 21.6471 4.85324V18.3759C21.6471 18.5021 21.5447 18.6046 21.4184 18.6046Z" fill="#5A81EA"/>
<path d="M21.4184 37.3663H20.2741C20.1479 37.3663 20.0454 37.2638 20.0454 37.1376V23.615C20.0454 23.4887 20.1479 23.3862 20.2741 23.3862H21.4184C21.5447 23.3862 21.6471 23.4887 21.6471 23.615V37.1376C21.6471 37.2638 21.5447 37.3663 21.4184 37.3663Z" fill="#5A81EA"/>
<path d="M17.7626 21.7946H5.61301C5.48675 21.7946 5.38428 21.6921 5.38428 21.5659V20.4216C5.38428 20.2953 5.48675 20.1929 5.61301 20.1929H17.7626C17.8889 20.1929 17.9914 20.2953 17.9914 20.4216V21.5659C17.9914 21.6927 17.8889 21.7946 17.7626 21.7946Z" fill="#5A81EA"/>
<path d="M36.0707 21.7946H23.9211C23.7949 21.7946 23.6924 21.6921 23.6924 21.5659V20.4216C23.6924 20.2953 23.7949 20.1929 23.9211 20.1929H36.0707C36.197 20.1929 36.2995 20.2953 36.2995 20.4216V21.5659C36.2995 21.6927 36.197 21.7946 36.0707 21.7946Z" fill="#5A81EA"/>
<path d="M17.1836 18.4677L9.23964 10.5237C9.15059 10.434 9.15059 10.2894 9.23964 10.1998L10.0484 9.39098C10.1375 9.30131 10.2827 9.30131 10.3723 9.39098L18.3163 17.335C18.406 17.4246 18.406 17.5692 18.3163 17.6589L17.5075 18.4677C17.4179 18.5573 17.2727 18.5573 17.1836 18.4677Z" fill="#5A81EA"/>
<path d="M31.3223 32.5946L23.3783 24.6506C23.2893 24.5609 23.2893 24.4164 23.3783 24.3267L24.1871 23.5179C24.2762 23.4283 24.4213 23.4283 24.511 23.5179L32.455 31.4619C32.5447 31.5516 32.5447 31.6962 32.455 31.7858L31.6462 32.5946C31.5565 32.6843 31.4114 32.6843 31.3223 32.5946Z" fill="#5A81EA"/>
<path d="M10.0484 32.5946L9.23964 31.7858C9.15059 31.6962 9.15059 31.5516 9.23964 31.4619L17.1836 23.5179C17.2733 23.4283 17.4179 23.4283 17.5075 23.5179L18.3163 24.3267C18.406 24.4164 18.406 24.5609 18.3163 24.6506L10.3723 32.5946C10.2827 32.6843 10.1381 32.6843 10.0484 32.5946Z" fill="#5A81EA"/>
<path d="M24.1871 18.4677L23.3783 17.6589C23.2893 17.5692 23.2893 17.4246 23.3783 17.335L31.3223 9.39098C31.412 9.30131 31.5565 9.30131 31.6462 9.39098L32.455 10.1998C32.5447 10.2888 32.5447 10.434 32.455 10.5237L24.511 18.4677C24.4213 18.5573 24.2768 18.5573 24.1871 18.4677Z" fill="#5A81EA"/>
</svg>
