<svg width="142" height="148" viewBox="0 0 142 148" fill="none" xmlns="http://www.w3.org/2000/svg">
<circle opacity="0.2" cx="92.3456" cy="92.3457" r="71.2299" transform="rotate(-20.5517 92.3456 92.3457)" stroke="#5A81EA" stroke-opacity="0.8"/>
<path d="M116.669 60.9174L103.487 65.8594C103.94 63.3728 103.751 60.6942 102.783 58.1125C100.075 50.8895 92.344 47.0868 85.5478 49.6348C81.8506 51.021 79.1742 54.0163 77.9467 57.6159C74.6553 55.7105 70.6694 55.2129 66.9722 56.5991C60.176 59.1471 56.8506 67.0948 59.5587 74.3178C60.5266 76.8995 62.1359 79.0458 64.1209 80.6183L50.9394 85.5602C49.3587 86.1529 48.5904 87.9889 49.2203 89.6689L56.3373 108.652C56.4938 109.069 56.9434 109.291 57.3364 109.143L60.9086 107.804L73.1498 140.455C73.7797 142.135 75.5656 143.013 77.1463 142.42L134.302 120.992C135.883 120.399 136.651 118.563 136.021 116.883L123.78 84.2326L127.352 82.8934C127.745 82.746 127.939 82.2838 127.782 81.8662L120.665 62.8833C120.035 61.2033 118.249 60.3248 116.669 60.9174ZM84.2071 65.0768C82.8335 61.4131 84.5204 57.3814 87.9676 56.089C91.4148 54.7966 95.3364 56.7256 96.71 60.3893C98.0835 64.053 96.3967 68.0846 92.9495 69.377L86.6981 71.7208L84.2071 65.0768ZM69.3919 63.0533C72.8392 61.7609 76.7607 63.6898 78.1343 67.3535L80.6252 73.9976L74.3738 76.3413C70.9266 77.6337 67.005 75.7047 65.6315 72.041C64.2579 68.3773 65.9447 64.3457 69.3919 63.0533ZM60.275 100.68L56.5742 90.8091L83.1874 80.8314L86.8882 90.7025L60.275 100.68ZM66.9814 105.527L89.3079 97.1567L100.268 126.39L77.9416 134.761L66.9814 105.527ZM128.667 115.743L106.341 124.114L95.3808 94.8799L117.707 86.5094L128.667 115.743ZM119.574 78.4481L92.961 88.4258L89.2602 78.5546L115.873 68.577L119.574 78.4481Z" fill="#5A81EA"/>
</svg>
