<svg width="30" height="29" viewBox="0 0 30 29" fill="none" xmlns="http://www.w3.org/2000/svg">
<path d="M15 14.2926C14.0286 14.2926 13.0572 14.1284 12.3 13.8L1.62692 9.1624C1.1387 8.95076 0 8.33164 0 7.16281C0 5.99397 1.1387 5.37623 1.62837 5.16184L12.3938 0.484438C13.8772 -0.161479 16.1156 -0.161479 17.5998 0.484438L28.3716 5.16184C28.8613 5.37417 30 5.99329 30 7.16281C30 8.33233 28.8613 8.94939 28.3716 9.16309L17.6986 13.8C16.9428 14.1284 15.9714 14.2926 15 14.2926Z" fill="white"/>
<path d="M28.3673 12.2868L27.2791 11.8188L24.4832 13.0378L17.7043 15.9926C16.9471 16.3224 15.9736 16.4866 15.0043 16.4866C14.0351 16.4866 13.0623 16.3224 12.3058 15.9926L5.52187 13.0378L2.72524 11.8188L1.62764 12.2889C1.1387 12.5012 0 13.1244 0 14.2926C0 15.4607 1.1387 16.0847 1.62692 16.297L12.3 20.9441C13.0529 21.274 14.0257 21.4389 15 21.4389C15.9743 21.4389 16.9428 21.274 17.7 20.9448L28.3637 16.299C28.8548 16.0867 30 15.4669 30 14.2926C30 13.1182 28.8627 12.5012 28.3673 12.2868Z" fill="white"/>
<path d="M28.3673 19.4326L27.2791 18.9653L24.4832 20.1836L17.7043 23.1349C16.9471 23.4634 15.9736 23.6283 15.0043 23.6283C14.0351 23.6283 13.0623 23.4641 12.3058 23.1349L5.52187 20.1802L2.72524 18.9653L1.62764 19.4353C1.1387 19.6477 0 20.2709 0 21.4391C0 22.6072 1.1387 23.2304 1.62692 23.4421L12.3 28.0865C13.0529 28.415 14.0293 28.5854 15 28.5854C15.9707 28.5854 16.9385 28.415 17.6957 28.0858L28.363 23.4428C28.8548 23.2311 30 22.6113 30 21.4391C30 20.2668 28.8627 19.6477 28.3673 19.4326Z" fill="white"/>
</svg>
