<svg width="91" height="35" viewBox="0 0 91 35" fill="none" xmlns="http://www.w3.org/2000/svg">
<path d="M61.5262 0H57.8682C57.2086 0 56.6389 0.535716 56.6389 1.22024V33.0655C56.6389 33.7202 57.1786 34.2857 57.8682 34.2857H61.5262C62.1859 34.2857 62.7555 33.75 62.7555 33.0655V1.22024C62.7555 0.535716 62.1859 0 61.5262 0Z" fill="white"/>
<path d="M29.8936 9.73193C29.4738 9.31527 28.7842 9.31527 28.3944 9.73193L25.9658 12.1426C25.546 12.5593 25.546 13.2438 25.9658 13.6307L32.772 20.3867C33.1918 20.8034 33.8814 20.8034 34.2712 20.3867L36.6999 17.976C37.1196 17.5593 37.1196 16.8748 36.6999 16.4879L29.8936 9.73193Z" fill="white"/>
<path d="M43.806 23.5415C43.3862 23.1248 42.6966 23.1248 42.3068 23.5415L39.8781 25.9522C39.4584 26.3689 39.4584 27.0534 39.8781 27.4403L46.6844 34.1963C47.1042 34.6129 47.7938 34.6129 48.1836 34.1963L50.6122 31.7855C51.032 31.3689 51.032 30.6844 50.6122 30.2975L43.806 23.5415Z" fill="white"/>
<path d="M48.1836 9.73193C47.7638 9.31527 47.0742 9.31527 46.6844 9.73193L39.8482 16.5176C39.4284 16.9343 39.4284 17.6188 39.8482 18.0057L42.2768 20.4165C42.6966 20.8331 43.3862 20.8331 43.776 20.4165L50.6122 13.6307C51.032 13.2141 51.032 12.5295 50.6122 12.1426L48.1836 9.73193Z" fill="white"/>
<path d="M34.2412 23.5713C33.8214 23.1546 33.1318 23.1546 32.742 23.5713L25.9658 30.2975C25.546 30.7141 25.546 31.3987 25.9658 31.7856L28.3944 34.1963C28.8142 34.6129 29.5038 34.6129 29.8936 34.1963L36.6699 27.4701C37.0896 27.0534 37.0896 26.3689 36.6699 25.982L34.2412 23.5713Z" fill="white"/>
<path d="M87.7618 12.3214C85.603 10.3571 82.9044 9.375 79.6662 9.375C76.428 9.375 73.7295 10.3571 71.5707 12.3214C69.4119 14.2857 68.3624 16.6369 68.3624 19.375V25C68.3624 27.7381 69.4418 30.0893 71.5707 32.0536C73.7295 34.0179 76.398 35 79.6662 35C81.3753 35 82.9044 34.8214 84.2837 34.4643C85.6629 34.1071 86.7423 33.6607 87.5519 33.0952C88.3614 32.5595 88.9611 31.9643 89.3809 31.369C89.8007 30.7738 90.0105 30.1786 90.0105 29.6131C90.0105 29.0179 89.8006 28.4821 89.3509 28.0655C88.9011 27.6488 88.3914 27.4107 87.7917 27.4107C87.252 27.4107 86.7723 27.5 86.3525 27.6786C85.9028 27.8571 85.513 28.0952 85.1532 28.3631C84.7934 28.6309 84.3736 28.8988 83.9539 29.1667C83.5341 29.4345 82.9344 29.6429 82.2148 29.8214C81.4952 30 80.6557 30.0893 79.6962 30.0893C78.1071 30.0893 76.8178 29.6131 75.7983 28.631C74.7789 27.6488 74.2992 26.4286 74.2992 24.9702V24.256H74.3292V19.6429H74.2992C74.2992 18.0655 74.8089 16.7559 75.7983 15.744C76.7878 14.7321 78.1071 14.2559 79.6962 14.2559C81.2853 14.2559 82.6046 14.7619 83.6241 15.744C84.6435 16.7559 85.1232 18.0357 85.1232 19.6429H78.6768C78.0471 19.6429 77.5674 20.1488 77.5674 20.7441V23.1548C77.5674 23.7798 78.0771 24.256 78.6768 24.256H88.0616C88.9011 24.256 89.6208 23.9881 90.1605 23.4821C90.7002 22.9762 91 22.3512 91 21.5774V19.375C90.97 16.6369 89.9206 14.2857 87.7618 12.3214Z" fill="white"/>
<path d="M21.6481 21.1905V18.8988C21.6481 16.2798 20.6287 14.0476 18.5898 12.1726C16.5509 10.3274 13.9723 9.375 10.8241 9.375C9.4748 9.375 8.21549 9.58333 6.98617 9.97024C5.78683 10.3571 4.79737 10.8631 4.0178 11.4583C3.23823 12.0536 2.63855 12.7083 2.15882 13.3631C1.70906 14.0179 1.4692 14.6429 1.4692 15.2083C1.4692 15.8333 1.70906 16.3393 2.15882 16.7559C2.60857 17.1726 3.20824 17.381 3.95783 17.381C4.52752 17.381 5.03724 17.2619 5.48699 17.0536C5.93674 16.8452 6.32653 16.5774 6.62636 16.25C6.9262 15.9226 7.25602 15.625 7.58584 15.2976C7.91566 15 8.36541 14.7321 8.90511 14.5238C9.44481 14.3155 10.0745 14.1964 10.7941 14.1964C12.2633 14.1964 13.4626 14.6131 14.3621 15.4762C15.2616 16.3393 15.7114 17.4405 15.7114 18.8393V19.0476V25.8036V27.381C15.1717 27.9762 14.632 28.4821 14.0623 28.869C12.5931 29.8512 11.0939 30.3274 9.56475 30.3274C8.36541 30.3274 7.4659 30.0595 6.83625 29.5238C6.2066 28.9881 5.90676 28.2738 5.90676 27.381C5.90676 26.369 6.26656 25.5357 6.98617 24.9107C7.70577 24.2857 8.72521 23.9583 10.0745 23.9583H11.1839C11.9035 23.9583 12.5031 23.3631 12.5031 22.6488V20.8929C12.5031 20.1786 11.9035 19.5833 11.1839 19.5833H10.0745C6.95618 19.5833 4.49753 20.3571 2.69852 21.875C0.899506 23.4226 0 25.3274 0 27.619C0 29.6131 0.779579 31.3393 2.36871 32.7679C3.95783 34.1964 5.93674 34.9107 8.33543 34.9107C10.3143 34.9107 12.0534 34.4048 13.5526 33.4226C14.3021 32.9167 14.8718 32.4405 15.2316 31.9643H15.7114C15.7414 32.0536 15.7713 32.1429 15.8013 32.2321V33.1845C15.8013 33.8393 16.341 34.4048 16.9707 34.4048H20.4788C21.1384 34.4048 21.6481 33.869 21.6481 33.1845V21.369C21.7081 21.3988 21.6781 21.2798 21.6481 21.1905Z" fill="white"/>
</svg>
