<svg width="91" height="36" viewBox="0 0 91 36" fill="none" xmlns="http://www.w3.org/2000/svg">
<path d="M61.5262 0.5H57.8682C57.2086 0.5 56.6389 1.03572 56.6389 1.72024V33.5655C56.6389 34.2202 57.1786 34.7857 57.8682 34.7857H61.5262C62.1859 34.7857 62.7555 34.25 62.7555 33.5655V1.72024C62.7555 1.03572 62.1859 0.5 61.5262 0.5Z" fill="#002233"/>
<path d="M29.8936 10.2319C29.4738 9.81527 28.7842 9.81527 28.3944 10.2319L25.9658 12.6426C25.546 13.0593 25.546 13.7438 25.9658 14.1307L32.772 20.8867C33.1918 21.3034 33.8814 21.3034 34.2712 20.8867L36.6999 18.476C37.1196 18.0593 37.1196 17.3748 36.6999 16.9879L29.8936 10.2319Z" fill="#002233"/>
<path d="M43.806 24.0415C43.3862 23.6248 42.6966 23.6248 42.3068 24.0415L39.8781 26.4522C39.4584 26.8689 39.4584 27.5534 39.8781 27.9403L46.6844 34.6963C47.1042 35.1129 47.7938 35.1129 48.1836 34.6963L50.6122 32.2855C51.032 31.8689 51.032 31.1844 50.6122 30.7975L43.806 24.0415Z" fill="#002233"/>
<path d="M48.1836 10.2319C47.7638 9.81527 47.0742 9.81527 46.6844 10.2319L39.8482 17.0176C39.4284 17.4343 39.4284 18.1188 39.8482 18.5057L42.2768 20.9165C42.6966 21.3331 43.3862 21.3331 43.776 20.9165L50.6122 14.1307C51.032 13.7141 51.032 13.0295 50.6122 12.6426L48.1836 10.2319Z" fill="#002233"/>
<path d="M34.2412 24.0713C33.8214 23.6546 33.1318 23.6546 32.742 24.0713L25.9658 30.7975C25.546 31.2141 25.546 31.8987 25.9658 32.2856L28.3944 34.6963C28.8142 35.1129 29.5038 35.1129 29.8936 34.6963L36.6699 27.9701C37.0896 27.5534 37.0896 26.8689 36.6699 26.482L34.2412 24.0713Z" fill="#002233"/>
<path d="M87.7618 12.8214C85.603 10.8571 82.9044 9.875 79.6662 9.875C76.428 9.875 73.7295 10.8571 71.5707 12.8214C69.4119 14.7857 68.3624 17.1369 68.3624 19.875V25.5C68.3624 28.2381 69.4418 30.5893 71.5707 32.5536C73.7295 34.5179 76.398 35.5 79.6662 35.5C81.3753 35.5 82.9044 35.3214 84.2837 34.9643C85.6629 34.6071 86.7423 34.1607 87.5519 33.5952C88.3614 33.0595 88.9611 32.4643 89.3809 31.869C89.8007 31.2738 90.0105 30.6786 90.0105 30.1131C90.0105 29.5179 89.8006 28.9821 89.3509 28.5655C88.9011 28.1488 88.3914 27.9107 87.7917 27.9107C87.252 27.9107 86.7723 28 86.3525 28.1786C85.9028 28.3571 85.513 28.5952 85.1532 28.8631C84.7934 29.1309 84.3736 29.3988 83.9539 29.6667C83.5341 29.9345 82.9344 30.1429 82.2148 30.3214C81.4952 30.5 80.6557 30.5893 79.6962 30.5893C78.1071 30.5893 76.8178 30.1131 75.7983 29.131C74.7789 28.1488 74.2992 26.9286 74.2992 25.4702V24.756H74.3292V20.1429H74.2992C74.2992 18.5655 74.8089 17.2559 75.7983 16.244C76.7878 15.2321 78.1071 14.7559 79.6962 14.7559C81.2853 14.7559 82.6046 15.2619 83.6241 16.244C84.6435 17.2559 85.1232 18.5357 85.1232 20.1429H78.6768C78.0471 20.1429 77.5674 20.6488 77.5674 21.2441V23.6548C77.5674 24.2798 78.0771 24.756 78.6768 24.756H88.0616C88.9011 24.756 89.6208 24.4881 90.1605 23.9821C90.7002 23.4762 91 22.8512 91 22.0774V19.875C90.97 17.1369 89.9206 14.7857 87.7618 12.8214Z" fill="#002233"/>
<path d="M21.6481 21.6905V19.3988C21.6481 16.7798 20.6287 14.5476 18.5898 12.6726C16.5509 10.8274 13.9723 9.875 10.8241 9.875C9.4748 9.875 8.21549 10.0833 6.98617 10.4702C5.78683 10.8571 4.79737 11.3631 4.0178 11.9583C3.23823 12.5536 2.63855 13.2083 2.15882 13.8631C1.70906 14.5179 1.4692 15.1429 1.4692 15.7083C1.4692 16.3333 1.70906 16.8393 2.15882 17.2559C2.60857 17.6726 3.20824 17.881 3.95783 17.881C4.52752 17.881 5.03724 17.7619 5.48699 17.5536C5.93674 17.3452 6.32653 17.0774 6.62636 16.75C6.9262 16.4226 7.25602 16.125 7.58584 15.7976C7.91566 15.5 8.36541 15.2321 8.90511 15.0238C9.44481 14.8155 10.0745 14.6964 10.7941 14.6964C12.2633 14.6964 13.4626 15.1131 14.3621 15.9762C15.2616 16.8393 15.7114 17.9405 15.7114 19.3393V19.5476V26.3036V27.881C15.1717 28.4762 14.632 28.9821 14.0623 29.369C12.5931 30.3512 11.0939 30.8274 9.56475 30.8274C8.36541 30.8274 7.4659 30.5595 6.83625 30.0238C6.2066 29.4881 5.90676 28.7738 5.90676 27.881C5.90676 26.869 6.26656 26.0357 6.98617 25.4107C7.70577 24.7857 8.72521 24.4583 10.0745 24.4583H11.1839C11.9035 24.4583 12.5031 23.8631 12.5031 23.1488V21.3929C12.5031 20.6786 11.9035 20.0833 11.1839 20.0833H10.0745C6.95618 20.0833 4.49753 20.8571 2.69852 22.375C0.899506 23.9226 0 25.8274 0 28.119C0 30.1131 0.779579 31.8393 2.36871 33.2679C3.95783 34.6964 5.93674 35.4107 8.33543 35.4107C10.3143 35.4107 12.0534 34.9048 13.5526 33.9226C14.3021 33.4167 14.8718 32.9405 15.2316 32.4643H15.7114C15.7414 32.5536 15.7713 32.6429 15.8013 32.7321V33.6845C15.8013 34.3393 16.341 34.9048 16.9707 34.9048H20.4788C21.1384 34.9048 21.6481 34.369 21.6481 33.6845V21.869C21.7081 21.8988 21.6781 21.7798 21.6481 21.6905Z" fill="#002233"/>
</svg>
