<svg width="20" height="21" viewBox="0 0 20 21" fill="none" xmlns="http://www.w3.org/2000/svg">
<path fill-rule="evenodd" clip-rule="evenodd" d="M3.70767 2.31872C3.46957 2.43777 3.13034 2.70298 2.6077 3.22563C1.62574 4.20759 0.334196 8.37675 6.14323 14.1858C11.9523 19.9948 16.1214 18.7033 17.1034 17.7213C17.626 17.1987 17.8913 16.8594 18.0103 16.6213C18.1039 16.4342 18.084 16.3653 18.0539 16.2921C17.9933 16.1449 17.8343 15.9331 17.4614 15.5602C17.302 15.4009 17.1207 15.2281 16.9112 15.0284C16.8871 15.0054 16.8626 14.9821 16.8377 14.9584C16.5995 14.7312 16.3322 14.4753 16.0427 14.1858C15.7568 13.8998 15.2527 13.546 14.7118 13.4108C14.2151 13.2866 13.7044 13.3421 13.2143 13.8322C12.7986 14.2479 12.3457 14.5459 11.8344 14.6586C11.3105 14.774 10.8205 14.6742 10.3781 14.4677C9.95022 14.268 9.54452 13.9588 9.15549 13.6162C8.76745 13.2745 8.35567 12.8627 7.923 12.43L7.89902 12.406C7.46633 11.9734 7.05455 11.5616 6.71284 11.1735C6.37026 10.7845 6.06101 10.3788 5.86135 9.95095C5.65486 9.50847 5.55502 9.01847 5.67044 8.49461C5.78309 7.98335 6.08108 7.53042 6.49679 7.11472C6.98692 6.62458 7.04238 6.11388 6.91823 5.61724C6.78299 5.07629 6.42918 4.57224 6.14323 4.28629C5.85372 3.99678 5.59779 3.72953 5.37062 3.49128C5.34691 3.46641 5.32358 3.44193 5.3006 3.41782C5.10092 3.2083 4.92811 3.02698 4.76879 2.86766C4.39587 2.49474 4.18415 2.33576 4.03687 2.27511C3.96371 2.24499 3.8948 2.22515 3.70767 2.31872ZM6.45623 2.45617C6.68205 2.693 6.92772 2.94945 7.20389 3.22563C7.62505 3.64679 8.15512 4.38017 8.37344 5.25344C8.60283 6.17102 8.48152 7.25131 7.55745 8.17538C7.26605 8.46678 7.16629 8.67676 7.13531 8.81737C7.1071 8.94537 7.11775 9.09618 7.22062 9.31662C7.33032 9.55168 7.5293 9.83099 7.83858 10.1822C8.14558 10.5308 8.52484 10.9105 8.97166 11.3574C9.41848 11.8042 9.79818 12.1834 10.1468 12.4904C10.498 12.7997 10.7773 12.9987 11.0124 13.1084C11.2328 13.2113 11.3837 13.2219 11.5116 13.1937C11.6523 13.1627 11.8622 13.063 12.1536 12.7716C13.0777 11.8475 14.158 11.7262 15.0756 11.9556C15.9488 12.1739 16.6822 12.704 17.1034 13.1251C17.3796 13.4013 17.636 13.647 17.8729 13.8728C17.8978 13.8966 17.9226 13.9202 17.9472 13.9437C18.1539 14.1406 18.3491 14.3266 18.522 14.4996C18.8916 14.8691 19.2541 15.2673 19.4409 15.721C19.6583 16.2489 19.6119 16.7722 19.3519 17.2922C19.1174 17.7612 18.7021 18.244 18.164 18.782C16.3176 20.6284 11.1529 21.3168 5.08257 15.2464C-0.987784 9.17609 -0.299431 4.01144 1.54704 2.16497C2.08505 1.62695 2.56784 1.21158 3.03685 0.977077C3.55683 0.717087 4.08011 0.670733 4.608 0.888097C5.06176 1.07494 5.45991 1.43746 5.82945 1.807C6.00242 1.97996 6.18846 2.17519 6.38537 2.38183C6.40884 2.40645 6.43246 2.43124 6.45623 2.45617Z" fill="#FCFCFC"/>
</svg>
