<svg width="20" height="21" viewBox="0 0 20 21" fill="none" xmlns="http://www.w3.org/2000/svg">
<path fill-rule="evenodd" clip-rule="evenodd" d="M3.70779 2.31872C3.4697 2.43777 3.13047 2.70298 2.60782 3.22563C1.62586 4.20759 0.334318 8.37675 6.14335 14.1858C11.9524 19.9948 16.1216 18.7033 17.1035 17.7213C17.6262 17.1987 17.8914 16.8594 18.0104 16.6213C18.104 16.4342 18.0842 16.3653 18.054 16.2921C17.9934 16.1449 17.8344 15.9331 17.4615 15.5602C17.3022 15.4009 17.1208 15.2281 16.9113 15.0284C16.8872 15.0054 16.8627 14.9821 16.8379 14.9584C16.5996 14.7312 16.3324 14.4753 16.0429 14.1858C15.7569 13.8998 15.2528 13.546 14.7119 13.4108C14.2153 13.2866 13.7046 13.3421 13.2144 13.8322C12.7987 14.2479 12.3458 14.5459 11.8345 14.6586C11.3107 14.774 10.8207 14.6742 10.3782 14.4677C9.95035 14.268 9.54465 13.9588 9.15561 13.6162C8.76757 13.2745 8.3558 12.8627 7.92312 12.43L7.89914 12.406C7.46646 11.9734 7.05468 11.5616 6.71296 11.1735C6.37038 10.7845 6.06113 10.3788 5.86147 9.95095C5.65498 9.50847 5.55514 9.01847 5.67057 8.49461C5.78321 7.98335 6.0812 7.53042 6.49691 7.11472C6.98705 6.62458 7.04251 6.11388 6.91835 5.61724C6.78311 5.07629 6.4293 4.57224 6.14335 4.28629C5.85385 3.99678 5.59791 3.72953 5.37074 3.49128C5.34703 3.46641 5.3237 3.44193 5.30072 3.41782C5.10104 3.2083 4.92824 3.02698 4.76892 2.86766C4.396 2.49474 4.18427 2.33576 4.03699 2.27511C3.96384 2.24499 3.89492 2.22515 3.70779 2.31872ZM6.45635 2.45617C6.68217 2.693 6.92784 2.94945 7.20401 3.22563C7.62517 3.64679 8.15525 4.38017 8.37356 5.25344C8.60296 6.17102 8.48164 7.25131 7.55757 8.17538C7.26617 8.46678 7.16641 8.67676 7.13543 8.81737C7.10723 8.94537 7.11787 9.09618 7.22074 9.31662C7.33044 9.55168 7.52942 9.83099 7.8387 10.1822C8.1457 10.5308 8.52496 10.9105 8.97178 11.3574C9.41861 11.8042 9.7983 12.1834 10.1469 12.4904C10.4981 12.7997 10.7775 12.9987 11.0125 13.1084C11.233 13.2113 11.3838 13.2219 11.5118 13.1937C11.6524 13.1627 11.8624 13.063 12.1538 12.7716C13.0778 11.8475 14.1581 11.7262 15.0757 11.9556C15.949 12.1739 16.6824 12.704 17.1035 13.1251C17.3797 13.4013 17.6361 13.647 17.873 13.8728C17.8979 13.8966 17.9227 13.9202 17.9474 13.9437C18.154 14.1406 18.3492 14.3266 18.5221 14.4996C18.8917 14.8691 19.2542 15.2673 19.441 15.721C19.6584 16.2489 19.6121 16.7722 19.3521 17.2922C19.1176 17.7612 18.7022 18.244 18.1642 18.782C16.3177 20.6284 11.1531 21.3168 5.08269 15.2464C-0.987662 9.17609 -0.299309 4.01144 1.54716 2.16497C2.08518 1.62695 2.56796 1.21158 3.03697 0.977077C3.55695 0.717087 4.08024 0.670733 4.60812 0.888097C5.06188 1.07494 5.46003 1.43746 5.82958 1.807C6.00254 1.97996 6.18859 2.17519 6.3855 2.38183C6.40896 2.40645 6.43258 2.43124 6.45635 2.45617Z" fill="#5A81EA"/>
</svg>
