<svg width="31" height="30" viewBox="0 0 31 30" fill="none" xmlns="http://www.w3.org/2000/svg">
<path d="M30.1098 0.396754C30.0975 0.338978 30.0683 0.2858 30.0259 0.243453C29.9834 0.201106 29.9293 0.171345 29.8699 0.15766C25.9126 -0.777813 16.7689 2.55579 11.815 7.34356C10.9314 8.19094 10.1259 9.11117 9.40763 10.0938C7.87997 9.96314 6.35231 10.0722 5.05031 10.621C1.37676 12.1842 0.307193 16.2632 0.00922822 18.0179C-0.00767292 18.1139 -0.0012978 18.2124 0.027852 18.3057C0.0570017 18.3989 0.108131 18.4844 0.177219 18.5553C0.246307 18.6262 0.33147 18.6807 0.426008 18.7144C0.520547 18.7481 0.621883 18.7601 0.722048 18.7495L6.62122 18.1204C6.62543 18.5505 6.65227 18.98 6.70162 19.4074C6.73131 19.7042 6.86757 19.9815 7.08675 20.1913L9.37115 22.3947C9.5883 22.6064 9.87507 22.7381 10.1819 22.7671C10.6215 22.8146 11.0633 22.8406 11.5056 22.8448L10.8583 28.5413C10.8475 28.6381 10.86 28.736 10.8949 28.8274C10.9298 28.9187 10.9862 29.001 11.0595 29.0678C11.1328 29.1345 11.2211 29.184 11.3175 29.2122C11.4139 29.2404 11.5157 29.2467 11.615 29.2305C13.4264 28.9496 17.6527 27.9155 19.2601 24.3637C19.8276 23.1048 19.9438 21.635 19.8128 20.1652C20.8315 19.4706 21.7858 18.6916 22.6647 17.8369C27.6342 13.0563 31.0625 4.41302 30.1098 0.396754ZM17.7067 12.1339C17.253 11.6955 16.9439 11.1368 16.8186 10.5285C16.6933 9.92014 16.7574 9.28956 17.0028 8.71647C17.2482 8.14338 17.6638 7.65354 18.1972 7.30889C18.7306 6.96425 19.3577 6.7803 19.9993 6.7803C20.6408 6.7803 21.2679 6.96425 21.8013 7.30889C22.3347 7.65354 22.7503 8.14338 22.9957 8.71647C23.2411 9.28956 23.3052 9.92014 23.1799 10.5285C23.0546 11.1368 22.7455 11.6955 22.2918 12.1339C21.9909 12.4253 21.6335 12.6564 21.2401 12.8141C20.8468 12.9718 20.4251 13.053 19.9993 13.053C19.5734 13.053 19.1517 12.9718 18.7584 12.8141C18.365 12.6564 18.0076 12.4253 17.7067 12.1339Z" fill="white"/>
<path d="M9.21525 23.9908C8.84499 24.3495 8.25108 24.4893 7.53624 24.6088C5.9302 24.8734 4.51199 23.5316 4.8005 21.9618C4.91063 21.3667 5.2363 20.5324 5.43899 20.3365C5.4833 20.2945 5.51279 20.24 5.52327 20.1809C5.53376 20.1217 5.52471 20.0609 5.49741 20.007C5.4701 19.9532 5.42594 19.909 5.37118 19.8807C5.31643 19.8525 5.25386 19.8417 5.19238 19.8498C4.29427 19.956 3.45873 20.3497 2.81879 20.9682C1.23032 22.5053 1.08032 28.2089 1.08032 28.2089C1.08032 28.2089 6.98287 28.0639 8.57134 26.5268C9.21299 25.9086 9.62069 25.0995 9.72875 24.2299C9.75375 23.9569 9.40984 23.7942 9.21525 23.9908Z" fill="white"/>
</svg>
