<svg width="47" height="23" viewBox="0 0 47 23" fill="none" xmlns="http://www.w3.org/2000/svg">
<path d="M42.0105 2.60528e-07C41.3285 0.000206845 40.656 0.149875 40.0463 0.437122C39.4366 0.724369 38.9066 1.14128 38.4982 1.65477C38.0899 2.16825 37.8145 2.76416 37.6939 3.39518C37.5733 4.0262 37.6109 4.67496 37.8036 5.28995L30.997 11.6881C30.0993 11.407 29.1289 11.407 28.2312 11.6881L23.1851 6.94418C23.3512 6.33504 23.3669 5.69827 23.231 5.08256C23.0951 4.46685 22.8113 3.88849 22.4012 3.39171C21.9912 2.89493 21.4657 2.49288 20.865 2.2163C20.2643 1.93972 19.6042 1.79593 18.9354 1.79593C18.2665 1.79593 17.6065 1.93972 17.0058 2.2163C16.4051 2.49288 15.8796 2.89493 15.4695 3.39171C15.0594 3.88849 14.7756 4.46685 14.6397 5.08256C14.5039 5.69827 14.5196 6.33504 14.6856 6.94418L6.24621 14.8728C5.30925 14.6121 4.30658 14.6524 3.39669 14.9873C2.48679 15.3222 1.72157 15.9326 1.22197 16.7221C0.722372 17.5116 0.5169 18.4351 0.638029 19.3466C0.759158 20.2582 1.19998 21.1057 1.89081 21.7554C2.58165 22.4051 3.4831 22.8198 4.45267 22.934C5.42224 23.0481 6.40463 22.8553 7.24456 22.3858C8.0845 21.9164 8.73406 21.1972 9.09059 20.3419C9.44711 19.4866 9.49026 18.544 9.21321 17.6631L17.5458 9.83034C18.4435 10.1117 19.4139 10.1117 20.3116 9.83034L25.3586 14.5752C25.1926 15.1843 25.1769 15.8211 25.3127 16.4368C25.4486 17.0525 25.7324 17.6308 26.1425 18.1276C26.5526 18.6244 27.0781 19.0265 27.6788 19.303C28.2795 19.5796 28.9395 19.7234 29.6084 19.7234C30.2773 19.7234 30.9373 19.5796 31.538 19.303C32.1387 19.0265 32.6642 18.6244 33.0742 18.1276C33.4843 17.6308 33.7681 17.0525 33.904 16.4368C34.0399 15.8211 34.0242 15.1843 33.8581 14.5752L40.7706 8.08017C41.3741 8.24755 42.0088 8.29093 42.6317 8.20739C43.2546 8.12384 43.851 7.91531 44.3806 7.59595C44.9102 7.2766 45.3606 6.85388 45.7011 6.35649C46.0416 5.8591 46.2643 5.29867 46.3542 4.71322C46.444 4.12778 46.3988 3.53101 46.2217 2.96342C46.0446 2.39584 45.7397 1.8707 45.3277 1.42365C44.9157 0.9766 44.4062 0.618093 43.8339 0.372453C43.2615 0.126814 42.6396 -0.000209969 42.0105 2.60528e-07Z" fill="white"/>
<path d="M46.9997 4.30613C46.9997 6.68433 44.9763 8.61225 42.4804 8.61225C39.9845 8.61225 37.6599 6.39726 37.6599 4.01905C37.6599 1.64084 39.7689 0 42.4804 0C44.9763 0 46.9997 1.92792 46.9997 4.30613Z" fill="white"/>
<path d="M34.0451 15.789C34.0451 18.1672 32.0218 20.0952 29.5258 20.0952C27.0299 20.0952 24.7053 17.8802 24.7053 15.502C24.7053 13.1238 26.8143 11.4829 29.5258 11.4829C32.0218 11.4829 34.0451 13.4108 34.0451 15.789Z" fill="white"/>
<path d="M23.8016 6.02878C23.8016 8.40699 21.7782 10.3349 19.2823 10.3349C16.7864 10.3349 14.4618 8.11991 14.4618 5.74171C14.4618 3.3635 16.5708 1.72266 19.2823 1.72266C21.7782 1.72266 23.8016 3.65057 23.8016 6.02878Z" fill="white"/>
<path d="M9.33976 18.6601C9.33976 21.0383 7.31643 22.9663 4.82052 22.9663C2.32462 22.9663 0 20.7513 0 18.3731C0 15.9948 2.10898 14.354 4.82052 14.354C7.31643 14.354 9.33976 16.2819 9.33976 18.6601Z" fill="white"/>
</svg>
