<svg width="31" height="30" viewBox="0 0 31 30" fill="none" xmlns="http://www.w3.org/2000/svg">
<path d="M15.5417 29.4524C7.01987 29.4524 0.0866699 22.8461 0.0866699 14.7262C0.0866699 6.60625 7.01987 0 15.5417 0C24.0635 0 30.9967 6.60625 30.9967 14.7262C30.9967 22.8461 24.0635 29.4524 15.5417 29.4524ZM15.5417 2.26557C8.33429 2.26557 2.46436 7.85868 2.46436 14.7262C2.46436 21.5937 8.33429 27.1868 15.5417 27.1868C22.749 27.1868 28.619 21.5972 28.619 14.7262C28.619 7.85514 22.7528 2.26557 15.5417 2.26557Z" fill="white"/>
<path d="M20.57 17.2751C19.2771 17.2751 18.0281 16.7285 17.0525 15.7367C16.0875 14.7393 15.5106 13.4569 15.4178 12.1033C15.3086 10.6377 15.7804 9.289 16.7464 8.30702C17.7123 7.32504 19.0624 6.79688 20.57 6.79688C22.0665 6.79688 23.421 7.33636 24.384 8.31622C25.3469 9.29608 25.8306 10.6526 25.7214 12.1047C25.627 13.4575 25.0502 14.7389 24.0868 15.7367C23.1104 16.7285 21.8621 17.2751 20.57 17.2751ZM8.69269 17.513C6.48144 17.513 4.53693 15.5653 4.3586 13.1709C4.26721 11.9447 4.66696 10.8112 5.48578 9.97929C6.30459 9.1474 7.434 8.70491 8.69195 8.70491C9.94989 8.70491 11.0786 9.16085 11.8922 9.9892C12.7058 10.8175 13.1182 11.9588 13.0253 13.1752C12.844 15.566 10.9002 17.513 8.69269 17.513ZM27.7551 21.7553C27.637 21.4225 27.3494 21.0678 26.7728 20.7315C25.0297 19.717 22.8853 19.1803 20.57 19.1803C18.2986 19.1803 16.0947 19.7396 14.3635 20.7556C12.413 21.9004 11.1023 23.5699 10.574 25.5827C10.4492 26.0563 10.2672 26.9378 10.4618 27.4312C13.5859 28.5632 17.0277 28.6151 20.1878 27.578C23.3479 26.5408 26.0261 24.4803 27.7558 21.7553H27.7551ZM8.67857 25.0184C9.20389 23.0212 10.3222 21.356 12.0571 20.0094C12.1391 19.9449 12.2015 19.8606 12.2377 19.7654C12.2739 19.6701 12.2827 19.5673 12.263 19.4678C12.2434 19.3682 12.196 19.2755 12.126 19.1993C12.0559 19.1231 11.9657 19.0661 11.8647 19.0345C10.973 18.7633 9.9551 18.6182 8.69269 18.6182C6.92279 18.6182 5.04367 19.0748 3.62969 19.9046C3.22846 20.1404 2.83465 20.231 2.53149 20.3117C3.74863 22.8749 5.76708 25.0172 8.31077 26.4457L8.44377 26.4358C8.47286 25.9571 8.55151 25.4823 8.67857 25.0184Z" fill="white"/>
</svg>
