<svg width="205" height="200" viewBox="0 0 205 200" fill="none" xmlns="http://www.w3.org/2000/svg">
<g opacity="0.1">
<path d="M37.752 46.9864V53.4373H2.6503V46.9864H37.752Z" fill="#5A81EA" stroke="#5A81EA" stroke-width="4.02129"/>
<path d="M137.174 46.9864V53.4373H72.713V46.9864H137.174Z" fill="#5A81EA" stroke="#5A81EA" stroke-width="4.02129"/>
<path d="M37.752 140.482V146.933H2.6503V140.482H37.752Z" fill="#5A81EA" stroke="#5A81EA" stroke-width="4.02129"/>
<path d="M137.174 140.482V146.933H72.713V140.482H137.174Z" fill="#5A81EA" stroke="#5A81EA" stroke-width="4.02129"/>
<path d="M57.1199 2.45181V33.6876H50.8644V2.45181H57.1199Z" fill="#5A81EA" stroke="#5A81EA" stroke-width="4.02129"/>
<path d="M57.647 66.3577V128.891H51.3915V66.3577H57.647Z" fill="#5A81EA" stroke="#5A81EA" stroke-width="4.02129"/>
<path d="M57.647 160.308V197.53H51.3915V160.308H57.647Z" fill="#5A81EA" stroke="#5A81EA" stroke-width="4.02129"/>
<path d="M37.752 46.9864V53.4373H2.6503V46.9864H37.752Z" fill="#5A81EA" stroke="#5A81EA" stroke-width="4.02129"/>
<path d="M37.752 140.482V146.933H2.6503V140.482H37.752Z" fill="#5A81EA" stroke="#5A81EA" stroke-width="4.02129"/>
<path d="M202.122 46.9864V53.4373H167.021V46.9864H202.122Z" fill="#5A81EA" stroke="#5A81EA" stroke-width="4.02129"/>
<path d="M202.122 140.482V146.933H167.021V140.482H202.122Z" fill="#5A81EA" stroke="#5A81EA" stroke-width="4.02129"/>
<path d="M202.122 46.9864V53.4373H167.021V46.9864H202.122Z" fill="#5A81EA" stroke="#5A81EA" stroke-width="4.02129"/>
<path d="M202.122 140.482V146.933H167.021V140.482H202.122Z" fill="#5A81EA" stroke="#5A81EA" stroke-width="4.02129"/>
<path d="M57.1199 2.45181V33.6876H50.8644V2.45181H57.1199Z" fill="#5A81EA" stroke="#5A81EA" stroke-width="4.02129"/>
<path d="M57.647 66.3577V128.891H51.3915V66.3577H57.647Z" fill="#5A81EA" stroke="#5A81EA" stroke-width="4.02129"/>
<path d="M57.647 160.308V197.53H51.3915V160.308H57.647Z" fill="#5A81EA" stroke="#5A81EA" stroke-width="4.02129"/>
<path d="M153.962 2.45181V33.6876H147.706V2.45181H153.962Z" fill="#5A81EA" stroke="#5A81EA" stroke-width="4.02129"/>
<path d="M154.598 66.3576V128.891H148.343V66.3576H154.598Z" fill="#5A81EA" stroke="#5A81EA" stroke-width="4.02129"/>
<path d="M154.598 160.308V197.53H148.343V160.308H154.598Z" fill="#5A81EA" stroke="#5A81EA" stroke-width="4.02129"/>
<path d="M153.962 2.45181V33.6876H147.706V2.45181H153.962Z" fill="#5A81EA" stroke="#5A81EA" stroke-width="4.02129"/>
<path d="M154.598 66.3576V128.891H148.343V66.3576H154.598Z" fill="#5A81EA" stroke="#5A81EA" stroke-width="4.02129"/>
<path d="M154.598 160.308V197.53H148.343V160.308H154.598Z" fill="#5A81EA" stroke="#5A81EA" stroke-width="4.02129"/>
</g>
</svg>
