<svg width="242" height="242" viewBox="0 0 242 242" fill="none" xmlns="http://www.w3.org/2000/svg">
<g opacity="0.15">
<path d="M125.614 103.401H116.697C115.713 103.401 114.915 102.646 114.915 101.717V2.18358C114.915 1.25424 115.713 0.5 116.697 0.5H125.614C126.598 0.5 127.396 1.25424 127.396 2.18358V101.717C127.396 102.646 126.598 103.401 125.614 103.401Z" fill="#5A81EA"/>
<path d="M125.614 241.5H116.697C115.713 241.5 114.915 240.746 114.915 239.816V140.283C114.915 139.354 115.713 138.599 116.697 138.599H125.614C126.598 138.599 127.396 139.354 127.396 140.283V239.816C127.396 240.746 126.598 241.5 125.614 241.5Z" fill="#5A81EA"/>
<path d="M97.2719 126.881H2.59683C1.61296 126.881 0.814453 126.127 0.814453 125.197V116.775C0.814453 115.846 1.61296 115.091 2.59683 115.091H97.2719C98.2558 115.091 99.0543 115.846 99.0543 116.775V125.197C99.0543 126.131 98.2558 126.881 97.2719 126.881Z" fill="#5A81EA"/>
<path d="M240.073 126.881H145.398C144.414 126.881 143.615 126.127 143.615 125.197V116.775C143.615 115.846 144.414 115.091 145.398 115.091H240.073C241.057 115.091 241.855 115.846 241.855 116.775V125.197C241.855 126.131 241.057 126.881 240.073 126.881Z" fill="#5A81EA"/>
<path d="M92.8814 102.393L30.9782 43.9209C30.2843 43.2609 30.2843 42.1969 30.9782 41.5369L37.2807 35.5838C37.9746 34.9238 39.1059 34.9238 39.8046 35.5838L101.708 94.0557C102.406 94.7156 102.406 95.7797 101.708 96.4396L95.4052 102.393C94.7066 103.053 93.5753 103.053 92.8814 102.393Z" fill="#5A81EA"/>
<path d="M202.981 206.374L141.078 147.903C140.384 147.243 140.384 146.179 141.078 145.519L147.38 139.565C148.074 138.905 149.205 138.905 149.904 139.565L211.807 198.037C212.506 198.697 212.506 199.761 211.807 200.421L205.505 206.374C204.806 207.034 203.675 207.034 202.981 206.374Z" fill="#5A81EA"/>
<path d="M37.2807 206.374L30.9782 200.421C30.2843 199.761 30.2843 198.697 30.9782 198.037L92.8814 139.565C93.5801 138.905 94.7066 138.905 95.4052 139.565L101.708 145.519C102.406 146.179 102.406 147.243 101.708 147.903L39.8046 206.374C39.1059 207.034 37.9794 207.034 37.2807 206.374Z" fill="#5A81EA"/>
<path d="M147.38 102.393L141.078 96.4397C140.384 95.7797 140.384 94.7157 141.078 94.0557L202.981 35.5838C203.679 34.9239 204.806 34.9239 205.505 35.5838L211.807 41.537C212.506 42.1925 212.506 43.261 211.807 43.9209L149.904 102.393C149.205 103.053 148.079 103.053 147.38 102.393Z" fill="#5A81EA"/>
</g>
</svg>
