<svg width="226" height="240" viewBox="0 0 226 240" fill="none" xmlns="http://www.w3.org/2000/svg">
<g opacity="0.1">
<path d="M90.3367 153.668H2.70303C1.61997 153.668 0.740967 154.366 0.740967 155.227L0.740967 163.023C0.740967 163.884 1.61997 164.582 2.70303 164.582H90.3367C91.4197 164.582 92.2987 163.884 92.2987 163.023V155.227C92.2987 154.366 91.4197 153.668 90.3367 153.668Z" fill="#5A81EA"/>
<path d="M223.329 153.668H135.695C134.612 153.668 133.733 154.366 133.733 155.227V163.023C133.733 163.884 134.612 164.582 135.695 164.582H223.329C224.412 164.582 225.291 163.884 225.291 163.023V155.227C225.291 154.366 224.412 153.668 223.329 153.668Z" fill="#5A81EA"/>
<path d="M90.3367 71.8095L2.70303 71.8095C1.61997 71.8095 0.740967 72.5077 0.740967 73.368L0.740967 81.1647C0.740967 82.025 1.61997 82.7232 2.70303 82.7232L90.3367 82.7232C91.4197 82.7232 92.2987 82.025 92.2987 81.1647V73.368C92.2987 72.5077 91.4197 71.8095 90.3367 71.8095Z" fill="#5A81EA"/>
<path d="M223.329 71.8095L135.695 71.8095C134.612 71.8095 133.733 72.5077 133.733 73.368V81.1648C133.733 82.0251 134.612 82.7233 135.695 82.7233L223.329 82.7233C224.412 82.7233 225.291 82.0251 225.291 81.1648V73.368C225.291 72.5077 224.412 71.8095 223.329 71.8095Z" fill="#5A81EA"/>
<path d="M116.226 174.228H106.41C105.327 174.228 104.448 174.926 104.448 175.786V237.475C104.448 238.335 105.327 239.033 106.41 239.033H116.226C117.309 239.033 118.188 238.335 118.188 237.475V175.782C118.188 174.926 117.309 174.228 116.226 174.228Z" fill="#5A81EA"/>
<path d="M117.013 90.6192H107.197C106.114 90.6192 105.235 91.3174 105.235 92.1777V142.832C105.235 143.692 106.114 144.39 107.197 144.39H117.013C118.096 144.39 118.975 143.692 118.975 142.832V92.1777C118.975 91.3174 118.096 90.6192 117.013 90.6192Z" fill="#5A81EA"/>
<path d="M117.013 0.370598H107.197C106.114 0.370598 105.235 1.06881 105.235 1.92912V60.5003C105.235 61.3606 106.114 62.0588 107.197 62.0588H117.013C118.096 62.0588 118.975 61.3606 118.975 60.5003V1.92912C118.975 1.06881 118.096 0.370598 117.013 0.370598Z" fill="#5A81EA"/>
</g>
</svg>
