<svg width="63" height="61" viewBox="0 0 63 61" fill="none" xmlns="http://www.w3.org/2000/svg">
<path d="M39.4944 37.5267L38.8895 37.448L38.9311 38.0566C39.0143 39.2728 39.0975 40.5701 39.1807 41.8689C39.2618 46.8969 38.3933 51.4167 36.9482 54.661C35.4829 57.9504 33.5187 59.7477 31.4968 59.7477C29.4723 59.7477 27.4669 57.9274 25.9273 54.6131C24.4084 51.3436 23.4371 46.7978 23.3955 41.7654C23.3955 40.7045 23.3958 39.6665 23.4775 38.6317L23.5237 38.0465L22.9385 38.094C21.9612 38.1734 20.8145 38.1738 19.7242 38.1738C14.5579 38.1333 9.91101 37.1855 6.56357 35.7031C4.88898 34.9614 3.56113 34.0955 2.6539 33.1621C1.74984 32.2319 1.28538 31.2595 1.26612 30.2839C1.26752 29.3116 1.71552 28.3533 2.6046 27.4439C3.49787 26.5301 4.81542 25.6898 6.48412 24.9784C9.81715 23.5574 14.459 22.6899 19.6216 22.7286C20.0791 22.7563 20.5254 22.7745 20.9626 22.7923C21.8395 22.8281 22.6796 22.8623 23.4991 22.9688L24.1476 23.0531L24.059 22.4052C23.8953 21.2084 23.813 19.9286 23.813 18.6467H23.8131L23.813 18.6385C23.7304 13.6057 24.5991 9.08133 26.0454 5.8345C27.5106 2.54508 29.4748 0.747742 31.4968 0.747742C33.5212 0.747742 35.5266 2.56809 37.0663 5.88241C38.5851 9.15192 39.5565 13.6978 39.598 18.7303C39.598 19.7911 39.5977 20.829 39.516 21.8638L39.4701 22.4453L40.0519 22.4017C41.1151 22.322 42.1813 22.3217 43.2693 22.3217C48.4356 22.3622 53.0825 23.31 56.43 24.7924C58.1045 25.534 59.4324 26.3999 60.3396 27.3334C61.2437 28.2636 61.7081 29.236 61.7274 30.2116C61.726 31.1839 61.278 32.1422 60.3889 33.0516C59.4956 33.9654 58.1781 34.8057 56.5094 35.5171C53.1763 36.9381 48.5344 37.8056 43.3718 37.7669C42.9143 37.7392 42.468 37.721 42.0309 37.7032C41.154 37.6674 40.3139 37.6332 39.4944 37.5267Z" stroke="#5A81EA"/>
<circle cx="31.4967" cy="30.3638" r="5.64613" stroke="#5A81EA"/>
</svg>
