<svg width="54" height="61" viewBox="0 0 54 61" fill="none" xmlns="http://www.w3.org/2000/svg">
<path d="M11.9148 1.08264C13.3407 1.08264 14.7535 1.82283 16.0939 3.27884C17.4347 4.7353 18.6652 6.8704 19.7089 9.55086C21.7951 14.9086 23.0962 22.3443 23.0962 30.5826C23.0962 38.821 21.7951 46.2567 19.7089 51.6144C18.6652 54.2949 17.4347 56.43 16.0939 57.8864C14.7535 59.3424 13.3407 60.0826 11.9148 60.0826C10.4889 60.0826 9.07613 59.3424 7.73574 57.8864C6.39492 56.43 5.16445 54.2949 4.12073 51.6144C2.03452 46.2567 0.733397 38.821 0.733397 30.5826C0.733396 22.3443 2.03452 14.9086 4.12073 9.55086C5.16445 6.8704 6.39492 4.7353 7.73573 3.27884C9.07613 1.82283 10.4889 1.08264 11.9148 1.08264Z" stroke="#5A81EA"/>
<path d="M24.658 1.08264C26.0839 1.08264 27.4967 1.82283 28.8371 3.27884C30.1779 4.7353 31.4083 6.8704 32.4521 9.55086C34.5383 14.9086 35.8394 22.3443 35.8394 30.5826C35.8394 38.821 34.5383 46.2567 32.4521 51.6144C31.4083 54.2949 30.1779 56.43 28.8371 57.8864C27.4967 59.3424 26.0839 60.0826 24.658 60.0826C23.2321 60.0826 21.8193 59.3424 20.4789 57.8864C19.1381 56.43 17.9076 54.2949 16.8639 51.6144C14.7777 46.2567 13.4766 38.821 13.4766 30.5826C13.4766 22.3443 14.7777 14.9086 16.8639 9.55086C17.9076 6.8704 19.1381 4.7353 20.4789 3.27884C21.8193 1.82283 23.2321 1.08264 24.658 1.08264Z" stroke="#5A81EA"/>
<path d="M41.6492 1.08264C43.0751 1.08264 44.4879 1.82283 45.8283 3.27884C47.1691 4.7353 48.3996 6.8704 49.4433 9.55086C51.5295 14.9086 52.8306 22.3443 52.8306 30.5826C52.8306 38.821 51.5295 46.2567 49.4433 51.6144C48.3996 54.2949 47.1691 56.43 45.8283 57.8864C44.4879 59.3424 43.0751 60.0826 41.6492 60.0826C40.2233 60.0826 38.8105 59.3424 37.4701 57.8864C36.1293 56.43 34.8988 54.2949 33.8551 51.6144C31.7689 46.2567 30.4678 38.821 30.4678 30.5826C30.4678 22.3443 31.7689 14.9086 33.8551 9.55086C34.8988 6.8704 36.1293 4.7353 37.4701 3.27884C38.8105 1.82283 40.2233 1.08264 41.6492 1.08264Z" stroke="#5A81EA"/>
</svg>
