<svg width="66" height="61" viewBox="0 0 66 61" fill="none" xmlns="http://www.w3.org/2000/svg">
<rect x="10.4508" y="9.48984" width="45.6314" height="45.3053" stroke="#5A81EA" stroke-width="0.8"/>
<line y1="-0.4" x2="85.465" y2="-0.4" transform="matrix(-0.712136 0.702041 -0.697358 -0.716723 65.2661 0.247742)" stroke="#5A81EA" stroke-width="0.8"/>
<line y1="-0.4" x2="85.465" y2="-0.4" transform="matrix(0.712136 0.702041 0.697358 -0.716723 1.26611 0.247742)" stroke="#5A81EA" stroke-width="0.8"/>
<path d="M63.611 32.4583C63.611 36.4256 60.4166 39.6372 56.4816 39.6372C52.5466 39.6372 49.3521 36.4256 49.3521 32.4583C49.3521 28.491 52.5466 25.2793 56.4816 25.2793C60.4166 25.2793 63.611 28.491 63.611 32.4583Z" stroke="#5A81EA" stroke-width="0.8"/>
<path d="M17.1798 32.4583C17.1798 36.4256 13.9854 39.6372 10.0504 39.6372C6.11541 39.6372 2.921 36.4256 2.921 32.4583C2.921 28.491 6.11541 25.2793 10.0504 25.2793C13.9854 25.2793 17.1798 28.491 17.1798 32.4583Z" stroke="#5A81EA" stroke-width="0.8"/>
</svg>
