<svg width="106" height="61" viewBox="0 0 106 61" fill="none" xmlns="http://www.w3.org/2000/svg">
<path d="M23.6783 0.97153C29.8677 0.97153 35.4981 4.25074 39.5936 9.60569C43.6894 14.961 46.2339 22.3762 46.2339 30.5826C46.2339 38.7891 43.6894 46.2043 39.5936 51.5596C35.4981 56.9145 29.8677 60.1938 23.6783 60.1938C17.489 60.1938 11.8586 56.9145 7.76306 51.5596C3.66724 46.2043 1.12277 38.7891 1.12277 30.5826C1.12277 22.3762 3.66724 14.961 7.76306 9.60569C11.8586 4.25074 17.489 0.97153 23.6783 0.97153Z" stroke="#5A81EA" stroke-width="0.777778"/>
<path d="M52.8451 0.97153C65.4316 0.971529 75.7895 14.1323 75.7895 30.5826C75.7895 47.033 65.4316 60.1938 52.8451 60.1938C40.2585 60.1938 29.9006 47.033 29.9006 30.5826C29.9006 14.1323 40.2585 0.97153 52.8451 0.97153Z" stroke="#5A81EA" stroke-width="0.777778"/>
<path d="M82.7894 0.97153C88.9788 0.97153 94.6091 4.25074 98.7047 9.60569C102.801 14.961 105.345 22.3762 105.345 30.5826C105.345 38.7891 102.801 46.2043 98.7047 51.5596C94.6091 56.9145 88.9788 60.1938 82.7894 60.1938C76.6001 60.1938 70.9697 56.9145 66.8741 51.5596C62.7783 46.2043 60.2339 38.7891 60.2339 30.5826C60.2339 22.3762 62.7783 14.961 66.8741 9.60569C70.9697 4.25074 76.6001 0.97153 82.7894 0.97153Z" stroke="#5A81EA" stroke-width="0.777778"/>
</svg>
