<svg width="61" height="39" viewBox="0 0 61 39" fill="none" xmlns="http://www.w3.org/2000/svg">
<path d="M59.7656 8.74778C59.7656 9.64906 59.1083 10.6232 57.6321 11.6005C56.1753 12.5649 54.0344 13.4527 51.344 14.206C45.9702 15.7107 38.5177 16.6478 30.2656 16.6478C22.0135 16.6478 14.561 15.7107 9.18724 14.206C6.49685 13.4527 4.35592 12.5649 2.89917 11.6005C1.42292 10.6232 0.765625 9.64906 0.765625 8.74778C0.765625 7.8465 1.42292 6.87231 2.89917 5.89504C4.35592 4.93068 6.49685 4.04287 9.18724 3.28956C14.561 1.7849 22.0135 0.847778 30.2656 0.847778C38.5177 0.847778 45.9702 1.7849 51.344 3.28956C54.0344 4.04287 56.1753 4.93068 57.6321 5.89504C59.1083 6.87231 59.7656 7.8465 59.7656 8.74778Z" stroke="#5A81EA"/>
<path d="M59.7656 17.7478C59.7656 18.6491 59.1083 19.6232 57.6321 20.6005C56.1753 21.5649 54.0344 22.4527 51.344 23.206C45.9702 24.7107 38.5177 25.6478 30.2656 25.6478C22.0135 25.6478 14.561 24.7107 9.18724 23.206C6.49685 22.4527 4.35592 21.5649 2.89917 20.6005C1.42292 19.6232 0.765625 18.6491 0.765625 17.7478C0.765625 16.8465 1.42292 15.8723 2.89917 14.895C4.35592 13.9307 6.49685 13.0429 9.18724 12.2896C14.561 10.7849 22.0135 9.84778 30.2656 9.84778C38.5177 9.84778 45.9702 10.7849 51.344 12.2896C54.0344 13.0429 56.1753 13.9307 57.6321 14.895C59.1083 15.8723 59.7656 16.8465 59.7656 17.7478Z" stroke="#5A81EA"/>
<path d="M59.7656 29.7478C59.7656 30.6491 59.1083 31.6232 57.6321 32.6005C56.1753 33.5649 54.0344 34.4527 51.344 35.206C45.9702 36.7107 38.5177 37.6478 30.2656 37.6478C22.0135 37.6478 14.561 36.7107 9.18724 35.206C6.49685 34.4527 4.35592 33.5649 2.89917 32.6005C1.42292 31.6232 0.765625 30.6491 0.765625 29.7478C0.765625 28.8465 1.42292 27.8723 2.89917 26.895C4.35592 25.9307 6.49685 25.0429 9.18724 24.2896C14.561 22.7849 22.0135 21.8478 30.2656 21.8478C38.5177 21.8478 45.9702 22.7849 51.344 24.2896C54.0344 25.0429 56.1753 25.9307 57.6321 26.895C59.1083 27.8723 59.7656 28.8465 59.7656 29.7478Z" stroke="#5A81EA"/>
</svg>
